<svg width="510" height="229" viewBox="0 0 510 229" fill="none" xmlns="http://www.w3.org/2000/svg">
<path d="M80.8247 40.5637C82.3492 38.8265 84.1813 37.9878 86.4697 38.9463C88.6884 39.8922 89.5284 41.7019 89.6837 43.991C89.8929 47.1218 90.251 50.2401 90.4095 53.3709C91.0434 65.7367 94.5553 77.5539 97.3414 89.5067C98.2574 93.4289 99.5094 97.2723 100.527 101.172C100.628 101.698 100.873 102.185 101.235 102.58C101.597 102.976 102.062 103.264 102.578 103.414C109.763 106.034 116.904 108.774 124.096 111.379C125.516 111.892 126.105 112.529 126.08 114.112C125.979 120.065 126.001 126.024 126.064 131.98C126.064 133.373 125.687 133.872 124.213 133.872C113.335 133.818 102.454 133.846 91.5664 133.834C89.4396 133.834 89.2589 133.559 89.9531 131.611C90.7011 129.517 91.4555 127.427 92.2796 125.135C87.0624 123.593 81.5251 122.556 81.0275 116.054C79.5632 118.063 78.4284 120.554 76.4982 122.004C74.5679 123.454 71.8008 123.933 69.1669 124.924L72.4759 133.645C71.3254 133.736 70.6439 133.837 69.9624 133.84C58.6311 133.84 47.2999 133.818 35.9686 133.884C34.257 133.884 33.6294 133.499 33.6706 131.677C33.791 125.854 33.7498 120.011 33.6928 114.197C33.6928 112.908 34.0826 112.261 35.3441 111.826C42.8212 109.253 50.2412 106.551 57.7342 104.001C59.4774 103.405 60.4885 102.547 60.9259 100.674C64.0004 87.5329 67.4268 74.464 70.1938 61.2627C71.3634 55.6694 71.1891 49.8018 71.6835 44.0603C71.7755 42.9978 71.9244 41.8533 72.3999 40.9074C74.1685 37.5212 77.8262 37.3761 80.8247 40.5637ZM72.1843 63.8576C71.7596 65.434 71.319 67.0263 70.9165 68.6217C67.8758 80.5797 64.852 92.5419 61.8451 104.508C61.703 105.241 61.7745 105.999 62.0511 106.693C63.5028 110.521 65.0211 114.327 66.5425 118.129C68.4696 122.937 68.4442 122.836 73.4363 121.225C76.0037 120.396 77.5124 118.794 77.9625 116.278C78.4316 113.642 78.9134 110.965 78.9419 108.304C79.0402 93.3911 78.999 78.4777 79.0053 63.5644V61.3573C76.5457 60.9853 75.3729 61.496 74.7866 63.5202C74.2193 65.6832 73.7665 67.8744 73.43 70.0846C72.7042 74.1834 72.0734 78.2822 71.2937 82.381C71.1986 82.8824 70.4537 83.2607 70.0068 83.6958C69.7406 83.1346 69.3729 82.5954 69.2461 82.0058C69.1542 81.536 69.4046 81.0064 69.4838 80.5019C70.3756 74.9464 71.2609 69.3889 72.14 63.8292C73.1986 61.5244 74.2921 59.2638 77.2779 58.9768C77.8294 58.9232 78.3714 58.8003 79.0148 58.6931C79.0148 55.4582 78.9578 52.3273 79.0402 49.2028C79.075 47.7682 78.4063 47.1628 77.1162 47.207C75.636 47.2574 73.6645 46.9547 73.43 49.0104C72.8785 53.9164 72.5837 58.898 72.1938 63.8576H72.1843ZM82.1717 58.9295C86.5458 59.2196 88.0672 60.2412 88.8532 64.0436C90.1211 70.1193 91.1195 76.2454 92.1433 82.3621C92.2257 82.8603 91.6266 83.4719 91.3445 84.0269C90.9262 83.6327 90.4158 83.2985 90.1211 82.8288C89.8643 82.4157 89.82 81.8576 89.7344 81.3532C88.8564 76.2486 88.0196 71.1345 87.0973 66.0394C86.8818 64.8602 86.663 63.495 85.9372 62.65C85.2684 61.8681 83.9118 61.6726 82.8564 61.2186C82.6123 61.9784 82.1527 62.7383 82.1527 63.4981C82.102 77.9007 82.064 92.3065 82.1305 106.709C82.1305 109.443 82.514 112.186 82.8817 114.907C83.3698 118.504 85.0624 121.156 88.9705 121.871C89.7892 122.043 90.5856 122.306 91.3445 122.657C92.4697 123.142 93.0466 122.912 93.4713 121.679C95.3224 116.294 97.2748 110.959 99.1766 105.571C99.3414 105.039 99.3546 104.473 99.2146 103.934C96.679 93.9586 93.969 84.0206 91.5664 74.01C90.3271 68.8613 89.4935 63.6053 88.6852 58.3683C88.2383 55.4676 88.2383 52.5007 87.9975 49.5685C87.8358 47.5727 86.2161 47.6421 84.8279 47.5475C83.6583 47.4655 82.2668 47.5317 82.2066 49.0893C82.0925 52.3399 82.1812 55.578 82.1812 58.9295H82.1717ZM87.6329 45.8354C87.5981 44.032 87.9087 42.0519 85.8675 41.0461C85.1987 40.7308 83.9657 40.7308 83.411 41.1565C81.8484 42.3514 82.2225 44.1518 82.3334 45.8354H87.6329ZM78.9482 45.331C78.888 43.723 79.6424 41.8249 77.8072 40.6835C77.2398 40.3304 76.121 40.3683 75.4934 40.6993C73.4649 41.7366 73.7913 43.7419 73.6772 45.5769L78.9482 45.331Z" fill="white"/>
<path d="M12.5389 54.7771L12.5167 54.8339L20.8337 58.5165C21.604 58.857 21.6705 59.1471 21.3377 59.888L20.3139 62.1802C19.9811 62.918 19.68 63.1261 18.9256 62.7761L3.00478 55.723C2.26309 55.4077 2.21872 55.0483 2.52617 54.3673L3.065 53.166C3.45486 52.2926 3.78767 51.9048 4.61493 51.7566L16.3107 49.7388L16.3329 49.6852L7.49292 45.7692C6.72588 45.4287 6.68151 45.0819 7.01431 44.3441L8.04126 42.0488C8.35822 41.3141 8.63081 41.166 9.40102 41.5065L25.3251 48.5564C26.0636 48.8717 26.1079 49.2311 25.8037 49.9122L25.2648 51.1134C24.8718 51.9868 24.5136 52.3525 23.7117 52.5228L12.5389 54.7771Z" fill="white"/>
<path d="M38.8561 34.4502C37.9971 35.3299 37.6992 35.2479 37.0335 34.8979L34.7641 33.662L30.8053 37.7103L32.1112 39.9331C32.5042 40.6047 32.5708 40.879 31.7118 41.7555L29.8893 43.6189C29.4265 44.0919 29.0683 44.2495 28.7038 43.8901C28.5517 43.745 28.3869 43.4518 27.81 42.4429C24.9574 37.3477 22.2791 32.7129 19.886 28.0529C19.4043 27.1291 19.5025 26.5143 20.4027 25.5936L22.3044 23.6451C23.2046 22.7245 23.8195 22.6078 24.7609 23.0618C29.5153 25.3193 34.2697 27.8133 39.4836 30.509C40.5106 31.045 40.8117 31.209 40.9607 31.3572C41.3283 31.7103 41.1825 32.0729 40.7229 32.5427L38.8561 34.4502ZM31.3568 31.5716C29.6452 30.6257 27.1381 29.2006 25.2331 28.1475L25.0018 28.384C26.0921 30.2757 27.5913 32.7224 28.6119 34.3745L31.3568 31.5716Z" fill="white"/>
<path d="M55.2746 11.2194C55.6676 14.8957 55.9941 18.1117 56.1969 20.5994C56.2793 21.5453 55.9528 21.8606 55.0717 22.2263L53.3918 22.9515C52.5075 23.333 52.0638 23.3645 51.4267 22.6582C49.8641 20.9557 47.5059 18.3261 45.246 15.5547L45.135 15.6051C46.593 19.1743 48.2349 22.9988 49.4457 25.7923C49.7816 26.5616 49.6866 26.798 48.7769 27.189L46.5582 28.1538C45.6485 28.5479 45.3632 28.4123 45.0494 27.6998C42.9448 22.8096 40.6849 16.8127 38.9385 12.0581C38.5042 10.8442 38.7007 10.4659 39.6928 10.0402L42.3394 8.89571C43.6326 8.33449 44.2412 8.43538 44.9797 9.3182C47.8862 12.818 49.8292 15.2394 51.9909 17.7901L52.1842 17.7081C51.8672 14.3282 51.4298 11.2541 50.8752 6.76748C50.7357 5.62297 51.0748 5.1185 52.368 4.56043L55.04 3.40646C56.0352 2.97766 56.4441 3.09116 57.0432 4.23568C59.3411 8.75067 62.2064 14.4859 64.3681 19.3508C64.6851 20.0634 64.5805 20.3661 63.6708 20.7602L61.4109 21.7376C60.5012 22.1317 60.2667 22.0371 59.9307 21.271C58.7104 18.4743 57.0178 14.675 55.3887 11.1816L55.2746 11.2194Z" fill="white"/>
<path d="M83.6995 19.2625C82.4665 19.2878 82.3112 19.0229 82.0862 18.3167L81.3445 15.8511L75.6677 15.9646L75.0338 18.4585C74.8373 19.2121 74.6915 19.4517 73.449 19.4769L70.8341 19.5305C70.1716 19.5305 69.8103 19.4013 69.7976 18.9C69.7976 18.6887 69.8769 18.3576 70.1875 17.2478C71.7564 11.623 73.1257 6.45534 74.7073 1.4611C75.0243 0.467927 75.5219 0.0990342 76.8119 0.0738108L79.5568 0.00129338C80.8468 -0.0239301 81.3667 0.316586 81.7153 1.30345C83.4998 6.23148 85.1353 11.3424 86.9293 16.8978C87.2811 17.9951 87.3794 18.323 87.3825 18.5311C87.3825 19.0387 87.0371 19.1963 86.3746 19.2089L83.6995 19.2625ZM80.3968 11.9824C79.8452 10.1127 79.0687 7.34762 78.457 5.26669H78.14C77.579 7.36969 76.9134 10.1632 76.4728 12.0549L80.3968 11.9824Z" fill="white"/>
<path d="M98.2574 22.3871C96.4863 21.8077 94.8074 20.9795 93.2717 19.9278C92.6092 19.436 92.5743 19.0481 92.8343 18.5374L93.9468 16.3303C94.2225 15.7596 94.6219 15.6997 95.1322 16.0781C96.4326 17.0766 97.883 17.8651 99.4302 18.4144L99.5728 18.4585C101.348 19.0229 102.108 18.7738 102.498 17.5978L102.59 17.314C102.971 16.1159 102.473 15.706 100.882 14.8579L99.0498 13.8742C95.8992 12.1874 95.427 10.2168 96.3018 7.4832L96.5585 6.6855C97.0783 5.06175 97.8898 4.00236 99.0118 3.44745C100.438 2.74119 102.34 2.81686 105.202 3.71544L105.405 3.7785C107.123 4.32396 109.025 5.27299 110.032 6.06438C110.562 6.48056 110.578 6.83054 110.166 7.51788L109.015 9.44116C108.727 9.94563 108.365 9.98977 107.801 9.58935C106.706 8.81003 105.495 8.2048 104.213 7.79534L104.099 7.7575C102.178 7.14898 101.481 7.36654 101.151 8.38809L101.069 8.64663C100.777 9.55782 101.088 9.9677 102.454 10.7149L104.495 11.8342C107.605 13.54 108.489 14.9178 107.376 18.3923L107.158 19.0765C105.953 22.8348 103.462 24.0235 98.5997 22.4785L98.2574 22.3871Z" fill="white"/>
<path d="M119.281 14.4449C118.647 13.9971 118.6 13.7481 119.018 13.1616L120.318 11.3298C120.768 10.6992 121.002 10.6771 121.64 11.1248L132.223 18.5531C132.857 19.004 132.92 19.2279 132.47 19.8647L131.17 21.6966C130.755 22.283 130.505 22.3272 129.865 21.8763L126.647 19.6188L118.346 31.3193C117.915 31.9279 117.646 31.9972 116.885 31.4612L114.552 29.8249C113.792 29.2889 113.763 29.0146 114.197 28.406L122.498 16.7118L119.281 14.4449Z" fill="white"/>
<path d="M134.651 37.5212C133.753 38.1948 132.898 38.9223 132.09 39.6998C132.025 39.7495 131.973 39.8126 131.936 39.8848C131.899 39.9569 131.878 40.0363 131.875 40.1172C131.873 40.1982 131.888 40.2788 131.92 40.3532C131.952 40.4276 132 40.4941 132.061 40.548L135.953 45.5927C136.521 46.3273 136.48 46.4692 135.836 46.961L134.074 48.3168C133.503 48.7519 133.281 48.8086 132.714 48.074L128.312 42.3546C126.521 40.0309 126.197 38.5711 128.055 36.8653C129.402 35.6042 130.955 34.3903 132.53 33.189L133.985 32.0823C135.012 31.3004 136.521 30.1906 137.934 29.2983C140.556 27.6399 141.858 28.1506 143.795 30.6667L148.163 36.342C148.749 37.1018 148.645 37.2153 148.026 37.6883L146.239 39.0535C145.665 39.4886 145.503 39.5737 144.92 38.8139L141.044 33.7692C140.727 33.3435 140.464 33.3088 140.112 33.539C139.614 33.8795 138.549 34.6551 137.694 35.2668L141.551 40.2737C142.007 40.8664 142.017 41.125 141.443 41.5601L139.776 42.8212C139.275 43.2027 139.003 43.1365 138.546 42.5501L134.651 37.5212Z" fill="white"/>
<path d="M137.963 58.9895C137.713 58.2864 137.839 58.0184 138.521 57.7787L143.05 56.1739C145.624 53.3899 149.706 49.5937 153.288 47.0903C153.881 46.693 154.223 46.775 154.413 47.2952L155.472 50.2527C155.763 51.0693 155.874 51.2837 155.228 51.703C153.041 53.1755 149.982 55.4866 148.083 57.063L148.134 57.2049C150.606 57.249 154.423 57.0378 157.05 56.8076C157.817 56.7257 157.871 56.959 158.163 57.7756L159.193 60.6479C159.383 61.1839 159.161 61.4519 158.448 61.515C154.093 61.8303 148.546 61.4677 144.781 60.9285L140.223 62.5428C139.545 62.7856 139.272 62.6563 139.022 61.9532L137.963 58.9895Z" fill="white"/>
<path d="M42.5328 155.097H42.4282V170.94C42.4282 172.403 42.0066 172.719 40.5898 172.719H36.1714C34.7546 172.719 34.2284 172.403 34.2284 170.94V140.622C34.2284 139.209 34.7546 138.894 36.0668 138.894H38.3806C40.0637 138.894 40.9163 139.156 41.7436 140.36L53.3094 157.512H53.414V140.663C53.414 139.2 53.9402 138.885 55.3601 138.885H59.7754C61.1954 138.885 61.6169 139.2 61.6169 140.663V170.994C61.6169 172.403 61.0908 172.719 59.7754 172.719H57.4616C55.7817 172.719 54.9259 172.403 54.0986 171.253L42.5328 155.097Z" fill="white"/>
<path d="M80.2288 159.07V171.051C80.2288 172.517 79.9118 172.725 78.2826 172.725H73.3412C71.7121 172.725 71.3983 172.517 71.3983 171.051V145.005C71.3983 142.441 71.6075 141.606 72.869 140.247C73.6582 139.408 75.2335 138.885 77.6519 138.885H92.0577C93.6425 138.885 93.8422 139.358 93.8422 140.559V144.324C93.8422 145.632 93.4745 145.998 92.0577 145.998H81.018C80.4918 145.998 80.2288 146.206 80.2288 146.783V152.483H90.6884C92.0577 152.483 92.3176 152.742 92.3176 154.101V157.503C92.3176 158.764 92.0577 159.079 90.6884 159.079L80.2288 159.07Z" fill="white"/>
<path d="M101.205 145.998C99.839 145.998 99.5221 145.682 99.5221 144.421V140.505C99.5221 139.146 99.839 138.885 101.205 138.885H123.861C125.227 138.885 125.544 139.146 125.544 140.505V144.428C125.544 145.689 125.227 146.004 123.861 146.004H116.977V171.051C116.977 172.359 116.66 172.725 115.031 172.725H110.036C108.406 172.725 108.093 172.359 108.093 171.051V145.998H101.205Z" fill="white"/>
<path d="M3.09035 89.3679C3.09035 87.4404 3.16431 85.515 3.31223 83.5918C3.53093 80.7131 3.85423 77.8471 4.66247 75.0788C4.78926 74.65 4.90019 74.2023 5.06818 73.7893C5.17172 73.5466 5.29467 73.3125 5.43585 73.0893L8.79245 73.619L6.3899 71.226L7.92399 68.2023L4.89385 69.7378L2.48813 67.3447L3.02062 70.6868L0 72.2223C0.015848 72.2223 0.0824095 72.2223 0.0982574 72.2381C1.18543 72.4083 2.26943 72.5943 3.35977 72.7488C3.39757 73.0119 3.41453 73.2776 3.41048 73.5434C3.41048 73.9091 3.38513 74.2717 3.36611 74.6374C3.3435 75.3658 3.27788 76.0922 3.16959 76.813C2.95829 78.0552 2.78185 79.3038 2.64027 80.5586C2.29803 83.4827 2.12659 86.4241 2.1268 89.3679C2.12528 100.792 4.67644 112.073 9.59574 122.396C14.515 132.719 21.6795 141.825 30.5707 149.056L29.6199 147.795C12.821 133.805 3.09035 112.807 3.09035 89.3679Z" fill="white"/>
<path d="M156.683 89.3679C156.683 87.4404 156.609 85.515 156.461 83.5918C156.242 80.7131 155.919 77.8471 155.11 75.0789C154.984 74.6501 154.873 74.2023 154.705 73.7893C154.601 73.5466 154.478 73.3125 154.337 73.0894L150.98 73.6191L153.383 71.226L151.839 68.2149L154.87 69.7504L157.275 67.3573L156.743 70.6994L159.773 72.2349C159.757 72.2349 159.691 72.2349 159.675 72.2507C158.587 72.4209 157.504 72.607 156.413 72.7615C156.374 73.0245 156.356 73.2902 156.359 73.556C156.375 73.9217 156.388 74.2843 156.407 74.6501C156.429 75.3784 156.495 76.1049 156.603 76.8256C156.815 78.0678 156.991 79.3164 157.133 80.5713C157.475 83.4953 157.646 86.4367 157.646 89.3805C157.648 100.805 155.096 112.086 150.177 122.409C145.258 132.732 138.093 141.838 129.202 149.069L130.153 147.807C146.949 133.805 156.683 112.807 156.683 89.3679Z" fill="white"/>
<path d="M386.722 135.391C386.59 135.403 386.456 135.382 386.333 135.332C386.21 135.281 386.101 135.202 386.015 135.101C385.94 134.988 385.891 134.859 385.87 134.725C385.849 134.59 385.858 134.453 385.895 134.322L386.041 133.597C386.116 133.249 386.275 132.925 386.503 132.651C386.858 132.242 387.259 131.874 387.698 131.557L403.011 118.993C404.225 118.078 405.382 117.09 406.475 116.035C407.234 115.305 407.876 114.463 408.377 113.538C408.812 112.671 409.123 111.748 409.302 110.795C409.759 108.628 409.491 106.931 408.497 105.703C407.504 104.476 405.855 103.861 403.55 103.859C402.174 103.838 400.814 104.137 399.575 104.732C398.389 105.314 397.347 106.151 396.526 107.182C395.654 108.281 394.977 109.52 394.526 110.846C394.432 111.144 394.252 111.408 394.01 111.606C393.767 111.804 393.472 111.928 393.16 111.962H392.187C392.059 111.975 391.93 111.958 391.811 111.911C391.692 111.865 391.586 111.79 391.502 111.694C391.369 111.502 391.317 111.267 391.356 111.038C391.659 109.837 392.135 108.685 392.77 107.62C393.481 106.405 394.368 105.301 395.404 104.344C396.52 103.315 397.806 102.486 399.207 101.894C400.783 101.242 402.477 100.92 404.184 100.949C406.652 100.949 408.545 101.417 409.863 102.355C411.125 103.216 412.02 104.513 412.374 105.993C412.732 107.574 412.732 109.214 412.374 110.795C412.128 112.078 411.676 113.314 411.033 114.453C410.351 115.633 409.523 116.725 408.57 117.703C407.434 118.868 406.211 119.946 404.913 120.929L391.014 132.475H407.353C407.493 132.46 407.635 132.478 407.766 132.529C407.897 132.579 408.014 132.66 408.108 132.765C408.184 132.887 408.235 133.023 408.255 133.165C408.276 133.307 408.267 133.452 408.228 133.591L408.082 134.316C408.029 134.623 407.864 134.9 407.619 135.095C407.362 135.292 407.044 135.395 406.719 135.385L386.722 135.391Z" fill="white"/>
<path d="M424.906 135.893C422.47 135.893 420.471 135.415 418.909 134.461C417.348 133.507 416.3 132.035 415.765 130.047C415.226 128.059 415.234 125.544 415.787 122.502C415.984 121.534 416.161 120.61 416.326 119.737C416.491 118.864 416.675 117.99 416.884 117.117C417.093 116.244 417.315 115.323 417.543 114.352C418.26 111.348 419.252 108.85 420.52 106.857C421.663 104.987 423.288 103.455 425.226 102.418C427.246 101.415 429.48 100.916 431.737 100.964C434.207 100.964 436.214 101.449 437.759 102.418C439.304 103.387 440.343 104.867 440.878 106.857C441.417 108.848 441.409 111.346 440.856 114.352C440.691 115.323 440.52 116.245 440.342 117.117C440.165 117.989 439.978 118.863 439.781 119.737C439.588 120.61 439.36 121.534 439.1 122.502C438.383 125.541 437.383 128.056 436.098 130.047C434.952 131.907 433.328 133.431 431.394 134.461C429.379 135.451 427.153 135.942 424.906 135.893ZM424.906 132.982C427.706 132.982 430.039 132.142 431.905 130.46C433.771 128.779 435.161 126.046 436.076 122.262C436.336 121.294 436.555 120.412 436.732 119.62C436.909 118.829 437.084 118.044 437.246 117.243C437.407 116.442 437.562 115.569 437.734 114.598C438.416 110.814 438.31 108.082 437.417 106.4C436.523 104.718 434.63 103.878 431.737 103.878C428.907 103.878 426.575 104.718 424.738 106.4C422.902 108.082 421.512 110.814 420.567 114.598C420.339 115.569 420.13 116.452 419.933 117.243C419.737 118.034 419.569 118.819 419.423 119.62C419.277 120.421 419.106 121.294 418.909 122.262C418.227 126.046 418.333 128.779 419.226 130.46C420.12 132.142 422.014 132.977 424.906 132.967V132.982Z" fill="white"/>
<path d="M443.975 135.391C443.842 135.403 443.709 135.382 443.586 135.332C443.463 135.281 443.354 135.202 443.268 135.101C443.193 134.988 443.143 134.859 443.122 134.725C443.101 134.59 443.11 134.453 443.147 134.322L443.293 133.597C443.368 133.249 443.527 132.925 443.756 132.651C444.11 132.242 444.511 131.874 444.951 131.557L460.263 118.993C461.477 118.078 462.634 117.09 463.728 116.035C464.487 115.305 465.128 114.463 465.629 113.538C466.064 112.671 466.376 111.748 466.555 110.795C467.009 108.628 466.741 106.931 465.75 105.703C464.759 104.476 463.108 103.861 460.799 103.859C459.45 103.834 458.113 104.122 456.895 104.698C455.677 105.275 454.61 106.125 453.778 107.182C452.906 108.281 452.23 109.52 451.778 110.846C451.684 111.144 451.505 111.408 451.262 111.606C451.019 111.804 450.724 111.928 450.412 111.962H449.448C449.322 111.975 449.193 111.958 449.075 111.911C448.956 111.864 448.85 111.79 448.767 111.694C448.634 111.502 448.582 111.267 448.621 111.038C448.924 109.837 449.4 108.686 450.035 107.62C450.746 106.405 451.633 105.301 452.669 104.344C453.783 103.314 455.071 102.485 456.472 101.895C458.047 101.242 459.74 100.92 461.445 100.949C463.918 100.949 465.812 101.417 467.128 102.355C468.39 103.216 469.285 104.513 469.639 105.993C469.997 107.574 469.997 109.214 469.639 110.795C469.394 112.081 468.941 113.318 468.298 114.459C467.616 115.64 466.788 116.732 465.835 117.71C464.698 118.873 463.476 119.952 462.178 120.935L448.279 132.481H464.618C464.758 132.466 464.899 132.485 465.031 132.535C465.162 132.585 465.279 132.666 465.373 132.771C465.449 132.893 465.5 133.029 465.521 133.172C465.541 133.314 465.532 133.459 465.493 133.597L465.347 134.322C465.294 134.63 465.129 134.906 464.884 135.101C464.626 135.299 464.307 135.401 463.981 135.391H443.975Z" fill="white"/>
<path d="M471.284 135.391C471.151 135.403 471.018 135.382 470.895 135.332C470.772 135.281 470.663 135.202 470.577 135.101C470.502 134.988 470.452 134.859 470.431 134.725C470.411 134.59 470.419 134.453 470.457 134.322L470.602 133.597C470.678 133.249 470.836 132.925 471.065 132.651C471.419 132.242 471.82 131.874 472.26 131.557L487.572 118.993C488.786 118.078 489.943 117.09 491.037 116.035C491.796 115.305 492.437 114.463 492.938 113.538C493.373 112.671 493.685 111.748 493.864 110.795C494.316 108.628 494.048 106.931 493.059 105.703C492.07 104.476 490.423 103.861 488.117 103.859C486.768 103.834 485.432 104.122 484.214 104.698C482.996 105.275 481.928 106.125 481.097 107.182C480.225 108.281 479.548 109.52 479.097 110.846C479.003 111.144 478.823 111.408 478.581 111.606C478.338 111.804 478.043 111.928 477.731 111.962H476.754C476.628 111.975 476.499 111.958 476.381 111.911C476.262 111.864 476.157 111.79 476.073 111.694C475.94 111.502 475.888 111.267 475.927 111.038C476.23 109.837 476.706 108.686 477.341 107.62C478.052 106.405 478.94 105.301 479.975 104.344C481.089 103.314 482.377 102.485 483.778 101.895C485.353 101.242 487.046 100.92 488.751 100.949C491.224 100.949 493.118 101.417 494.434 102.355C495.696 103.216 496.591 104.513 496.945 105.993C497.303 107.574 497.303 109.214 496.945 110.795C496.7 112.081 496.247 113.318 495.604 114.459C494.922 115.64 494.094 116.732 493.141 117.71C492.004 118.873 490.781 119.952 489.484 120.935L475.585 132.481H491.921C492.061 132.466 492.202 132.485 492.334 132.535C492.465 132.585 492.582 132.666 492.675 132.771C492.752 132.893 492.803 133.029 492.823 133.172C492.844 133.314 492.835 133.459 492.796 133.597L492.65 134.322C492.596 134.63 492.432 134.906 492.187 135.101C491.929 135.299 491.61 135.401 491.284 135.391H471.284Z" fill="white"/>
<path d="M220.227 92.0826C220.083 92.0872 219.94 92.0578 219.81 91.997C219.68 91.9362 219.567 91.8456 219.479 91.7326C219.386 91.6199 219.322 91.4876 219.289 91.346C219.257 91.2044 219.258 91.0573 219.292 90.916L225.754 60.6479C225.811 60.3132 225.995 60.013 226.268 59.8092C226.52 59.6067 226.834 59.4955 227.158 59.4939H240.889C243.425 59.4939 245.517 59.867 247.165 60.6132C248.813 61.3594 249.991 62.423 250.699 63.804C251.403 65.185 251.552 66.8234 251.146 68.7194C250.932 69.8133 250.493 70.8513 249.856 71.7683C249.311 72.5552 248.648 73.2548 247.891 73.8429C247.281 74.3153 246.612 74.7064 245.9 75.0063C247.038 75.6427 247.952 76.6097 248.522 77.7778C249.179 79.0389 249.319 80.5219 248.943 82.2265C248.571 84.1289 247.798 85.931 246.674 87.514C245.559 89.0196 244.053 90.1955 242.319 90.916C240.491 91.7085 238.235 92.1047 235.552 92.1047L220.227 92.0826ZM228.75 86.0258H235.26C236.461 86.0639 237.632 85.6482 238.537 84.8624C239.357 84.1748 239.931 83.2427 240.176 82.2045C240.425 81.1199 240.309 80.2045 239.827 79.4583C239.346 78.7121 238.385 78.339 236.946 78.339H230.388L228.75 86.0258ZM231.653 72.4241H237.65C238.781 72.472 239.893 72.1164 240.785 71.4215C241.573 70.7933 242.12 69.9134 242.331 68.9306C242.55 67.9343 242.439 67.1209 242.014 66.484C241.59 65.8471 240.718 65.5381 239.437 65.5381H233.162L231.653 72.4241Z" fill="white"/>
<path d="M253.251 92.0826C253.107 92.0872 252.964 92.0578 252.834 91.997C252.704 91.9362 252.591 91.8456 252.503 91.7326C252.41 91.6199 252.346 91.4876 252.313 91.346C252.281 91.2044 252.282 91.0573 252.316 90.916L258.778 60.6479C258.835 60.3132 259.019 60.013 259.292 59.8092C259.544 59.6071 259.858 59.496 260.182 59.4939H282.053C282.201 59.484 282.349 59.5072 282.486 59.5618C282.624 59.6163 282.748 59.7009 282.848 59.8092C282.944 59.9244 283.01 60.0604 283.043 60.2062C283.075 60.352 283.073 60.5033 283.035 60.6479L282.084 65.0242C282.027 65.3594 281.842 65.6599 281.568 65.8628C281.297 66.0745 280.961 66.186 280.617 66.1781H265.72L264.344 72.4682H278.252C278.4 72.4584 278.548 72.4853 278.683 72.5463C278.818 72.6074 278.936 72.7008 279.026 72.8182C279.112 72.9428 279.171 73.0841 279.2 73.2328C279.228 73.3816 279.225 73.5346 279.19 73.6821L278.29 77.7336C278.222 78.0525 278.049 78.3398 277.799 78.5502C277.549 78.7749 277.223 78.8985 276.886 78.897H262.984L261.625 85.3731H276.893C277.037 85.3636 277.182 85.3871 277.316 85.4417C277.45 85.4964 277.57 85.5808 277.666 85.6884C277.753 85.8079 277.813 85.9449 277.841 86.0899C277.869 86.2348 277.864 86.3841 277.828 86.5271L276.893 90.9065C276.824 91.2254 276.652 91.5127 276.401 91.7232C276.151 91.9505 275.824 92.0755 275.485 92.0731L253.251 92.0826Z" fill="white"/>
<path d="M283.121 92.0826C282.977 92.0874 282.834 92.0582 282.703 91.9974C282.572 91.9366 282.458 91.8458 282.37 91.7326C282.278 91.6199 282.213 91.4876 282.18 91.346C282.148 91.2044 282.149 91.0573 282.183 90.916L288.646 60.6479C288.7 60.3179 288.875 60.0195 289.137 59.8092C289.394 59.5998 289.717 59.488 290.05 59.4939H295.013C295.198 59.4707 295.385 59.4869 295.562 59.5412C295.74 59.5956 295.904 59.6869 296.043 59.8092C296.198 59.9743 296.325 60.1627 296.421 60.3673L304.053 78.3957L307.856 60.6479C307.913 60.3132 308.097 60.013 308.37 59.8092C308.622 59.6067 308.936 59.4955 309.261 59.4939H314.88C315.028 59.484 315.176 59.5072 315.314 59.5618C315.452 59.6163 315.575 59.7009 315.676 59.8092C315.771 59.9244 315.838 60.0605 315.871 60.2062C315.903 60.352 315.9 60.5033 315.863 60.6479L309.352 90.8687C309.293 91.2049 309.118 91.5102 308.858 91.7326C308.609 91.9598 308.283 92.0848 307.945 92.0826H302.975C302.474 92.0826 302.132 91.9659 301.945 91.7326C301.804 91.5656 301.679 91.3862 301.571 91.1966L293.844 73.8208L290.192 90.916C290.111 91.2414 289.926 91.5316 289.664 91.7422C289.402 91.9529 289.077 92.0724 288.741 92.0826H283.121Z" fill="white"/>
<path d="M329.761 92.5461C326.803 92.5461 324.36 92.0574 322.433 91.0799C320.6 90.1951 319.158 88.6699 318.383 86.7951C317.603 84.916 317.447 82.6248 317.913 79.9217C318.163 78.5891 318.451 77.1682 318.779 75.659C319.106 74.1498 319.423 72.7141 319.73 71.3521C320.303 68.8776 321.463 66.5752 323.112 64.6363C324.723 62.7903 326.754 61.3528 329.036 60.4429C331.546 59.4523 334.227 58.9617 336.928 58.9989C338.976 58.9565 341.016 59.2484 342.969 59.8628C344.476 60.3345 345.864 61.1203 347.042 62.1676C348.007 63.0352 348.747 64.1224 349.197 65.3363C349.593 66.4236 349.703 67.5939 349.514 68.7351C349.454 69.0131 349.297 69.2609 349.071 69.4351C348.839 69.6218 348.548 69.7212 348.25 69.7157H341.413C341.167 69.7326 340.922 69.6755 340.709 69.5518C340.541 69.4268 340.411 69.2575 340.335 69.063C340.221 68.5415 340.015 68.0442 339.727 67.5938C339.364 67.0357 338.864 66.5789 338.275 66.2664C337.619 65.8944 336.69 65.7083 335.511 65.7083C333.897 65.6566 332.314 66.1488 331.017 67.1051C329.799 68.0384 328.926 69.5297 328.395 71.5791C328.083 72.8802 327.778 74.2149 327.482 75.5833C327.187 76.9517 326.913 78.3179 326.662 79.6821C326.288 81.8576 326.529 83.4267 327.387 84.3894C328.245 85.3521 329.564 85.8335 331.343 85.8335C332.457 85.8414 333.562 85.6359 334.598 85.2281C335.611 84.8253 336.505 84.1746 337.197 83.3364C337.96 82.3863 338.46 81.2551 338.649 80.0542L338.836 79.1682H334.437C334.289 79.1783 334.14 79.1516 334.005 79.0905C333.87 79.0294 333.753 78.9358 333.663 78.8182C333.576 78.6944 333.517 78.5537 333.488 78.4054C333.46 78.257 333.463 78.1044 333.498 77.9575L334.25 74.5113C334.316 74.1746 334.496 73.8706 334.76 73.6498C335.024 73.429 335.356 73.3047 335.701 73.2974H347.502C347.65 73.2879 347.798 73.3149 347.932 73.3759C348.067 73.437 348.185 73.5303 348.275 73.6474C348.362 73.772 348.421 73.9133 348.449 74.0622C348.476 74.2111 348.472 74.3641 348.437 74.5113L347.315 79.8208C346.821 82.3471 345.684 84.705 344.012 86.669C342.345 88.5877 340.243 90.0835 337.879 91.0327C335.3 92.065 332.541 92.5793 329.761 92.5461Z" fill="white"/>
<path d="M346.855 92.0826C346.691 92.0932 346.527 92.0544 346.385 91.9711C346.243 91.8879 346.13 91.7642 346.059 91.616C345.98 91.4691 345.942 91.3035 345.95 91.1369C345.958 90.9703 346.011 90.809 346.104 90.6701L363.48 60.7645C363.679 60.4105 363.95 60.1013 364.275 59.8565C364.655 59.5798 365.117 59.4397 365.587 59.4592H372.798C373.007 59.4393 373.217 59.4645 373.416 59.533C373.614 59.6016 373.794 59.7119 373.946 59.8565C374.173 60.1086 374.313 60.427 374.345 60.7645L378.934 90.6701C378.989 90.8463 378.997 91.0338 378.955 91.2137C378.914 91.3936 378.826 91.5596 378.7 91.6948C378.592 91.811 378.462 91.9042 378.317 91.9687C378.172 92.0332 378.016 92.0677 377.857 92.07H372.19C372.009 92.0894 371.827 92.0713 371.654 92.0171C371.481 91.9628 371.321 91.8735 371.185 91.7547C370.977 91.5351 370.838 91.2601 370.785 90.9633L369.99 86.3506H357.486L354.678 91.1021C354.495 91.3458 354.282 91.5651 354.044 91.7547C353.725 91.9842 353.336 92.0957 352.944 92.07L346.855 92.0826ZM360.801 79.6443H369.511L367.777 67.3479L360.801 79.6443Z" fill="white"/>
<path d="M383.569 92.0826C383.425 92.0872 383.282 92.0579 383.152 91.997C383.022 91.9362 382.909 91.8456 382.82 91.7326C382.728 91.6199 382.664 91.4877 382.631 91.346C382.599 91.2044 382.6 91.0573 382.633 90.916L389.096 60.6479C389.153 60.3132 389.337 60.013 389.61 59.8092C389.862 59.6067 390.176 59.4955 390.5 59.4939H396.681C396.829 59.4838 396.977 59.5069 397.115 59.5615C397.253 59.616 397.376 59.7007 397.477 59.8092C397.572 59.9244 397.639 60.0604 397.671 60.2062C397.704 60.352 397.701 60.5033 397.664 60.6479L392.421 85.0579H406.564C406.711 85.0486 406.859 85.0753 406.994 85.1357C407.129 85.1962 407.246 85.2885 407.337 85.4047C407.424 85.5293 407.483 85.6706 407.511 85.8195C407.539 85.9684 407.535 86.1214 407.499 86.2686L406.516 90.9255C406.448 91.2444 406.275 91.5316 406.025 91.7421C405.776 91.969 405.45 92.0939 405.112 92.0921L383.569 92.0826Z" fill="white"/>
<path d="M423.657 92.5461C421.795 92.5656 419.94 92.3074 418.155 91.7799C416.588 91.3246 415.146 90.519 413.939 89.4247C412.785 88.3482 411.978 86.9543 411.622 85.4205C411.213 83.8062 411.243 81.8808 411.714 79.6443L415.743 60.6384C415.8 60.3038 415.984 60.0035 416.256 59.7998C416.527 59.5888 416.863 59.4774 417.207 59.4845H423.249C423.393 59.4732 423.539 59.4959 423.673 59.5507C423.807 59.6054 423.927 59.6907 424.022 59.7998C424.109 59.9192 424.169 60.0562 424.197 60.2012C424.225 60.3461 424.22 60.4954 424.184 60.6384L420.111 79.597C419.673 81.6149 419.779 83.1283 420.428 84.1372C421.076 85.1462 422.357 85.6517 424.269 85.6538C426.143 85.6538 427.673 85.1483 428.859 84.1372C430.044 83.1262 430.856 81.6128 431.293 79.597L435.366 60.6384C435.424 60.3035 435.609 60.0034 435.883 59.7998C436.135 59.5972 436.449 59.486 436.773 59.4845H442.814C442.962 59.4746 443.111 59.4978 443.248 59.5523C443.386 59.6069 443.51 59.6914 443.61 59.7998C443.706 59.915 443.772 60.051 443.805 60.1968C443.837 60.3425 443.835 60.4939 443.797 60.6384L439.718 79.6443C438.784 84.0836 437.02 87.3416 434.428 89.4184C431.835 91.4951 428.245 92.5377 423.657 92.5461Z" fill="white"/>
<path d="M445.15 92.0826C445.003 92.0924 444.854 92.0656 444.719 92.0045C444.584 91.9434 444.467 91.85 444.377 91.7326C444.292 91.6164 444.234 91.4831 444.206 91.3421C444.178 91.201 444.181 91.0557 444.215 90.916L450.678 60.6479C450.735 60.3132 450.919 60.013 451.192 59.8092C451.463 59.5983 451.799 59.4869 452.143 59.4939H464.878C468.937 59.4939 471.919 60.4177 473.823 62.2653C475.727 64.113 476.32 66.7299 475.604 70.1161C475.198 72.1949 474.235 74.1261 472.818 75.7063C471.448 77.2079 469.754 78.3817 467.864 79.1398L471.845 90.6007C471.873 90.6755 471.889 90.7542 471.892 90.8341C471.887 90.9281 471.871 91.0212 471.845 91.1115C471.8 91.3841 471.648 91.6278 471.423 91.7894C471.218 91.9788 470.952 92.0904 470.672 92.1047H464.444C463.851 92.1047 463.455 91.9565 463.252 91.6601C463.071 91.4075 462.921 91.1344 462.805 90.8467L459.667 80.5965H454.891L452.643 90.9381C452.564 91.2643 452.379 91.5553 452.116 91.7662C451.854 91.9771 451.529 92.0961 451.192 92.1047L445.15 92.0826ZM456.244 73.9596H461.677C463.145 73.9596 464.316 73.6022 465.189 72.8876C466.078 72.1472 466.689 71.1293 466.922 69.9995C467.17 68.7888 467.021 67.8103 466.476 67.0641C465.93 66.3179 464.893 65.9459 463.363 65.948H457.975L456.244 73.9596Z" fill="white"/>
<path d="M489.826 92.5461C487.964 92.5652 486.109 92.307 484.324 91.7799C482.757 91.3246 481.316 90.519 480.111 89.4247C478.957 88.3476 478.149 86.9541 477.791 85.4205C477.385 83.8062 477.417 81.8808 477.886 79.6443L481.911 60.6384C481.97 60.3035 482.155 60.0034 482.428 59.7998C482.699 59.5886 483.035 59.4772 483.379 59.4845H489.42C489.565 59.4727 489.71 59.4952 489.845 59.55C489.979 59.6048 490.099 59.6903 490.194 59.7998C490.281 59.9189 490.341 60.0559 490.37 60.2008C490.398 60.3458 490.394 60.4952 490.358 60.6384L486.285 79.597C485.848 81.6149 485.954 83.1283 486.602 84.1372C487.251 85.1462 488.532 85.6517 490.444 85.6538C492.318 85.6538 493.847 85.1483 495.03 84.1372C496.214 83.1262 497.026 81.6128 497.468 79.597L501.541 60.6384C501.599 60.3035 501.784 60.0034 502.057 59.7998C502.309 59.5974 502.622 59.4863 502.945 59.4845H508.986C509.134 59.4745 509.283 59.4977 509.421 59.5523C509.559 59.6068 509.684 59.6914 509.785 59.7998C509.879 59.9158 509.944 60.0519 509.977 60.1973C510.009 60.3428 510.008 60.4938 509.972 60.6384L505.896 79.6443C504.962 84.0836 503.198 87.3416 500.606 89.4184C498.013 91.4951 494.42 92.5377 489.826 92.5461Z" fill="white"/>
<path d="M180.692 149.204H180.632C180.591 149.197 180.552 149.181 180.517 149.158C180.482 149.136 180.452 149.106 180.428 149.072C180.405 149.038 180.388 148.999 180.38 148.959C180.371 148.918 180.371 148.876 180.378 148.835L200.505 44.5932C200.521 44.5095 200.57 44.4357 200.641 44.3878C200.711 44.3399 200.798 44.3219 200.883 44.3378C200.967 44.3537 201.041 44.4021 201.089 44.4725C201.137 44.5429 201.155 44.6294 201.139 44.713L181.003 148.949C180.989 149.021 180.95 149.085 180.894 149.132C180.837 149.179 180.766 149.204 180.692 149.204Z" fill="white"/>
<path d="M245.174 117.583C244.47 117.596 243.768 117.489 243.098 117.268C242.542 117.087 242.041 116.769 241.64 116.344C241.26 115.927 240.995 115.418 240.87 114.869C240.73 114.221 240.723 113.552 240.851 112.901C240.934 112.428 241.035 111.924 241.168 111.382C241.301 110.839 241.409 110.322 241.523 109.827C241.747 108.931 242.133 108.083 242.661 107.324C243.157 106.629 243.824 106.074 244.598 105.71C245.481 105.316 246.442 105.124 247.409 105.148C248.108 105.138 248.804 105.237 249.472 105.442C250.029 105.613 250.541 105.902 250.975 106.29C251.371 106.642 251.665 107.094 251.825 107.599C251.985 108.103 252.006 108.641 251.885 109.156C251.876 109.253 251.834 109.345 251.764 109.414C251.73 109.448 251.69 109.475 251.645 109.493C251.6 109.511 251.552 109.52 251.504 109.518H249.837C249.723 109.526 249.611 109.492 249.52 109.424C249.479 109.382 249.448 109.333 249.428 109.278C249.409 109.224 249.401 109.166 249.406 109.108C249.441 108.374 249.26 107.847 248.861 107.573C248.378 107.257 247.805 107.105 247.228 107.138C246.499 107.123 245.785 107.35 245.2 107.784C244.62 108.216 244.211 108.929 243.967 109.919C243.723 110.909 243.517 111.829 243.333 112.816C243.149 113.803 243.247 114.519 243.602 114.951C243.957 115.383 244.518 115.597 245.292 115.597C245.917 115.608 246.535 115.463 247.089 115.175C247.68 114.816 248.135 114.273 248.382 113.63C248.438 113.508 248.522 113.4 248.626 113.314C248.719 113.25 248.83 113.219 248.943 113.226H250.626C250.672 113.224 250.718 113.232 250.761 113.25C250.803 113.268 250.84 113.295 250.87 113.33C250.899 113.366 250.919 113.408 250.928 113.453C250.938 113.498 250.936 113.544 250.924 113.589C250.775 114.145 250.543 114.677 250.236 115.165C249.926 115.659 249.526 116.092 249.057 116.442C248.548 116.818 247.979 117.107 247.374 117.297C246.66 117.506 245.918 117.602 245.174 117.583Z" fill="white"/>
<path d="M252.81 117.41C252.76 117.413 252.71 117.404 252.665 117.383C252.619 117.362 252.58 117.33 252.55 117.29C252.52 117.248 252.5 117.199 252.491 117.148C252.481 117.097 252.483 117.044 252.496 116.994L254.892 105.757C254.912 105.633 254.976 105.521 255.073 105.442C255.162 105.366 255.274 105.324 255.39 105.322H259.907C261.308 105.322 262.343 105.644 263.013 106.29C263.683 106.935 263.886 107.872 263.621 109.102C263.465 109.895 263.092 110.63 262.544 111.227C262.006 111.795 261.33 112.216 260.582 112.451L262.167 116.865C262.179 116.895 262.186 116.927 262.186 116.959C262.186 116.992 262.179 117.024 262.167 117.054C262.16 117.105 262.143 117.155 262.117 117.2C262.09 117.244 262.054 117.283 262.011 117.312C261.932 117.377 261.834 117.413 261.732 117.416H260.148C260.072 117.425 259.996 117.415 259.925 117.388C259.853 117.361 259.79 117.318 259.739 117.262C259.666 117.164 259.606 117.058 259.558 116.947L258.205 112.848H255.786L254.899 116.991C254.876 117.108 254.812 117.213 254.718 117.287C254.623 117.365 254.503 117.408 254.379 117.407L252.81 117.41ZM256.211 110.902H258.639C259.237 110.934 259.83 110.766 260.322 110.426C260.746 110.095 261.031 109.619 261.121 109.089C261.194 108.862 261.212 108.621 261.174 108.386C261.136 108.15 261.043 107.927 260.902 107.734C260.629 107.406 260.135 107.242 259.419 107.242H256.972L256.211 110.902Z" fill="white"/>
<path d="M264.265 117.41C264.211 117.414 264.156 117.405 264.106 117.384C264.056 117.364 264.012 117.331 263.977 117.29C263.945 117.248 263.923 117.2 263.913 117.149C263.902 117.098 263.904 117.045 263.916 116.994L266.328 105.757C266.348 105.635 266.41 105.523 266.503 105.442C266.591 105.365 266.703 105.323 266.82 105.322H274.455C274.508 105.317 274.561 105.325 274.61 105.346C274.659 105.367 274.701 105.4 274.734 105.442C274.763 105.488 274.783 105.54 274.792 105.594C274.801 105.648 274.798 105.704 274.785 105.757L274.541 106.895C274.52 107.01 274.459 107.113 274.37 107.188C274.282 107.266 274.17 107.31 274.053 107.311H268.347L267.682 110.354H273.01C273.062 110.349 273.114 110.357 273.162 110.376C273.211 110.395 273.254 110.426 273.289 110.464C273.32 110.51 273.34 110.562 273.349 110.616C273.358 110.671 273.355 110.726 273.339 110.779L273.114 111.851C273.098 111.975 273.036 112.087 272.94 112.167C272.85 112.238 272.738 112.276 272.623 112.277H267.282L266.588 115.43H272.455C272.508 115.426 272.562 115.434 272.61 115.456C272.659 115.477 272.702 115.511 272.734 115.553C272.764 115.599 272.784 115.651 272.793 115.705C272.801 115.76 272.799 115.815 272.785 115.868L272.541 117.007C272.519 117.122 272.459 117.226 272.37 117.303C272.281 117.379 272.169 117.421 272.053 117.423L264.265 117.41Z" fill="white"/>
<path d="M273.894 117.41C273.829 117.42 273.763 117.409 273.706 117.377C273.648 117.346 273.603 117.297 273.577 117.237C273.551 117.182 273.539 117.122 273.544 117.062C273.548 117.001 273.569 116.943 273.603 116.893L280.192 105.757C280.263 105.637 280.354 105.531 280.462 105.442C280.585 105.352 280.736 105.306 280.889 105.312H282.902C282.971 105.307 283.04 105.315 283.106 105.337C283.171 105.36 283.231 105.395 283.282 105.442C283.364 105.528 283.413 105.639 283.422 105.757L285.225 116.893C285.24 116.958 285.241 117.025 285.228 117.09C285.215 117.156 285.188 117.217 285.149 117.271C285.112 117.318 285.063 117.355 285.008 117.379C284.953 117.403 284.893 117.414 284.832 117.41H283.362C283.3 117.415 283.239 117.408 283.18 117.388C283.122 117.369 283.068 117.337 283.023 117.297C282.944 117.22 282.892 117.121 282.874 117.013L282.493 114.976H277.339L276.072 117.082C276.007 117.167 275.932 117.242 275.847 117.306C275.745 117.378 275.622 117.414 275.498 117.41H273.894ZM278.357 112.996H282.313L281.479 107.661L278.357 112.996Z" fill="white"/>
<path d="M288.433 117.41C288.382 117.413 288.33 117.404 288.284 117.383C288.237 117.362 288.195 117.33 288.164 117.29C288.132 117.248 288.11 117.2 288.1 117.149C288.09 117.098 288.091 117.045 288.103 116.994L290.151 107.45H286.928C286.874 107.458 286.818 107.452 286.767 107.432C286.717 107.413 286.672 107.381 286.637 107.339C286.602 107.297 286.579 107.247 286.569 107.193C286.56 107.14 286.564 107.085 286.582 107.034L286.861 105.757C286.88 105.633 286.945 105.521 287.042 105.442C287.13 105.366 287.242 105.324 287.359 105.322H296.211C296.265 105.318 296.319 105.327 296.368 105.348C296.418 105.369 296.462 105.401 296.497 105.442C296.53 105.486 296.552 105.538 296.563 105.592C296.573 105.647 296.571 105.703 296.557 105.757L296.281 107.034C296.258 107.148 296.196 107.252 296.107 107.327C296.02 107.405 295.907 107.449 295.79 107.45H292.569L290.522 116.994C290.498 117.109 290.437 117.213 290.348 117.29C290.26 117.366 290.147 117.409 290.031 117.41H288.433Z" fill="white"/>
<path d="M300.554 117.583C299.894 117.591 299.237 117.494 298.607 117.297C298.053 117.128 297.548 116.83 297.134 116.426C296.73 116.018 296.445 115.508 296.309 114.951C296.152 114.261 296.143 113.545 296.284 112.851C296.364 112.357 296.46 111.868 296.569 111.385C296.68 110.902 296.791 110.407 296.909 109.9C297.289 108.336 297.971 107.154 298.956 106.353C299.941 105.552 301.219 105.152 302.791 105.152C303.455 105.147 304.115 105.254 304.744 105.467C305.296 105.649 305.799 105.957 306.211 106.365C306.614 106.779 306.898 107.291 307.035 107.85C307.193 108.528 307.202 109.231 307.061 109.912C306.978 110.421 306.883 110.916 306.775 111.397L306.436 112.864C306.043 114.465 305.354 115.654 304.37 116.43C303.385 117.205 302.113 117.59 300.554 117.583ZM300.709 115.597C301.439 115.609 302.152 115.374 302.731 114.932C303.314 114.49 303.729 113.768 303.97 112.766C304.1 112.258 304.208 111.792 304.287 111.36C304.367 110.928 304.468 110.464 304.55 109.969C304.734 108.967 304.656 108.245 304.316 107.803C303.976 107.362 303.411 107.14 302.623 107.138C301.893 107.122 301.179 107.357 300.601 107.803C300.027 108.245 299.622 108.967 299.378 109.969C299.251 110.464 299.14 110.915 299.061 111.36C298.981 111.804 298.874 112.258 298.782 112.766C298.608 113.768 298.687 114.49 299.016 114.932C299.346 115.373 299.91 115.595 300.709 115.597Z" fill="white"/>
<path d="M308.433 117.41C308.383 117.412 308.333 117.403 308.287 117.382C308.241 117.361 308.201 117.33 308.17 117.29C308.142 117.247 308.122 117.198 308.114 117.147C308.105 117.096 308.107 117.044 308.119 116.994L310.516 105.757C310.535 105.633 310.599 105.521 310.696 105.442C310.785 105.366 310.897 105.324 311.013 105.322H315.511C316.91 105.322 317.945 105.644 318.617 106.29C319.289 106.935 319.491 107.872 319.223 109.102C319.068 109.896 318.697 110.631 318.148 111.227C317.61 111.795 316.934 112.216 316.186 112.451L317.771 116.865C317.788 116.946 317.783 117.031 317.755 117.11C317.728 117.189 317.68 117.259 317.616 117.312C317.536 117.376 317.438 117.413 317.337 117.416H315.752C315.676 117.425 315.6 117.415 315.529 117.388C315.458 117.361 315.394 117.318 315.343 117.262C315.271 117.163 315.209 117.058 315.159 116.947L313.806 112.848H311.394L310.509 116.991C310.485 117.107 310.422 117.212 310.329 117.287C310.233 117.365 310.113 117.407 309.989 117.407L308.433 117.41ZM311.834 110.902H314.262C314.861 110.935 315.453 110.767 315.945 110.426C316.372 110.097 316.657 109.619 316.744 109.089C316.816 108.862 316.835 108.622 316.797 108.386C316.76 108.151 316.668 107.927 316.528 107.734C316.256 107.406 315.761 107.242 315.045 107.242H312.598L311.834 110.902Z" fill="white"/>
<path d="M323.825 117.583C322.922 117.615 322.024 117.456 321.188 117.117C320.577 116.867 320.059 116.435 319.704 115.881C319.402 115.394 319.29 114.814 319.387 114.251C319.396 114.151 319.442 114.059 319.517 113.992C319.589 113.924 319.684 113.887 319.784 113.888H321.368C321.425 113.882 321.482 113.887 321.537 113.903C321.591 113.919 321.642 113.946 321.685 113.983C321.751 114.049 321.802 114.129 321.834 114.216C321.875 114.45 321.97 114.671 322.11 114.863C322.287 115.095 322.523 115.277 322.795 115.389C323.173 115.541 323.579 115.612 323.986 115.597C324.67 115.629 325.351 115.487 325.964 115.184C326.184 115.072 326.378 114.913 326.53 114.719C326.683 114.526 326.792 114.301 326.849 114.062C326.888 113.925 326.895 113.781 326.868 113.641C326.841 113.501 326.781 113.37 326.693 113.258C326.44 113.006 326.13 112.817 325.79 112.706C325.233 112.498 324.665 112.322 324.088 112.179C323.387 112.015 322.715 111.747 322.094 111.385C321.614 111.111 321.238 110.686 321.026 110.177C320.831 109.615 320.81 109.008 320.966 108.434C321.061 107.949 321.252 107.488 321.527 107.077C321.802 106.667 322.157 106.314 322.57 106.041C323.432 105.448 324.563 105.152 325.964 105.152C326.612 105.143 327.256 105.25 327.866 105.467C328.365 105.641 328.825 105.911 329.219 106.261C329.55 106.551 329.811 106.911 329.983 107.314C330.129 107.661 330.177 108.04 330.123 108.412C330.108 108.505 330.067 108.591 330.002 108.661C329.967 108.698 329.923 108.728 329.875 108.747C329.827 108.767 329.775 108.776 329.723 108.774H328.075C327.978 108.775 327.882 108.751 327.796 108.705C327.706 108.645 327.644 108.552 327.622 108.446C327.626 108.266 327.584 108.088 327.501 107.927C327.418 107.767 327.296 107.63 327.147 107.529C326.759 107.259 326.291 107.126 325.818 107.15C325.263 107.136 324.712 107.254 324.211 107.494C324 107.599 323.815 107.75 323.669 107.935C323.524 108.121 323.422 108.336 323.372 108.566C323.306 108.84 323.349 109.128 323.492 109.37C323.694 109.628 323.965 109.823 324.275 109.931C324.792 110.136 325.321 110.309 325.86 110.448C326.643 110.607 327.4 110.877 328.107 111.249C328.601 111.51 328.994 111.926 329.226 112.432C329.426 112.987 329.451 113.59 329.296 114.159C329.203 114.686 328.999 115.187 328.697 115.629C328.394 116.071 328.001 116.444 327.543 116.723C326.602 117.294 325.363 117.581 323.825 117.583Z" fill="white"/>
<path d="M333.473 117.41C333.411 117.417 333.348 117.403 333.294 117.372C333.24 117.341 333.197 117.294 333.172 117.237C333.146 117.182 333.134 117.122 333.139 117.061C333.143 117.001 333.163 116.943 333.197 116.893L339.758 105.757C339.827 105.637 339.917 105.53 340.025 105.442C340.149 105.352 340.299 105.306 340.452 105.312H342.465C342.534 105.307 342.603 105.315 342.669 105.337C342.734 105.36 342.795 105.395 342.846 105.442C342.927 105.528 342.976 105.639 342.985 105.757L344.788 116.893C344.803 116.958 344.804 117.025 344.791 117.09C344.778 117.156 344.751 117.217 344.712 117.271C344.675 117.318 344.626 117.355 344.571 117.379C344.516 117.403 344.456 117.414 344.395 117.41H342.95C342.889 117.415 342.827 117.407 342.769 117.388C342.711 117.368 342.657 117.337 342.611 117.297C342.534 117.219 342.482 117.12 342.462 117.013L342.082 114.976H336.928L335.66 117.082C335.596 117.167 335.521 117.243 335.435 117.306C335.333 117.378 335.211 117.414 335.086 117.41H333.473ZM337.936 112.996H341.891L341.048 107.655L337.936 112.996Z" fill="white"/>
<path d="M347.999 117.41C347.948 117.412 347.897 117.402 347.85 117.382C347.804 117.361 347.762 117.33 347.73 117.29C347.698 117.248 347.677 117.2 347.666 117.149C347.656 117.098 347.657 117.045 347.67 116.994L349.717 107.45H346.506C346.452 107.454 346.398 107.445 346.349 107.423C346.299 107.402 346.255 107.369 346.221 107.327C346.189 107.286 346.168 107.238 346.157 107.187C346.147 107.136 346.148 107.084 346.161 107.034L346.44 105.757C346.459 105.633 346.523 105.521 346.62 105.442C346.709 105.366 346.821 105.324 346.937 105.322H355.79C355.844 105.318 355.897 105.327 355.947 105.348C355.997 105.369 356.04 105.401 356.075 105.442C356.108 105.486 356.131 105.538 356.141 105.592C356.152 105.647 356.15 105.703 356.136 105.757L355.86 107.034C355.836 107.148 355.775 107.252 355.686 107.327C355.599 107.405 355.486 107.449 355.369 107.45H352.142L350.094 116.994C350.071 117.109 350.01 117.214 349.92 117.29C349.832 117.366 349.72 117.409 349.603 117.41H347.999Z" fill="white"/>
<path d="M243.352 135.357C243.301 135.36 243.249 135.351 243.202 135.33C243.155 135.309 243.114 135.277 243.083 135.237C243.05 135.196 243.028 135.148 243.018 135.097C243.008 135.046 243.009 134.994 243.022 134.944L245.07 125.396H241.859C241.806 125.4 241.753 125.391 241.704 125.37C241.655 125.35 241.612 125.318 241.578 125.277C241.544 125.236 241.52 125.188 241.508 125.137C241.496 125.085 241.497 125.032 241.51 124.98L241.789 123.703C241.809 123.58 241.873 123.468 241.97 123.388C242.059 123.313 242.171 123.271 242.287 123.268H251.136C251.191 123.265 251.245 123.274 251.295 123.295C251.345 123.316 251.389 123.348 251.425 123.388C251.457 123.433 251.48 123.485 251.49 123.539C251.5 123.594 251.499 123.65 251.485 123.703L251.206 124.98C251.185 125.096 251.123 125.2 251.032 125.274C250.945 125.352 250.832 125.395 250.715 125.396H247.498L245.45 134.947C245.428 135.061 245.367 135.164 245.279 135.24C245.186 135.319 245.068 135.361 244.946 135.36L243.352 135.357Z" fill="white"/>
<path d="M251.162 135.357C251.108 135.361 251.054 135.353 251.004 135.333C250.954 135.313 250.91 135.283 250.873 135.243C250.841 135.201 250.819 135.152 250.808 135.1C250.798 135.048 250.8 134.995 250.813 134.944L253.225 123.703C253.245 123.581 253.306 123.47 253.4 123.388C253.488 123.312 253.6 123.269 253.716 123.268H255.279C255.333 123.265 255.386 123.274 255.436 123.295C255.486 123.315 255.529 123.347 255.564 123.388C255.597 123.433 255.62 123.484 255.63 123.539C255.641 123.593 255.639 123.65 255.625 123.703L254.674 128.158H259.793L260.744 123.703C260.762 123.582 260.823 123.47 260.915 123.388C261.003 123.312 261.115 123.27 261.232 123.268H262.794C262.848 123.265 262.902 123.274 262.952 123.295C263.002 123.316 263.047 123.347 263.083 123.388C263.115 123.433 263.137 123.485 263.148 123.539C263.158 123.594 263.156 123.65 263.143 123.703L260.759 134.947C260.734 135.061 260.673 135.163 260.585 135.24C260.497 135.316 260.385 135.358 260.268 135.36H258.705C258.652 135.363 258.598 135.354 258.549 135.333C258.499 135.313 258.455 135.281 258.42 135.24C258.388 135.199 258.366 135.151 258.356 135.1C258.345 135.049 258.347 134.997 258.36 134.947L259.349 130.318H254.201L253.225 134.947C253.203 135.061 253.141 135.165 253.051 135.24C252.963 135.316 252.851 135.359 252.734 135.36L251.162 135.357Z" fill="white"/>
<path d="M263.812 135.357C263.758 135.36 263.704 135.351 263.655 135.33C263.605 135.309 263.561 135.277 263.526 135.237C263.494 135.196 263.472 135.148 263.462 135.097C263.451 135.046 263.453 134.994 263.466 134.944L265.878 123.703C265.897 123.581 265.958 123.469 266.053 123.388C266.14 123.311 266.253 123.269 266.37 123.268H274.005C274.057 123.264 274.11 123.273 274.158 123.294C274.206 123.314 274.248 123.347 274.281 123.388C274.311 123.434 274.332 123.486 274.341 123.54C274.351 123.594 274.348 123.65 274.335 123.703L274.091 124.842C274.07 124.957 274.008 125.061 273.916 125.135C273.829 125.213 273.717 125.257 273.599 125.258H267.894L267.232 128.326H272.56C272.612 128.32 272.664 128.328 272.712 128.348C272.76 128.368 272.802 128.399 272.835 128.439C272.866 128.482 272.887 128.531 272.896 128.583C272.906 128.635 272.903 128.688 272.889 128.739L272.664 129.811C272.647 129.933 272.585 130.045 272.49 130.126C272.4 130.197 272.288 130.236 272.173 130.236H266.832L266.138 133.389H272.005C272.058 133.385 272.11 133.394 272.159 133.416C272.207 133.437 272.249 133.47 272.281 133.512C272.311 133.558 272.332 133.61 272.341 133.664C272.35 133.718 272.348 133.774 272.335 133.827L272.091 134.969C272.067 135.083 272.006 135.186 271.916 135.262C271.828 135.338 271.716 135.381 271.599 135.382L263.812 135.357Z" fill="white"/>
<path d="M278.633 135.357C278.579 135.36 278.525 135.351 278.476 135.33C278.426 135.309 278.382 135.277 278.347 135.237C278.316 135.196 278.295 135.149 278.285 135.098C278.275 135.048 278.277 134.996 278.29 134.947L280.702 123.707C280.721 123.584 280.783 123.472 280.877 123.391C280.964 123.315 281.077 123.272 281.194 123.271H288.75C288.803 123.267 288.856 123.275 288.905 123.296C288.954 123.317 288.996 123.35 289.029 123.391C289.058 123.438 289.078 123.49 289.087 123.544C289.095 123.598 289.093 123.653 289.08 123.707L288.82 124.914C288.801 125.032 288.739 125.14 288.646 125.216C288.554 125.293 288.436 125.333 288.316 125.33H282.728L282.018 128.609H287.241C287.294 128.604 287.347 128.613 287.396 128.634C287.445 128.655 287.488 128.688 287.52 128.729C287.55 128.776 287.569 128.827 287.578 128.882C287.587 128.936 287.584 128.991 287.571 129.044L287.327 130.252C287.305 130.368 287.241 130.473 287.146 130.545C287.052 130.626 286.931 130.669 286.807 130.668H281.584L280.664 134.947C280.639 135.061 280.578 135.163 280.49 135.24C280.402 135.316 280.29 135.358 280.173 135.36L278.633 135.357Z" fill="white"/>
<path d="M293.504 135.53C292.845 135.537 292.188 135.441 291.558 135.243C291.004 135.075 290.498 134.776 290.084 134.373C289.681 133.964 289.396 133.454 289.26 132.897C289.102 132.207 289.094 131.491 289.235 130.797C289.315 130.303 289.41 129.815 289.52 129.331C289.631 128.849 289.742 128.354 289.859 127.846C290.24 126.282 290.922 125.1 291.907 124.299C292.892 123.498 294.17 123.098 295.742 123.098C296.406 123.094 297.066 123.2 297.695 123.413C298.247 123.596 298.749 123.904 299.162 124.312C299.564 124.726 299.848 125.238 299.986 125.797C300.144 126.474 300.152 127.178 300.012 127.859C299.929 128.365 299.834 128.861 299.726 129.344L299.387 130.81C298.994 132.412 298.305 133.6 297.321 134.376C296.336 135.152 295.064 135.536 293.504 135.53ZM293.66 133.544C294.39 133.555 295.103 133.321 295.682 132.878C296.265 132.437 296.68 131.715 296.921 130.712C297.048 130.205 297.159 129.738 297.238 129.306C297.317 128.874 297.419 128.411 297.498 127.916C297.686 126.913 297.608 126.191 297.264 125.75C296.919 125.308 296.356 125.086 295.574 125.084C294.843 125.067 294.129 125.302 293.552 125.75C292.977 126.191 292.569 126.913 292.328 127.916C292.202 128.411 292.091 128.862 292.012 129.306C291.932 129.751 291.825 130.205 291.733 130.712C291.559 131.715 291.638 132.437 291.967 132.878C292.297 133.32 292.862 133.542 293.663 133.544H293.66Z" fill="white"/>
<path d="M301.384 135.357C301.334 135.358 301.285 135.348 301.24 135.328C301.195 135.307 301.155 135.276 301.124 135.237C301.095 135.194 301.076 135.146 301.067 135.096C301.058 135.045 301.06 134.993 301.073 134.944L303.466 123.703C303.488 123.58 303.553 123.468 303.65 123.388C303.739 123.313 303.851 123.271 303.967 123.268H308.465C309.866 123.268 310.901 123.591 311.571 124.236C312.241 124.881 312.444 125.819 312.18 127.049C312.024 127.841 311.652 128.576 311.105 129.174C310.566 129.741 309.891 130.162 309.143 130.397L310.728 134.811C310.749 134.872 310.749 134.939 310.728 135C310.722 135.052 310.705 135.102 310.677 135.147C310.65 135.191 310.613 135.23 310.57 135.259C310.492 135.323 310.395 135.36 310.294 135.363H308.709C308.633 135.372 308.557 135.363 308.485 135.336C308.414 135.309 308.351 135.265 308.3 135.208C308.228 135.11 308.167 135.004 308.116 134.893L306.763 130.794H304.351L303.486 134.947C303.461 135.063 303.396 135.167 303.302 135.24C303.207 135.318 303.088 135.361 302.966 135.36L301.384 135.357ZM304.788 128.849H307.216C307.815 128.881 308.407 128.714 308.899 128.373C309.326 128.044 309.611 127.566 309.698 127.036C309.77 126.809 309.789 126.568 309.751 126.333C309.714 126.097 309.622 125.874 309.482 125.68C309.21 125.352 308.715 125.188 307.999 125.188H305.549L304.788 128.849Z" fill="white"/>
<path d="M312.839 135.357C312.785 135.36 312.732 135.351 312.682 135.33C312.633 135.309 312.589 135.277 312.554 135.237C312.522 135.196 312.5 135.148 312.489 135.097C312.479 135.046 312.48 134.994 312.493 134.944L314.906 123.703C314.924 123.582 314.985 123.47 315.077 123.388C315.165 123.312 315.277 123.27 315.394 123.268H323.032C323.085 123.264 323.137 123.273 323.185 123.294C323.234 123.314 323.276 123.347 323.308 123.388C323.338 123.434 323.358 123.486 323.368 123.54C323.377 123.594 323.375 123.65 323.362 123.703L323.118 124.842C323.096 124.956 323.034 125.06 322.944 125.135C322.857 125.213 322.744 125.257 322.627 125.258H316.921L316.259 128.326H321.587C321.639 128.32 321.691 128.328 321.739 128.348C321.787 128.368 321.83 128.399 321.863 128.439C321.893 128.482 321.914 128.531 321.923 128.583C321.933 128.635 321.93 128.688 321.917 128.739L321.692 129.811C321.674 129.933 321.612 130.045 321.517 130.126C321.427 130.196 321.315 130.235 321.2 130.236H315.86L315.165 133.389H321.029C321.082 133.385 321.136 133.394 321.184 133.415C321.233 133.437 321.276 133.47 321.308 133.512C321.339 133.558 321.359 133.61 321.368 133.664C321.377 133.719 321.374 133.774 321.359 133.827L321.118 134.969C321.093 135.083 321.032 135.185 320.944 135.262C320.856 135.338 320.743 135.381 320.627 135.382L312.839 135.357Z" fill="white"/>
<path d="M323.616 135.357C323.562 135.36 323.508 135.351 323.459 135.33C323.409 135.309 323.365 135.277 323.33 135.237C323.298 135.196 323.276 135.148 323.266 135.097C323.255 135.046 323.257 134.994 323.27 134.944L325.682 123.703C325.7 123.581 325.762 123.469 325.856 123.388C325.944 123.311 326.057 123.269 326.173 123.268H333.704C333.757 123.263 333.811 123.272 333.859 123.293C333.908 123.314 333.951 123.346 333.983 123.388C334.013 123.434 334.032 123.486 334.041 123.541C334.05 123.595 334.047 123.65 334.034 123.703L333.774 124.911C333.759 125.034 333.697 125.147 333.6 125.226C333.51 125.299 333.399 125.339 333.283 125.34H327.711L327.001 128.619H332.224C332.277 128.614 332.33 128.622 332.379 128.643C332.428 128.664 332.47 128.697 332.503 128.739C332.533 128.785 332.552 128.837 332.561 128.891C332.57 128.945 332.567 129.001 332.554 129.054L332.31 130.261C332.288 130.378 332.224 130.482 332.129 130.555C332.035 130.635 331.914 130.679 331.79 130.678H326.566L325.647 134.959C325.622 135.073 325.561 135.176 325.473 135.253C325.385 135.329 325.273 135.371 325.156 135.372L323.616 135.357Z" fill="white"/>
<path d="M334.307 135.357C334.257 135.358 334.207 135.348 334.162 135.328C334.117 135.307 334.078 135.276 334.047 135.237C334.018 135.194 333.998 135.146 333.989 135.096C333.981 135.045 333.983 134.993 333.996 134.944L336.389 123.703C336.41 123.579 336.475 123.467 336.573 123.388C336.661 123.313 336.773 123.271 336.89 123.268H341.384C342.785 123.268 343.821 123.591 344.49 124.236C345.16 124.881 345.363 125.819 345.099 127.049C344.942 127.842 344.569 128.577 344.021 129.174C343.484 129.741 342.81 130.162 342.063 130.397L343.647 134.811C343.66 134.841 343.666 134.873 343.666 134.906C343.666 134.938 343.66 134.97 343.647 135C343.642 135.052 343.625 135.102 343.598 135.147C343.571 135.191 343.535 135.229 343.492 135.259C343.414 135.323 343.317 135.36 343.216 135.363H341.632C341.556 135.372 341.48 135.363 341.409 135.336C341.339 135.309 341.276 135.265 341.226 135.208C341.154 135.11 341.092 135.004 341.042 134.893L339.689 130.794H337.276L336.408 134.947C336.381 135.064 336.314 135.169 336.219 135.244C336.124 135.319 336.006 135.36 335.885 135.36L334.307 135.357ZM337.708 128.849H340.139C340.737 128.881 341.33 128.714 341.822 128.373C342.246 128.042 342.531 127.565 342.62 127.036C342.693 126.809 342.711 126.568 342.674 126.333C342.636 126.097 342.544 125.874 342.405 125.68C342.132 125.352 341.637 125.188 340.918 125.188H338.471L337.708 128.849Z" fill="white"/>
<path d="M350.136 135.53C349.476 135.537 348.819 135.441 348.189 135.243C347.635 135.075 347.13 134.776 346.716 134.373C346.312 133.964 346.027 133.454 345.892 132.897C345.734 132.207 345.725 131.491 345.866 130.797C345.946 130.303 346.042 129.815 346.151 129.331C346.262 128.849 346.373 128.354 346.491 127.846C346.871 126.282 347.553 125.1 348.538 124.299C349.523 123.498 350.801 123.098 352.373 123.098C353.037 123.094 353.697 123.2 354.326 123.413C354.878 123.596 355.381 123.903 355.793 124.312C356.195 124.726 356.479 125.238 356.617 125.797C356.775 126.474 356.784 127.178 356.643 127.859C356.56 128.365 356.465 128.861 356.357 129.344L356.018 130.81C355.625 132.412 354.936 133.6 353.952 134.376C352.967 135.152 351.695 135.536 350.136 135.53ZM350.291 133.544C351.021 133.555 351.734 133.321 352.313 132.878C352.896 132.437 353.311 131.715 353.552 130.712C353.682 130.205 353.79 129.738 353.869 129.306C353.949 128.874 354.05 128.411 354.132 127.916C354.316 126.913 354.238 126.191 353.898 125.75C353.558 125.308 352.993 125.086 352.205 125.084C351.475 125.069 350.761 125.304 350.183 125.75C349.609 126.191 349.204 126.913 348.96 127.916C348.833 128.411 348.722 128.862 348.643 129.306C348.563 129.751 348.456 130.205 348.364 130.712C348.19 131.715 348.269 132.437 348.598 132.878C348.928 133.32 349.492 133.542 350.291 133.544Z" fill="white"/>
<path d="M357.787 135.357C357.733 135.36 357.68 135.351 357.63 135.33C357.581 135.309 357.537 135.277 357.502 135.237C357.47 135.196 357.448 135.148 357.437 135.097C357.427 135.046 357.428 134.994 357.441 134.944L359.854 123.703C359.872 123.581 359.934 123.469 360.028 123.388C360.115 123.31 360.228 123.267 360.345 123.268H361.651C361.711 123.262 361.773 123.267 361.831 123.285C361.889 123.303 361.943 123.333 361.99 123.372C362.04 123.421 362.079 123.48 362.104 123.546L365.47 131.349L367.118 123.7C367.138 123.578 367.2 123.467 367.293 123.385C367.381 123.309 367.493 123.266 367.61 123.265H369.068C369.12 123.261 369.173 123.269 369.221 123.29C369.269 123.311 369.311 123.344 369.343 123.385C369.374 123.431 369.395 123.483 369.404 123.537C369.413 123.591 369.411 123.647 369.397 123.7L367.001 134.921C366.983 135.043 366.922 135.155 366.83 135.237C366.737 135.316 366.619 135.358 366.497 135.357H365.178C365.121 135.362 365.064 135.356 365.009 135.338C364.954 135.32 364.904 135.291 364.862 135.253C364.815 135.2 364.774 135.141 364.741 135.079L361.356 127.449L359.771 134.944C359.746 135.057 359.685 135.16 359.597 135.237C359.509 135.312 359.396 135.355 359.28 135.357H357.787Z" fill="white"/>
<path d="M372.697 135.357C372.645 135.36 372.594 135.351 372.547 135.33C372.5 135.309 372.459 135.277 372.427 135.237C372.395 135.196 372.373 135.148 372.363 135.097C372.352 135.046 372.354 134.994 372.367 134.944L374.415 125.396H371.204C371.15 125.405 371.094 125.399 371.043 125.38C370.991 125.361 370.946 125.329 370.911 125.287C370.876 125.245 370.852 125.195 370.842 125.141C370.832 125.087 370.837 125.032 370.855 124.98L371.134 123.703C371.154 123.58 371.218 123.468 371.315 123.388C371.403 123.313 371.515 123.271 371.632 123.268H380.481C380.535 123.265 380.589 123.274 380.638 123.295C380.688 123.315 380.732 123.347 380.767 123.388C380.8 123.433 380.823 123.484 380.834 123.539C380.845 123.593 380.844 123.649 380.83 123.703L380.551 124.98C380.529 125.095 380.467 125.199 380.377 125.273C380.29 125.352 380.177 125.395 380.06 125.396H376.849L374.795 134.947C374.773 135.061 374.711 135.165 374.621 135.24C374.533 135.316 374.42 135.359 374.304 135.36L372.697 135.357Z" fill="white"/>
<path d="M230.575 107.491C230.258 111.019 228.071 114.175 225.368 114.175C228.071 114.175 229.71 117.328 229.399 120.859C229.716 117.331 231.903 114.175 234.607 114.175C231.903 114.175 230.265 111.019 230.575 107.491Z" fill="white"/>
<path d="M227.406 120.733C227.089 124.261 224.902 127.417 222.198 127.417C224.902 127.417 226.54 130.57 226.23 134.102C226.547 130.574 228.734 127.417 231.437 127.417C228.734 127.417 227.095 124.261 227.406 120.733Z" fill="white"/>
<path d="M217.434 107.33C216.8 114.402 212.414 120.73 206.997 120.73C212.414 120.73 215.7 127.058 215.079 134.13C215.713 127.058 220.097 120.73 225.517 120.73C220.084 120.73 216.8 114.402 217.434 107.33Z" fill="white"/>
<path d="M4.18436 225.151C4.06147 225.151 3.95701 225.108 3.87099 225.021C3.78497 224.935 3.74196 224.83 3.74196 224.707V212.66C3.74196 212.524 3.78497 212.413 3.87099 212.327C3.95701 212.24 4.06147 212.197 4.18436 212.197H12.295C12.4302 212.197 12.5408 212.24 12.6268 212.327C12.7128 212.413 12.7558 212.524 12.7558 212.66V213.881C12.7558 214.004 12.7128 214.109 12.6268 214.196C12.5408 214.282 12.4302 214.325 12.295 214.325H6.23045V217.601H11.8895C12.0247 217.601 12.1353 217.644 12.2213 217.73C12.3073 217.804 12.3503 217.909 12.3503 218.045V219.192C12.3503 219.328 12.3073 219.439 12.2213 219.525C12.1353 219.599 12.0247 219.636 11.8895 219.636H6.23045V223.023H12.4425C12.5776 223.023 12.6882 223.066 12.7743 223.152C12.8603 223.239 12.9033 223.35 12.9033 223.485V224.707C12.9033 224.83 12.8603 224.935 12.7743 225.021C12.6882 225.108 12.5776 225.151 12.4425 225.151H4.18436Z" fill="white"/>
<path d="M14.4899 225.151C14.3793 225.151 14.2871 225.114 14.2134 225.04C14.1396 224.966 14.1028 224.873 14.1028 224.762C14.1028 224.725 14.1089 224.688 14.1212 224.651C14.1335 224.614 14.1458 224.577 14.1581 224.54L18.2871 218.544L14.4161 212.808C14.3793 212.734 14.3608 212.66 14.3608 212.586C14.3608 212.475 14.3977 212.382 14.4714 212.308C14.5452 212.234 14.6312 212.197 14.7295 212.197H16.6281C16.7756 212.197 16.8923 212.234 16.9784 212.308C17.0644 212.382 17.1381 212.462 17.1996 212.549L19.9093 216.546L22.6374 212.549C22.6865 212.462 22.7541 212.382 22.8401 212.308C22.9385 212.234 23.0613 212.197 23.2088 212.197H24.9968C25.1074 212.197 25.1996 212.234 25.2733 212.308C25.3471 212.382 25.3839 212.475 25.3839 212.586C25.3839 212.66 25.3594 212.734 25.3102 212.808L21.4576 218.544L25.5867 224.54C25.6113 224.577 25.6297 224.614 25.642 224.651C25.6543 224.688 25.6604 224.725 25.6604 224.762C25.6604 224.873 25.6174 224.966 25.5314 225.04C25.4577 225.114 25.3717 225.151 25.2733 225.151H23.3194C23.1719 225.151 23.0552 225.114 22.9692 225.04C22.8832 224.966 22.8156 224.892 22.7664 224.818L19.8171 220.636L16.9231 224.818C16.8739 224.892 16.8063 224.966 16.7203 225.04C16.6343 225.114 16.5114 225.151 16.3516 225.151H14.4899Z" fill="white"/>
<path d="M27.856 225.151C27.7331 225.151 27.6287 225.108 27.5426 225.021C27.4566 224.935 27.4136 224.83 27.4136 224.707V212.66C27.4136 212.524 27.4566 212.413 27.5426 212.327C27.6287 212.24 27.7331 212.197 27.856 212.197H32.7961C33.7547 212.197 34.5903 212.351 35.3031 212.66C36.0158 212.956 36.5688 213.412 36.9621 214.029C37.3553 214.634 37.5519 215.392 37.5519 216.305C37.5519 217.231 37.3553 217.995 36.9621 218.6C36.5688 219.192 36.0158 219.636 35.3031 219.932C34.5903 220.228 33.7547 220.376 32.7961 220.376H30.0496V224.707C30.0496 224.83 30.0066 224.935 29.9205 225.021C29.8468 225.108 29.7424 225.151 29.6072 225.151H27.856ZM30.0127 218.322H32.704C33.4167 218.322 33.9636 218.156 34.3445 217.823C34.7255 217.477 34.916 216.971 34.916 216.305C34.916 215.688 34.7378 215.195 34.3814 214.825C34.025 214.442 33.4659 214.251 32.704 214.251H30.0127V218.322Z" fill="white"/>
<path d="M40.0069 225.151C39.884 225.151 39.7795 225.108 39.6935 225.021C39.6075 224.935 39.5645 224.83 39.5645 224.707V212.641C39.5645 212.518 39.6075 212.413 39.6935 212.327C39.7795 212.24 39.884 212.197 40.0069 212.197H41.7212C41.8441 212.197 41.9485 212.24 42.0345 212.327C42.1205 212.413 42.1636 212.518 42.1636 212.641V222.949H48.0069C48.1421 222.949 48.2527 222.992 48.3387 223.078C48.4247 223.165 48.4677 223.276 48.4677 223.411V224.707C48.4677 224.83 48.4247 224.935 48.3387 225.021C48.2527 225.108 48.1421 225.151 48.0069 225.151H40.0069Z" fill="white"/>
<path d="M55.0538 225.336C53.9601 225.336 53.02 225.157 52.2335 224.799C51.447 224.429 50.8325 223.868 50.3901 223.115C49.9477 222.35 49.7081 221.4 49.6712 220.265C49.6589 219.735 49.6528 219.211 49.6528 218.692C49.6528 218.174 49.6589 217.644 49.6712 217.101C49.7081 215.978 49.9539 215.041 50.4086 214.288C50.8633 213.536 51.4838 212.968 52.2703 212.586C53.0691 212.203 53.9969 212.012 55.0538 212.012C56.1106 212.012 57.0384 212.203 57.8372 212.586C58.636 212.968 59.2627 213.536 59.7174 214.288C60.1721 215.041 60.4178 215.978 60.4547 217.101C60.4793 217.644 60.4916 218.174 60.4916 218.692C60.4916 219.211 60.4793 219.735 60.4547 220.265C60.4178 221.4 60.1782 222.35 59.7358 223.115C59.2934 223.868 58.6728 224.429 57.8741 224.799C57.0876 225.157 56.1475 225.336 55.0538 225.336ZM55.0538 223.208C55.8525 223.208 56.5038 222.973 57.0077 222.505C57.5115 222.023 57.7819 221.246 57.8188 220.173C57.8433 219.63 57.8556 219.13 57.8556 218.674C57.8556 218.205 57.8433 217.706 57.8188 217.175C57.7942 216.459 57.659 215.88 57.4132 215.436C57.1797 214.979 56.8602 214.652 56.4547 214.455C56.0492 214.245 55.5822 214.14 55.0538 214.14C54.5376 214.14 54.0768 214.245 53.6713 214.455C53.2657 214.652 52.9401 214.979 52.6943 215.436C52.4608 215.88 52.3318 216.459 52.3072 217.175C52.2949 217.706 52.2888 218.205 52.2888 218.674C52.2888 219.13 52.2949 219.63 52.3072 220.173C52.3441 221.246 52.6144 222.023 53.1183 222.505C53.6221 222.973 54.2673 223.208 55.0538 223.208Z" fill="white"/>
<path d="M63.3545 225.151C63.2316 225.151 63.1272 225.108 63.0411 225.021C62.9551 224.935 62.9121 224.83 62.9121 224.707V212.66C62.9121 212.524 62.9551 212.413 63.0411 212.327C63.1272 212.24 63.2316 212.197 63.3545 212.197H68.1287C69.6157 212.197 70.7893 212.542 71.6495 213.233C72.5097 213.924 72.9398 214.93 72.9398 216.25C72.9398 217.163 72.7125 217.921 72.2578 218.526C71.8154 219.13 71.2194 219.568 70.4697 219.84L73.161 224.559C73.1979 224.633 73.2163 224.701 73.2163 224.762C73.2163 224.873 73.1733 224.966 73.0873 225.04C73.0135 225.114 72.9275 225.151 72.8292 225.151H71.1518C70.9429 225.151 70.7831 225.095 70.6725 224.984C70.5619 224.873 70.4759 224.762 70.4145 224.651L68.0366 220.265H65.4743V224.707C65.4743 224.83 65.4313 224.935 65.3453 225.021C65.2716 225.108 65.1671 225.151 65.0319 225.151H63.3545ZM65.4743 218.174H68.0734C68.823 218.174 69.3822 218.008 69.7509 217.675C70.1195 217.329 70.3038 216.848 70.3038 216.231C70.3038 215.614 70.1195 215.133 69.7509 214.788C69.3945 214.43 68.8353 214.251 68.0734 214.251H65.4743V218.174Z" fill="white"/>
<path d="M75.7574 225.151C75.6345 225.151 75.53 225.108 75.444 225.021C75.358 224.935 75.315 224.83 75.315 224.707V212.66C75.315 212.524 75.358 212.413 75.444 212.327C75.53 212.24 75.6345 212.197 75.7574 212.197H83.868C84.0032 212.197 84.1138 212.24 84.1998 212.327C84.2858 212.413 84.3288 212.524 84.3288 212.66V213.881C84.3288 214.004 84.2858 214.109 84.1998 214.196C84.1138 214.282 84.0032 214.325 83.868 214.325H77.8035V217.601H83.4625C83.5977 217.601 83.7083 217.644 83.7943 217.73C83.8803 217.804 83.9233 217.909 83.9233 218.045V219.192C83.9233 219.328 83.8803 219.439 83.7943 219.525C83.7083 219.599 83.5977 219.636 83.4625 219.636H77.8035V223.023H84.0155C84.1507 223.023 84.2613 223.066 84.3473 223.152C84.4333 223.239 84.4763 223.35 84.4763 223.485V224.707C84.4763 224.83 84.4333 224.935 84.3473 225.021C84.2613 225.108 84.1507 225.151 84.0155 225.151H75.7574Z" fill="white"/>
<path d="M99.6767 229C99.5538 229 99.4494 228.957 99.3634 228.87C99.2773 228.784 99.2343 228.679 99.2343 228.556V209.014C99.2343 208.891 99.2773 208.786 99.3634 208.7C99.4494 208.613 99.5538 208.57 99.6767 208.57H100.875C100.998 208.57 101.102 208.613 101.188 208.7C101.274 208.786 101.317 208.891 101.317 209.014V228.556C101.317 228.679 101.274 228.784 101.188 228.87C101.102 228.957 100.998 229 100.875 229H99.6767Z" fill="white"/>
<path d="M117.088 225.151C116.965 225.151 116.861 225.108 116.775 225.021C116.689 224.935 116.646 224.83 116.646 224.707V212.66C116.646 212.524 116.689 212.413 116.775 212.327C116.861 212.24 116.965 212.197 117.088 212.197H125.199C125.334 212.197 125.445 212.24 125.531 212.327C125.617 212.413 125.66 212.524 125.66 212.66V213.881C125.66 214.004 125.617 214.109 125.531 214.196C125.445 214.282 125.334 214.325 125.199 214.325H119.134V217.601H124.793C124.929 217.601 125.039 217.644 125.125 217.73C125.211 217.804 125.254 217.909 125.254 218.045V219.192C125.254 219.328 125.211 219.439 125.125 219.525C125.039 219.599 124.929 219.636 124.793 219.636H119.134V223.023H125.346C125.482 223.023 125.592 223.066 125.678 223.152C125.764 223.239 125.807 223.35 125.807 223.485V224.707C125.807 224.83 125.764 224.935 125.678 225.021C125.592 225.108 125.482 225.151 125.346 225.151H117.088Z" fill="white"/>
<path d="M127.394 225.151C127.283 225.151 127.191 225.114 127.117 225.04C127.044 224.966 127.007 224.873 127.007 224.762C127.007 224.725 127.013 224.688 127.025 224.651C127.037 224.614 127.05 224.577 127.062 224.54L131.191 218.544L127.32 212.808C127.283 212.734 127.265 212.66 127.265 212.586C127.265 212.475 127.302 212.382 127.375 212.308C127.449 212.234 127.535 212.197 127.633 212.197H129.532C129.679 212.197 129.796 212.234 129.882 212.308C129.968 212.382 130.042 212.462 130.103 212.549L132.813 216.546L135.541 212.549C135.59 212.462 135.658 212.382 135.744 212.308C135.842 212.234 135.965 212.197 136.113 212.197H137.901C138.011 212.197 138.104 212.234 138.177 212.308C138.251 212.382 138.288 212.475 138.288 212.586C138.288 212.66 138.263 212.734 138.214 212.808L134.362 218.544L138.491 224.54C138.515 224.577 138.534 224.614 138.546 224.651C138.558 224.688 138.564 224.725 138.564 224.762C138.564 224.873 138.521 224.966 138.435 225.04C138.362 225.114 138.276 225.151 138.177 225.151H136.223C136.076 225.151 135.959 225.114 135.873 225.04C135.787 224.966 135.719 224.892 135.67 224.818L132.721 220.636L129.827 224.818C129.778 224.892 129.71 224.966 129.624 225.04C129.538 225.114 129.415 225.151 129.256 225.151H127.394Z" fill="white"/>
<path d="M140.76 225.151C140.637 225.151 140.533 225.108 140.447 225.021C140.361 224.935 140.318 224.83 140.318 224.707V212.66C140.318 212.524 140.361 212.413 140.447 212.327C140.533 212.24 140.637 212.197 140.76 212.197H145.7C146.659 212.197 147.494 212.351 148.207 212.66C148.92 212.956 149.473 213.412 149.866 214.029C150.259 214.634 150.456 215.392 150.456 216.305C150.456 217.231 150.259 217.995 149.866 218.6C149.473 219.192 148.92 219.636 148.207 219.932C147.494 220.228 146.659 220.376 145.7 220.376H142.953V224.707C142.953 224.83 142.91 224.935 142.824 225.021C142.751 225.108 142.646 225.151 142.511 225.151H140.76ZM142.917 218.322H145.608C146.321 218.322 146.867 218.156 147.248 217.823C147.629 217.477 147.82 216.971 147.82 216.305C147.82 215.688 147.642 215.195 147.285 214.825C146.929 214.442 146.37 214.251 145.608 214.251H142.917V218.322Z" fill="white"/>
<path d="M152.911 225.151C152.788 225.151 152.683 225.108 152.597 225.021C152.511 224.935 152.468 224.83 152.468 224.707V212.66C152.468 212.524 152.511 212.413 152.597 212.327C152.683 212.24 152.788 212.197 152.911 212.197H161.021C161.157 212.197 161.267 212.24 161.353 212.327C161.439 212.413 161.482 212.524 161.482 212.66V213.881C161.482 214.004 161.439 214.109 161.353 214.196C161.267 214.282 161.157 214.325 161.021 214.325H154.957V217.601H160.616C160.751 217.601 160.862 217.644 160.948 217.73C161.034 217.804 161.077 217.909 161.077 218.045V219.192C161.077 219.328 161.034 219.439 160.948 219.525C160.862 219.599 160.751 219.636 160.616 219.636H154.957V223.023H161.169C161.304 223.023 161.415 223.066 161.501 223.152C161.587 223.239 161.63 223.35 161.63 223.485V224.707C161.63 224.83 161.587 224.935 161.501 225.021C161.415 225.108 161.304 225.151 161.169 225.151H152.911Z" fill="white"/>
<path d="M164.378 225.151C164.255 225.151 164.15 225.108 164.064 225.021C163.978 224.935 163.935 224.83 163.935 224.707V212.66C163.935 212.524 163.978 212.413 164.064 212.327C164.15 212.24 164.255 212.197 164.378 212.197H169.152C170.639 212.197 171.812 212.542 172.673 213.233C173.533 213.924 173.963 214.93 173.963 216.25C173.963 217.163 173.736 217.921 173.281 218.526C172.838 219.13 172.242 219.568 171.493 219.84L174.184 224.559C174.221 224.633 174.239 224.701 174.239 224.762C174.239 224.873 174.196 224.966 174.11 225.04C174.037 225.114 173.951 225.151 173.852 225.151H172.175C171.966 225.151 171.806 225.095 171.696 224.984C171.585 224.873 171.499 224.762 171.438 224.651L169.06 220.265H166.497V224.707C166.497 224.83 166.454 224.935 166.368 225.021C166.295 225.108 166.19 225.151 166.055 225.151H164.378ZM166.497 218.174H169.096C169.846 218.174 170.405 218.008 170.774 217.675C171.143 217.329 171.327 216.848 171.327 216.231C171.327 215.614 171.143 215.133 170.774 214.788C170.418 214.43 169.858 214.251 169.096 214.251H166.497V218.174Z" fill="white"/>
<path d="M176.78 225.151C176.658 225.151 176.553 225.108 176.467 225.021C176.381 224.935 176.338 224.83 176.338 224.707V212.641C176.338 212.518 176.381 212.413 176.467 212.327C176.553 212.24 176.658 212.197 176.78 212.197H178.513C178.648 212.197 178.753 212.24 178.827 212.327C178.913 212.413 178.956 212.518 178.956 212.641V224.707C178.956 224.83 178.913 224.935 178.827 225.021C178.753 225.108 178.648 225.151 178.513 225.151H176.78Z" fill="white"/>
<path d="M182.289 225.151C182.166 225.151 182.061 225.108 181.975 225.021C181.889 224.935 181.846 224.83 181.846 224.707V212.66C181.846 212.524 181.889 212.413 181.975 212.327C182.061 212.24 182.166 212.197 182.289 212.197H190.399C190.535 212.197 190.645 212.24 190.731 212.327C190.817 212.413 190.86 212.524 190.86 212.66V213.881C190.86 214.004 190.817 214.109 190.731 214.196C190.645 214.282 190.535 214.325 190.399 214.325H184.335V217.601H189.994C190.129 217.601 190.24 217.644 190.326 217.73C190.412 217.804 190.455 217.909 190.455 218.045V219.192C190.455 219.328 190.412 219.439 190.326 219.525C190.24 219.599 190.129 219.636 189.994 219.636H184.335V223.023H190.547C190.682 223.023 190.793 223.066 190.879 223.152C190.965 223.239 191.008 223.35 191.008 223.485V224.707C191.008 224.83 190.965 224.935 190.879 225.021C190.793 225.108 190.682 225.151 190.547 225.151H182.289Z" fill="white"/>
<path d="M193.756 225.151C193.633 225.151 193.528 225.108 193.442 225.021C193.356 224.935 193.313 224.83 193.313 224.707V212.66C193.313 212.524 193.356 212.413 193.442 212.327C193.528 212.24 193.633 212.197 193.756 212.197H195.175C195.347 212.197 195.47 212.24 195.544 212.327C195.63 212.401 195.685 212.456 195.71 212.493L201.018 220.784V212.66C201.018 212.524 201.055 212.413 201.129 212.327C201.215 212.24 201.326 212.197 201.461 212.197H203.009C203.144 212.197 203.255 212.24 203.341 212.327C203.427 212.413 203.47 212.524 203.47 212.66V224.688C203.47 224.824 203.427 224.935 203.341 225.021C203.255 225.108 203.15 225.151 203.028 225.151H201.59C201.418 225.151 201.295 225.108 201.221 225.021C201.147 224.935 201.092 224.879 201.055 224.855L195.765 216.749V224.707C195.765 224.83 195.722 224.935 195.636 225.021C195.55 225.108 195.439 225.151 195.304 225.151H193.756Z" fill="white"/>
<path d="M211.323 225.336C210.18 225.336 209.209 225.139 208.411 224.744C207.624 224.337 207.022 223.763 206.604 223.023C206.186 222.27 205.953 221.37 205.904 220.321C205.891 219.815 205.885 219.272 205.885 218.692C205.885 218.113 205.891 217.557 205.904 217.027C205.953 215.991 206.186 215.096 206.604 214.344C207.034 213.591 207.643 213.017 208.429 212.623C209.228 212.216 210.193 212.012 211.323 212.012C212.159 212.012 212.908 212.123 213.572 212.345C214.236 212.567 214.801 212.876 215.268 213.27C215.735 213.653 216.097 214.103 216.355 214.621C216.613 215.139 216.749 215.701 216.761 216.305C216.773 216.416 216.736 216.509 216.65 216.583C216.577 216.657 216.484 216.694 216.374 216.694H214.623C214.488 216.694 214.377 216.663 214.291 216.601C214.205 216.527 214.143 216.41 214.107 216.25C213.91 215.436 213.572 214.88 213.093 214.584C212.613 214.288 212.017 214.14 211.305 214.14C210.481 214.14 209.824 214.375 209.332 214.843C208.841 215.3 208.577 216.059 208.54 217.119C208.503 218.131 208.503 219.167 208.54 220.228C208.577 221.289 208.841 222.054 209.332 222.523C209.824 222.98 210.481 223.208 211.305 223.208C212.017 223.208 212.613 223.06 213.093 222.764C213.572 222.455 213.91 221.9 214.107 221.098C214.143 220.925 214.205 220.808 214.291 220.747C214.377 220.685 214.488 220.654 214.623 220.654H216.374C216.484 220.654 216.577 220.691 216.65 220.765C216.736 220.839 216.773 220.932 216.761 221.043C216.749 221.647 216.613 222.208 216.355 222.727C216.097 223.245 215.735 223.701 215.268 224.096C214.801 224.478 214.236 224.781 213.572 225.003C212.908 225.225 212.159 225.336 211.323 225.336Z" fill="white"/>
<path d="M219.389 225.151C219.267 225.151 219.162 225.108 219.076 225.021C218.99 224.935 218.947 224.83 218.947 224.707V212.66C218.947 212.524 218.99 212.413 219.076 212.327C219.162 212.24 219.267 212.197 219.389 212.197H227.5C227.635 212.197 227.746 212.24 227.832 212.327C227.918 212.413 227.961 212.524 227.961 212.66V213.881C227.961 214.004 227.918 214.109 227.832 214.196C227.746 214.282 227.635 214.325 227.5 214.325H221.436V217.601H227.095C227.23 217.601 227.34 217.644 227.426 217.73C227.512 217.804 227.555 217.909 227.555 218.045V219.192C227.555 219.328 227.512 219.439 227.426 219.525C227.34 219.599 227.23 219.636 227.095 219.636H221.436V223.023H227.648C227.783 223.023 227.893 223.066 227.979 223.152C228.065 223.239 228.108 223.35 228.108 223.485V224.707C228.108 224.83 228.065 224.935 227.979 225.021C227.893 225.108 227.783 225.151 227.648 225.151H219.389Z" fill="white"/>
<path d="M243.309 229C243.186 229 243.081 228.957 242.995 228.87C242.909 228.784 242.866 228.679 242.866 228.556V209.014C242.866 208.891 242.909 208.786 242.995 208.7C243.081 208.613 243.186 208.57 243.309 208.57H244.507C244.63 208.57 244.734 208.613 244.82 208.7C244.906 208.786 244.949 208.891 244.949 209.014V228.556C244.949 228.679 244.906 228.784 244.82 228.87C244.734 228.957 244.63 229 244.507 229H243.309Z" fill="white"/>
<path d="M260.72 225.151C260.597 225.151 260.493 225.108 260.407 225.021C260.321 224.935 260.278 224.83 260.278 224.707V212.66C260.278 212.524 260.321 212.413 260.407 212.327C260.493 212.24 260.597 212.197 260.72 212.197H268.831C268.966 212.197 269.077 212.24 269.163 212.327C269.249 212.413 269.292 212.524 269.292 212.66V213.881C269.292 214.004 269.249 214.109 269.163 214.196C269.077 214.282 268.966 214.325 268.831 214.325H262.766V217.601H268.425C268.561 217.601 268.671 217.644 268.757 217.73C268.843 217.804 268.886 217.909 268.886 218.045V219.192C268.886 219.328 268.843 219.439 268.757 219.525C268.671 219.599 268.561 219.636 268.425 219.636H262.766V223.023H268.978C269.114 223.023 269.224 223.066 269.31 223.152C269.396 223.239 269.439 223.35 269.439 223.485V224.707C269.439 224.83 269.396 224.935 269.31 225.021C269.224 225.108 269.114 225.151 268.978 225.151H260.72Z" fill="white"/>
<path d="M272.206 225.151C272.07 225.151 271.96 225.108 271.874 225.021C271.788 224.935 271.745 224.83 271.745 224.707V212.66C271.745 212.524 271.788 212.413 271.874 212.327C271.96 212.24 272.07 212.197 272.206 212.197H273.662C273.834 212.197 273.963 212.246 274.049 212.345C274.135 212.431 274.19 212.499 274.215 212.549L277.772 219.211L281.367 212.549C281.391 212.499 281.447 212.431 281.533 212.345C281.619 212.246 281.748 212.197 281.92 212.197H283.358C283.493 212.197 283.603 212.24 283.69 212.327C283.776 212.413 283.819 212.524 283.819 212.66V224.707C283.819 224.83 283.776 224.935 283.69 225.021C283.603 225.108 283.493 225.151 283.358 225.151H281.809C281.674 225.151 281.564 225.108 281.478 225.021C281.404 224.935 281.367 224.83 281.367 224.707V216.694L278.786 221.635C278.725 221.746 278.645 221.845 278.547 221.931C278.448 222.005 278.319 222.042 278.16 222.042H277.404C277.232 222.042 277.097 222.005 276.998 221.931C276.912 221.845 276.838 221.746 276.777 221.635L274.196 216.694V224.707C274.196 224.83 274.153 224.935 274.067 225.021C273.981 225.108 273.877 225.151 273.754 225.151H272.206Z" fill="white"/>
<path d="M287.128 225.151C287.005 225.151 286.901 225.108 286.815 225.021C286.729 224.935 286.686 224.83 286.686 224.707V212.66C286.686 212.524 286.729 212.413 286.815 212.327C286.901 212.24 287.005 212.197 287.128 212.197H292.474C293.469 212.197 294.28 212.351 294.907 212.66C295.534 212.956 295.995 213.369 296.29 213.9C296.597 214.43 296.75 215.047 296.75 215.75C296.75 216.219 296.664 216.632 296.492 216.99C296.333 217.335 296.13 217.619 295.884 217.841C295.65 218.063 295.417 218.236 295.184 218.359C295.663 218.581 296.087 218.952 296.455 219.47C296.824 219.988 297.008 220.605 297.008 221.32C297.008 222.06 296.842 222.72 296.511 223.3C296.179 223.88 295.687 224.337 295.036 224.67C294.385 224.99 293.58 225.151 292.621 225.151H287.128ZM289.248 223.189H292.326C292.99 223.189 293.494 223.01 293.838 222.653C294.182 222.283 294.354 221.838 294.354 221.32C294.354 220.777 294.176 220.327 293.819 219.969C293.475 219.612 292.978 219.433 292.326 219.433H289.248V223.189ZM289.248 217.508H292.142C292.793 217.508 293.279 217.354 293.598 217.045C293.93 216.725 294.096 216.311 294.096 215.806C294.096 215.287 293.93 214.887 293.598 214.603C293.279 214.307 292.793 214.159 292.142 214.159H289.248V217.508Z" fill="white"/>
<path d="M299.765 225.151C299.642 225.151 299.538 225.108 299.452 225.021C299.366 224.935 299.323 224.83 299.323 224.707V212.66C299.323 212.524 299.366 212.413 299.452 212.327C299.538 212.24 299.642 212.197 299.765 212.197H304.539C306.026 212.197 307.2 212.542 308.06 213.233C308.92 213.924 309.35 214.93 309.35 216.25C309.35 217.163 309.123 217.921 308.668 218.526C308.226 219.13 307.63 219.568 306.88 219.84L309.572 224.559C309.608 224.633 309.627 224.701 309.627 224.762C309.627 224.873 309.584 224.966 309.498 225.04C309.424 225.114 309.338 225.151 309.24 225.151H307.562C307.353 225.151 307.194 225.095 307.083 224.984C306.972 224.873 306.886 224.762 306.825 224.651L304.447 220.265H301.885V224.707C301.885 224.83 301.842 224.935 301.756 225.021C301.682 225.108 301.578 225.151 301.442 225.151H299.765ZM301.885 218.174H304.484C305.234 218.174 305.793 218.008 306.161 217.675C306.53 217.329 306.714 216.848 306.714 216.231C306.714 215.614 306.53 215.133 306.161 214.788C305.805 214.43 305.246 214.251 304.484 214.251H301.885V218.174Z" fill="white"/>
<path d="M310.933 225.151C310.835 225.151 310.742 225.114 310.656 225.04C310.583 224.966 310.546 224.873 310.546 224.762C310.546 224.713 310.558 224.657 310.583 224.596L315.025 212.66C315.062 212.536 315.13 212.431 315.228 212.345C315.338 212.246 315.486 212.197 315.67 212.197H317.679C317.864 212.197 318.005 212.246 318.103 212.345C318.202 212.431 318.275 212.536 318.325 212.66L322.767 224.596C322.779 224.657 322.785 224.713 322.785 224.762C322.785 224.873 322.749 224.966 322.675 225.04C322.601 225.114 322.515 225.151 322.417 225.151H320.813C320.641 225.151 320.512 225.114 320.426 225.04C320.352 224.953 320.303 224.873 320.279 224.799L319.412 222.542H313.938L313.071 224.799C313.047 224.873 312.991 224.953 312.905 225.04C312.832 225.114 312.709 225.151 312.537 225.151H310.933ZM314.583 220.413H318.767L316.666 214.695L314.583 220.413Z" fill="white"/>
<path d="M329.231 225.336C328.089 225.336 327.118 225.139 326.319 224.744C325.532 224.337 324.93 223.763 324.512 223.023C324.095 222.27 323.861 221.37 323.812 220.321C323.8 219.815 323.794 219.272 323.794 218.692C323.794 218.113 323.8 217.557 323.812 217.027C323.861 215.991 324.095 215.096 324.512 214.344C324.943 213.591 325.551 213.017 326.337 212.623C327.136 212.216 328.101 212.012 329.231 212.012C330.067 212.012 330.817 212.123 331.48 212.345C332.144 212.567 332.709 212.876 333.176 213.27C333.643 213.653 334.006 214.103 334.264 214.621C334.522 215.139 334.657 215.701 334.669 216.305C334.681 216.416 334.645 216.509 334.559 216.583C334.485 216.657 334.393 216.694 334.282 216.694H332.531C332.396 216.694 332.285 216.663 332.199 216.601C332.113 216.527 332.052 216.41 332.015 216.25C331.818 215.436 331.48 214.88 331.001 214.584C330.522 214.288 329.926 214.14 329.213 214.14C328.39 214.14 327.732 214.375 327.241 214.843C326.749 215.3 326.485 216.059 326.448 217.119C326.411 218.131 326.411 219.167 326.448 220.228C326.485 221.289 326.749 222.054 327.241 222.523C327.732 222.98 328.39 223.208 329.213 223.208C329.926 223.208 330.522 223.06 331.001 222.764C331.48 222.455 331.818 221.9 332.015 221.098C332.052 220.925 332.113 220.808 332.199 220.747C332.285 220.685 332.396 220.654 332.531 220.654H334.282C334.393 220.654 334.485 220.691 334.559 220.765C334.645 220.839 334.681 220.932 334.669 221.043C334.657 221.647 334.522 222.208 334.264 222.727C334.006 223.245 333.643 223.701 333.176 224.096C332.709 224.478 332.144 224.781 331.48 225.003C330.817 225.225 330.067 225.336 329.231 225.336Z" fill="white"/>
<path d="M337.298 225.151C337.175 225.151 337.07 225.108 336.984 225.021C336.898 224.935 336.855 224.83 336.855 224.707V212.66C336.855 212.524 336.898 212.413 336.984 212.327C337.07 212.24 337.175 212.197 337.298 212.197H345.408C345.543 212.197 345.654 212.24 345.74 212.327C345.826 212.413 345.869 212.524 345.869 212.66V213.881C345.869 214.004 345.826 214.109 345.74 214.196C345.654 214.282 345.543 214.325 345.408 214.325H339.344V217.601H345.003C345.138 217.601 345.249 217.644 345.335 217.73C345.421 217.804 345.464 217.909 345.464 218.045V219.192C345.464 219.328 345.421 219.439 345.335 219.525C345.249 219.599 345.138 219.636 345.003 219.636H339.344V223.023H345.556C345.691 223.023 345.802 223.066 345.888 223.152C345.974 223.239 346.017 223.35 346.017 223.485V224.707C346.017 224.83 345.974 224.935 345.888 225.021C345.802 225.108 345.691 225.151 345.556 225.151H337.298Z" fill="white"/>
<path d="M363.79 225.151C363.667 225.151 363.563 225.108 363.477 225.021C363.391 224.935 363.348 224.83 363.348 224.707V214.473H359.938C359.815 214.473 359.71 214.43 359.624 214.344C359.538 214.257 359.495 214.152 359.495 214.029V212.66C359.495 212.524 359.538 212.413 359.624 212.327C359.71 212.24 359.815 212.197 359.938 212.197H369.339C369.474 212.197 369.584 212.24 369.67 212.327C369.756 212.413 369.799 212.524 369.799 212.66V214.029C369.799 214.152 369.756 214.257 369.67 214.344C369.584 214.43 369.474 214.473 369.339 214.473H365.947V224.707C365.947 224.83 365.904 224.935 365.818 225.021C365.732 225.108 365.621 225.151 365.486 225.151H363.79Z" fill="white"/>
<path d="M372.112 225.151C371.989 225.151 371.885 225.114 371.799 225.04C371.713 224.953 371.67 224.842 371.67 224.707V212.66C371.67 212.524 371.713 212.413 371.799 212.327C371.885 212.24 371.989 212.197 372.112 212.197H373.79C373.925 212.197 374.029 212.24 374.103 212.327C374.189 212.413 374.232 212.524 374.232 212.66V217.434H379.67V212.66C379.67 212.524 379.713 212.413 379.799 212.327C379.885 212.24 379.989 212.197 380.112 212.197H381.771C381.906 212.197 382.017 212.24 382.103 212.327C382.189 212.413 382.232 212.524 382.232 212.66V224.707C382.232 224.83 382.189 224.935 382.103 225.021C382.017 225.108 381.906 225.151 381.771 225.151H380.112C379.989 225.151 379.885 225.108 379.799 225.021C379.713 224.935 379.67 224.83 379.67 224.707V219.747H374.232V224.707C374.232 224.83 374.189 224.935 374.103 225.021C374.029 225.108 373.925 225.151 373.79 225.151H372.112Z" fill="white"/>
<path d="M385.541 225.151C385.418 225.151 385.314 225.108 385.228 225.021C385.142 224.935 385.099 224.83 385.099 224.707V212.66C385.099 212.524 385.142 212.413 385.228 212.327C385.314 212.24 385.418 212.197 385.541 212.197H393.652C393.787 212.197 393.897 212.24 393.983 212.327C394.07 212.413 394.113 212.524 394.113 212.66V213.881C394.113 214.004 394.07 214.109 393.983 214.196C393.897 214.282 393.787 214.325 393.652 214.325H387.587V217.601H393.246C393.381 217.601 393.492 217.644 393.578 217.73C393.664 217.804 393.707 217.909 393.707 218.045V219.192C393.707 219.328 393.664 219.439 393.578 219.525C393.492 219.599 393.381 219.636 393.246 219.636H387.587V223.023H393.799C393.934 223.023 394.045 223.066 394.131 223.152C394.217 223.239 394.26 223.35 394.26 223.485V224.707C394.26 224.83 394.217 224.935 394.131 225.021C394.045 225.108 393.934 225.151 393.799 225.151H385.541Z" fill="white"/>
<path d="M401.239 225.151C401.103 225.151 400.993 225.108 400.907 225.021C400.821 224.935 400.778 224.83 400.778 224.707V212.66C400.778 212.524 400.821 212.413 400.907 212.327C400.993 212.24 401.103 212.197 401.239 212.197H402.695C402.867 212.197 402.996 212.246 403.082 212.345C403.168 212.431 403.223 212.499 403.248 212.549L406.805 219.211L410.4 212.549C410.425 212.499 410.48 212.431 410.566 212.345C410.652 212.246 410.781 212.197 410.953 212.197H412.391C412.526 212.197 412.637 212.24 412.723 212.327C412.809 212.413 412.852 212.524 412.852 212.66V224.707C412.852 224.83 412.809 224.935 412.723 225.021C412.637 225.108 412.526 225.151 412.391 225.151H410.842C410.707 225.151 410.597 225.108 410.511 225.021C410.437 224.935 410.4 224.83 410.4 224.707V216.694L407.819 221.635C407.758 221.746 407.678 221.845 407.58 221.931C407.481 222.005 407.352 222.042 407.193 222.042H406.437C406.265 222.042 406.13 222.005 406.031 221.931C405.945 221.845 405.871 221.746 405.81 221.635L403.229 216.694V224.707C403.229 224.83 403.186 224.935 403.1 225.021C403.014 225.108 402.91 225.151 402.787 225.151H401.239Z" fill="white"/>
<path d="M416.161 225.151C416.038 225.151 415.934 225.108 415.848 225.021C415.762 224.935 415.719 224.83 415.719 224.707V212.66C415.719 212.524 415.762 212.413 415.848 212.327C415.934 212.24 416.038 212.197 416.161 212.197H424.272C424.407 212.197 424.518 212.24 424.604 212.327C424.69 212.413 424.733 212.524 424.733 212.66V213.881C424.733 214.004 424.69 214.109 424.604 214.196C424.518 214.282 424.407 214.325 424.272 214.325H418.207V217.601H423.866C424.001 217.601 424.112 217.644 424.198 217.73C424.284 217.804 424.327 217.909 424.327 218.045V219.192C424.327 219.328 424.284 219.439 424.198 219.525C424.112 219.599 424.001 219.636 423.866 219.636H418.207V223.023H424.419C424.555 223.023 424.665 223.066 424.751 223.152C424.837 223.239 424.88 223.35 424.88 223.485V224.707C424.88 224.83 424.837 224.935 424.751 225.021C424.665 225.108 424.555 225.151 424.419 225.151H416.161Z" fill="white"/>
<path d="M430.467 225.151C430.344 225.151 430.239 225.108 430.153 225.021C430.067 224.935 430.024 224.83 430.024 224.707V214.473H426.614C426.491 214.473 426.387 214.43 426.301 214.344C426.215 214.257 426.172 214.152 426.172 214.029V212.66C426.172 212.524 426.215 212.413 426.301 212.327C426.387 212.24 426.491 212.197 426.614 212.197H436.015C436.15 212.197 436.261 212.24 436.347 212.327C436.433 212.413 436.476 212.524 436.476 212.66V214.029C436.476 214.152 436.433 214.257 436.347 214.344C436.261 214.43 436.15 214.473 436.015 214.473H432.623V224.707C432.623 224.83 432.58 224.935 432.494 225.021C432.408 225.108 432.298 225.151 432.163 225.151H430.467Z" fill="white"/>
<path d="M436.204 225.151C436.105 225.151 436.013 225.114 435.927 225.04C435.853 224.966 435.817 224.873 435.817 224.762C435.817 224.713 435.829 224.657 435.853 224.596L440.296 212.66C440.333 212.536 440.4 212.431 440.499 212.345C440.609 212.246 440.757 212.197 440.941 212.197H442.95C443.135 212.197 443.276 212.246 443.374 212.345C443.473 212.431 443.546 212.536 443.595 212.66L448.038 224.596C448.05 224.657 448.056 224.713 448.056 224.762C448.056 224.873 448.019 224.966 447.946 225.04C447.872 225.114 447.786 225.151 447.688 225.151H446.084C445.912 225.151 445.783 225.114 445.697 225.04C445.623 224.953 445.574 224.873 445.549 224.799L444.683 222.542H439.208L438.342 224.799C438.317 224.873 438.262 224.953 438.176 225.04C438.102 225.114 437.979 225.151 437.807 225.151H436.204ZM439.853 220.413H444.038L441.936 214.695L439.853 220.413Z" fill="white"/>
<path d="M452.584 225.151C452.387 225.151 452.233 225.102 452.123 225.003C452.012 224.904 451.932 224.781 451.883 224.633L447.938 212.752C447.914 212.691 447.901 212.635 447.901 212.586C447.901 212.475 447.938 212.382 448.012 212.308C448.086 212.234 448.178 212.197 448.289 212.197H449.911C450.083 212.197 450.212 212.246 450.298 212.345C450.396 212.431 450.458 212.518 450.482 212.604L453.597 222.134L456.694 212.604C456.731 212.518 456.792 212.431 456.878 212.345C456.977 212.246 457.112 212.197 457.284 212.197H458.906C459.004 212.197 459.09 212.234 459.164 212.308C459.25 212.382 459.293 212.475 459.293 212.586C459.293 212.635 459.281 212.691 459.256 212.752L455.312 224.633C455.262 224.781 455.183 224.904 455.072 225.003C454.961 225.102 454.808 225.151 454.611 225.151H452.584Z" fill="white"/>
<path d="M461.686 225.151C461.564 225.151 461.459 225.108 461.373 225.021C461.287 224.935 461.244 224.83 461.244 224.707V212.66C461.244 212.524 461.287 212.413 461.373 212.327C461.459 212.24 461.564 212.197 461.686 212.197H469.797C469.932 212.197 470.043 212.24 470.129 212.327C470.215 212.413 470.258 212.524 470.258 212.66V213.881C470.258 214.004 470.215 214.109 470.129 214.196C470.043 214.282 469.932 214.325 469.797 214.325H463.732V217.601H469.391C469.527 217.601 469.637 217.644 469.723 217.73C469.809 217.804 469.852 217.909 469.852 218.045V219.192C469.852 219.328 469.809 219.439 469.723 219.525C469.637 219.599 469.527 219.636 469.391 219.636H463.732V223.023H469.945C470.08 223.023 470.19 223.066 470.276 223.152C470.362 223.239 470.405 223.35 470.405 223.485V224.707C470.405 224.83 470.362 224.935 470.276 225.021C470.19 225.108 470.08 225.151 469.945 225.151H461.686Z" fill="white"/>
<path d="M473.153 225.151C473.03 225.151 472.926 225.108 472.84 225.021C472.754 224.935 472.711 224.83 472.711 224.707V212.66C472.711 212.524 472.754 212.413 472.84 212.327C472.926 212.24 473.03 212.197 473.153 212.197H477.927C479.414 212.197 480.588 212.542 481.448 213.233C482.308 213.924 482.738 214.93 482.738 216.25C482.738 217.163 482.511 217.921 482.056 218.526C481.614 219.13 481.018 219.568 480.268 219.84L482.96 224.559C482.997 224.633 483.015 224.701 483.015 224.762C483.015 224.873 482.972 224.966 482.886 225.04C482.812 225.114 482.726 225.151 482.628 225.151H480.95C480.742 225.151 480.582 225.095 480.471 224.984C480.361 224.873 480.275 224.762 480.213 224.651L477.835 220.265H475.273V224.707C475.273 224.83 475.23 224.935 475.144 225.021C475.07 225.108 474.966 225.151 474.831 225.151H473.153ZM475.273 218.174H477.872C478.622 218.174 479.181 218.008 479.55 217.675C479.918 217.329 480.103 216.848 480.103 216.231C480.103 215.614 479.918 215.133 479.55 214.788C479.193 214.43 478.634 214.251 477.872 214.251H475.273V218.174Z" fill="white"/>
<path d="M489.593 225.336C488.45 225.336 487.492 225.169 486.717 224.836C485.955 224.491 485.372 224.047 484.966 223.504C484.573 222.949 484.364 222.369 484.339 221.764C484.339 221.653 484.376 221.561 484.45 221.487C484.524 221.413 484.616 221.376 484.727 221.376H486.367C486.527 221.376 486.644 221.413 486.717 221.487C486.803 221.548 486.877 221.629 486.939 221.727C487.012 221.962 487.154 222.196 487.363 222.431C487.571 222.653 487.854 222.838 488.21 222.986C488.579 223.134 489.04 223.208 489.593 223.208C490.478 223.208 491.135 223.06 491.565 222.764C492.008 222.468 492.229 222.067 492.229 221.561C492.229 221.203 492.112 220.919 491.879 220.71C491.645 220.487 491.283 220.29 490.791 220.117C490.312 219.932 489.673 219.741 488.874 219.544C487.952 219.322 487.178 219.056 486.551 218.748C485.937 218.427 485.47 218.026 485.151 217.545C484.843 217.064 484.69 216.453 484.69 215.713C484.69 214.998 484.88 214.362 485.261 213.807C485.654 213.252 486.207 212.814 486.92 212.493C487.645 212.172 488.505 212.012 489.501 212.012C490.3 212.012 491.006 212.123 491.621 212.345C492.235 212.555 492.745 212.839 493.151 213.196C493.556 213.542 493.863 213.918 494.072 214.325C494.293 214.72 494.41 215.109 494.422 215.491C494.422 215.59 494.386 215.682 494.312 215.769C494.25 215.843 494.158 215.88 494.035 215.88H492.321C492.223 215.88 492.124 215.855 492.026 215.806C491.928 215.756 491.848 215.664 491.786 215.528C491.713 215.146 491.473 214.819 491.068 214.547C490.662 214.276 490.14 214.14 489.501 214.14C488.837 214.14 488.303 214.264 487.897 214.51C487.492 214.757 487.289 215.139 487.289 215.658C487.289 216.003 487.387 216.293 487.584 216.527C487.793 216.749 488.118 216.947 488.561 217.119C489.015 217.292 489.611 217.477 490.349 217.675C491.393 217.909 492.247 218.18 492.911 218.489C493.575 218.797 494.06 219.192 494.367 219.673C494.674 220.142 494.828 220.74 494.828 221.468C494.828 222.283 494.607 222.98 494.164 223.559C493.734 224.127 493.126 224.565 492.34 224.873C491.553 225.182 490.637 225.336 489.593 225.336Z" fill="white"/>
<path d="M497.383 225.151C497.26 225.151 497.156 225.108 497.069 225.021C496.983 224.935 496.94 224.83 496.94 224.707V212.66C496.94 212.524 496.983 212.413 497.069 212.327C497.156 212.24 497.26 212.197 497.383 212.197H505.494C505.629 212.197 505.739 212.24 505.825 212.327C505.911 212.413 505.954 212.524 505.954 212.66V213.881C505.954 214.004 505.911 214.109 505.825 214.196C505.739 214.282 505.629 214.325 505.494 214.325H499.429V217.601H505.088C505.223 217.601 505.334 217.644 505.42 217.73C505.506 217.804 505.549 217.909 505.549 218.045V219.192C505.549 219.328 505.506 219.439 505.42 219.525C505.334 219.599 505.223 219.636 505.088 219.636H499.429V223.023H505.641C505.776 223.023 505.887 223.066 505.973 223.152C506.059 223.239 506.102 223.35 506.102 223.485V224.707C506.102 224.83 506.059 224.935 505.973 225.021C505.887 225.108 505.776 225.151 505.641 225.151H497.383Z" fill="white"/>
</svg>
