<svg id="Layer_1" data-name="Layer 1" xmlns="http://www.w3.org/2000/svg" viewBox="0 0 200 150"><title>Sloika-Logo_Symbol-Black-RGB</title><path d="M56.25,100H150v43.75a6.25,6.25,0,0,1-6.25,6.25H55.18a12.47,12.47,0,0,1-8.83-3.65h0L3.67,103.67h0A12.47,12.47,0,0,1,0,94.82V56.25A6.25,6.25,0,0,1,6.25,50H50V93.76A6.25,6.25,0,0,0,56.25,100Zm140.1-53.65h0L153.67,3.67h0A12.47,12.47,0,0,0,144.82,0H56.25A6.25,6.25,0,0,0,50,6.25V50h93.75A6.25,6.25,0,0,1,150,56.24V100h43.75A6.25,6.25,0,0,0,200,93.75V55.18a12.47,12.47,0,0,0-3.65-8.83Z"/></svg>