<svg id="Layer_1" data-name="Layer 1" xmlns="http://www.w3.org/2000/svg" viewBox="0 0 1000 154.23"><title>Sloika-Logo_Full-Black-RGB</title><path d="M54.75,101.45H146V144a6.09,6.09,0,0,1-6.08,6.08H53.7a12.09,12.09,0,0,1-8.59-3.56h0L3.57,105h0a12.34,12.34,0,0,1-2.46-3.55,12.16,12.16,0,0,1-1.09-5V58.87a6.09,6.09,0,0,1,6.08-6.09H48.66V95.37A6.09,6.09,0,0,0,54.75,101.45ZM191.1,49.23h0L149.56,7.69h0A12.14,12.14,0,0,0,141,4.12H54.75a6.09,6.09,0,0,0-6.09,6.08V52.78h91.25A6.09,6.09,0,0,1,146,58.86v42.59h42.58a6.09,6.09,0,0,0,6.08-6.09V57.82a12.14,12.14,0,0,0-3.55-8.59Zm244.26,67.32a15.73,15.73,0,0,1-5.3-12.36V4.12H399.45V106q0,20,12.21,32.08t31.94,12.07H476V121.27H448.9Q440.65,121.26,435.36,116.55Zm197-39.43c0,45.32-35,76.52-78,76.52-43.27,0-78.59-31.2-78.59-76.52S511.09.88,554.36.88C597.33.88,632.36,31.79,632.36,77.12Zm-29.73,0c0-30.32-23.25-50-48.27-50-25.61,0-48.56,19.72-48.56,50s22.95,50,48.56,50C579.38,127.15,602.63,107.43,602.63,77.12Zm50.71,73H684V4.12H653.34ZM1000,4.12v146H969.1V133.63c-13,13-30.91,20.6-53,20.6-38,0-72.41-30.91-72.41-77.11C843.71,31.2,878.15,0,916.12,0c22.07,0,40,7.65,53,20.9V4.12Zm-30.9,73c0-30.62-23.85-50-48-50-26.78,0-47.68,19.42-47.68,50,0,30.9,20.9,50,47.68,50C945.25,127.15,969.1,108,969.1,77.12ZM783.45,72.83,850.24,4.12H812.11l-53.58,55H742.06v-55H711.45v146h30.61V89.48h17.06l59.17,60.63h40.49L783.45,76.59ZM344.2,67.7,309.47,60c-13-2.94-17.66-8.24-17.66-16.48,0-10.3,7.94-19.13,25.9-19.13,18.83,0,30.9,9.71,33.26,23.84H381C378.13,18.21,352.07,0,318.59,0c-35,0-57.69,19.13-57.69,46.21,0,20.6,14.42,34.14,39.74,39.73l31.78,6.48c13.54,2.94,19.72,8.54,19.72,17.36,0,11.48-11.18,19.43-28.84,19.43-19.13,0-34.44-7.36-36.5-24.72H255.89c0,35.51,32.09,49.74,64.76,49.74,36.5,0,61.51-16.48,61.51-47.09C382.16,86.53,367.74,72.7,344.2,67.7Z"/></svg>