<svg width="1000" height="1000" viewBox="0 0 1000 1000" fill="none" xmlns="http://www.w3.org/2000/svg">
<path d="M825.89 479.6H712.28V637.3H825.89V479.6Z" fill="#FFC800"/>
<path d="M336.25 400.77C336.25 422.54 345.66 442.25 360.89 456.51C377.074 471.486 398.351 479.741 420.4 479.6H552.84V637.3H420.4C281 637.3 167.92 531.4 167.92 400.77C167.92 270.14 281 164.21 420.4 164.21H825.89V321.91H420.4C398.351 321.771 377.075 330.026 360.89 345C345.66 359.28 336.25 379 336.25 400.77Z" fill="#FFC800"/>
<path d="M239.4 685.46H213.15V802.32H194V685.46H167.76V674.52H239.4V685.46Z" fill="#FFC800"/>
<path d="M239.49 717.82C240.093 714.276 241.602 710.949 243.87 708.16C246.119 705.587 249.064 703.719 252.35 702.78C256.742 701.576 261.287 701.023 265.84 701.14H284.84V712.08H272.4C269.737 712.018 267.076 712.263 264.47 712.81C262.642 713.187 260.999 714.183 259.82 715.63C258.587 717.391 257.804 719.427 257.54 721.56C257.072 724.818 256.861 728.109 256.91 731.4V802.32H238.31V732.13C238.24 727.333 238.635 722.541 239.49 717.82V717.82Z" fill="#FFC800"/>
<path d="M311.41 842.42L322.72 804.5L290.63 701.14H309.77L331.47 783.36L354.47 701.14H371.97L329.28 842.42H311.41Z" fill="#FFC800"/>
<path d="M400.56 769.32C400.56 776.74 401.653 782.27 403.84 785.91C406.027 789.55 409.61 791.373 414.59 791.38H446.31V802.32H408.76C398.92 802.32 391.9 799.403 387.7 793.57C383.5 787.737 381.403 779.653 381.41 769.32V708.43C381.41 697.623 383.507 689.27 387.7 683.37C391.893 677.47 398.913 674.52 408.76 674.52H446V685.46H414.59C409.61 685.46 406.027 687.07 403.84 690.29C401.653 693.51 400.56 699.557 400.56 708.43V769.32Z" fill="#FFC800"/>
<path d="M460.26 717.82C460.864 714.278 462.369 710.952 464.63 708.16C466.879 705.587 469.824 703.719 473.11 702.78C477.502 701.576 482.047 701.023 486.6 701.14H505.6V712.08H493.2C490.537 712.018 487.876 712.263 485.27 712.81C483.443 713.189 481.801 714.185 480.62 715.63C479.385 717.389 478.605 719.426 478.35 721.56C477.873 724.817 477.658 728.108 477.71 731.4V802.32H459.11V732.13C459.029 727.334 459.415 722.542 460.26 717.82V717.82Z" fill="#FFC800"/>
<path d="M532.18 842.42L543.48 804.5L511.39 701.14H530.53L552.23 783.36L575.23 701.14H592.73L550 842.42H532.18Z" fill="#FFC800"/>
<path d="M646.29 791.38C648.953 791.443 651.614 791.198 654.22 790.65C656.053 790.279 657.698 789.278 658.87 787.82C660.109 786.066 660.893 784.032 661.15 781.9C661.628 778.639 661.842 775.345 661.79 772.05V731.4C661.841 728.108 661.628 724.817 661.15 721.56C660.892 719.425 660.109 717.388 658.87 715.63C657.692 714.181 656.049 713.184 654.22 712.81C651.614 712.262 648.953 712.017 646.29 712.08H622.23V842.42H603.63V701.14H652.86C657.413 701.024 661.958 701.577 666.35 702.78C669.633 703.719 672.574 705.588 674.82 708.16C677.088 710.949 678.597 714.276 679.2 717.82C680.055 722.541 680.45 727.333 680.38 732.13V771.33C680.458 776.157 680.063 780.98 679.2 785.73C678.585 789.243 677.077 792.538 674.82 795.3C672.571 797.869 669.631 799.737 666.35 800.68C661.958 801.883 657.413 802.436 652.86 802.32H632.26V791.38H646.29Z" fill="#FFC800"/>
<path d="M738.54 712.08H713.2V776.61C713.2 782.45 714.02 786.37 715.66 788.37C717.3 790.37 720.49 791.37 725.23 791.37H733.43V802.31H717.75C714 802.412 710.265 801.791 706.75 800.48C703.981 799.419 701.533 797.662 699.64 795.38C697.83 793.098 696.528 790.456 695.82 787.63C694.998 784.446 694.598 781.168 694.63 777.88V674.52H713.23V701.14H738.57L738.54 712.08Z" fill="#FFC800"/>
<path d="M798.51 701.14C803.063 701.023 807.608 701.576 812 702.78C815.286 703.719 818.23 705.587 820.48 708.16C822.745 710.949 824.25 714.277 824.85 717.82C825.695 722.542 826.081 727.334 826 732.13V771.33C826.075 776.157 825.677 780.98 824.81 785.73C824.198 789.242 822.693 792.538 820.44 795.3C818.188 797.869 815.244 799.737 811.96 800.68C807.568 801.884 803.023 802.437 798.47 802.32H774.08C769.527 802.435 764.982 801.883 760.59 800.68C757.309 799.737 754.369 797.869 752.12 795.3C749.863 792.538 748.355 789.243 747.74 785.73C746.877 780.98 746.482 776.157 746.56 771.33V732.13C746.49 727.333 746.885 722.541 747.74 717.82C748.343 714.276 749.852 710.949 752.12 708.16C754.366 705.588 757.307 703.719 760.59 702.78C764.982 701.577 769.527 701.025 774.08 701.14H798.51ZM765.15 772.05C765.098 775.345 765.312 778.639 765.79 781.9C766.047 784.032 766.831 786.066 768.07 787.82C769.242 789.278 770.887 790.279 772.72 790.65C775.326 791.198 777.987 791.443 780.65 791.38H792C794.663 791.442 797.324 791.197 799.93 790.65C801.76 790.271 803.403 789.272 804.58 787.82C805.815 786.064 806.598 784.031 806.86 781.9C807.333 778.639 807.547 775.345 807.5 772.05V731.4C807.546 728.108 807.332 724.818 806.86 721.56C806.596 719.427 805.813 717.391 804.58 715.63C803.399 714.185 801.757 713.189 799.93 712.81C797.324 712.263 794.663 712.018 792 712.08H780.7C778.037 712.017 775.376 712.262 772.77 712.81C770.941 713.184 769.298 714.181 768.12 715.63C766.881 717.388 766.098 719.425 765.84 721.56C765.363 724.817 765.148 728.108 765.2 731.4L765.15 772.05Z" fill="#FFC800"/>
</svg>
