<?xml version="1.0" encoding="UTF-8"?><svg xmlns="http://www.w3.org/2000/svg" viewBox="0 0 1497.43 690"><defs><style>.d{fill:none;}</style></defs><g id="a"/><g id="b"/><g id="c"><g><rect class="d" x="636.21" y="637.71" width="53.39" height="14.83"/><rect class="d" x="753.17" y="637.71" width="53.39" height="14.83"/><polygon class="d" points="748.25 527.95 748.24 527.95 748.24 520.74 694.52 520.74 694.52 527.95 694.52 527.95 694.52 535.57 748.25 535.57 748.25 527.95"/><rect class="d" x="753.17" y="657.47" width="53.39" height="14.84"/><rect class="d" x="636.21" y="657.47" width="53.39" height="14.84"/><path class="d" d="M419.29,615.76c5.26,5.26,11.39,9.46,18.22,12.49,6.79,3.01,14.08,4.53,21.66,4.53h55.85c7.57,0,14.86-1.52,21.66-4.53,6.83-3.03,12.96-7.23,18.22-12.49,5.26-5.26,9.53-11.4,12.68-18.25,3.11-6.78,4.69-14.06,4.69-21.63v-144.71c0-7.11-1.52-14.16-4.53-20.96-3.03-6.83-7.17-12.97-12.33-18.24-5.16-5.26-11.3-9.58-18.25-12.84-6.9-3.23-14.35-4.86-22.14-4.86h-55.85c-7.79,0-15.24,1.64-22.14,4.86-6.95,3.25-13.09,7.57-18.25,12.84-5.15,5.26-9.3,11.4-12.33,18.24-3.01,6.8-4.53,13.85-4.53,20.96v144.71c0,7.58,1.58,14.85,4.69,21.62,3.14,6.85,7.4,12.99,12.67,18.25Zm89.54-170.82c2.66,0,5.62,5.66,5.62,13.79s-2.96,13.79-5.62,13.79-5.62-5.66-5.62-13.79,2.96-13.79,5.62-13.79Zm-43.1,0c2.66,0,5.62,5.66,5.62,13.79s-2.96,13.79-5.62,13.79-5.62-5.66-5.62-13.79,2.96-13.79,5.62-13.79Zm-37.48,45.41h3.63v1.07c0,30.96,24.85,56.14,55.4,56.14s55.4-25.19,55.4-56.14v-1.07h3.63v1.07c0,32.96-26.48,59.77-59.03,59.77s-59.03-26.81-59.03-59.77v-1.07Z"/><path class="d" d="M538.68,632.75c-7.43,3.29-15.39,4.95-23.65,4.95h-55.85c-8.27,0-16.23-1.67-23.65-4.95-7.39-3.27-14.03-7.82-19.71-13.51-5.69-5.68-10.29-12.3-13.67-19.68-.02-.05-.04-.11-.07-.16,.44,6.22,1.95,12.22,4.55,17.87,3.14,6.85,7.41,12.99,12.67,18.26s11.4,9.46,18.22,12.48c6.8,3.01,14.09,4.53,21.66,4.53h55.85c7.57,0,14.86-1.52,21.66-4.53,6.83-3.02,12.96-7.22,18.22-12.48,5.27-5.28,9.54-11.42,12.67-18.26,2.6-5.65,4.11-11.64,4.55-17.86-.02,.05-.04,.1-.07,.16-3.39,7.38-7.99,14.01-13.67,19.68-5.69,5.69-12.32,10.23-19.71,13.51Z"/><path class="d" d="M558.39,639.01c-5.69,5.7-12.33,10.24-19.72,13.51-7.43,3.29-15.39,4.95-23.65,4.95h-55.85c-8.26,0-16.22-1.67-23.65-4.95-7.39-3.27-14.02-7.81-19.72-13.5s-10.28-12.3-13.66-19.69c-.03-.06-.05-.11-.07-.17,.44,6.23,1.95,12.23,4.55,17.88,3.14,6.86,7.41,12.99,12.67,18.25,5.25,5.25,11.38,9.46,18.23,12.49,6.8,3,14.09,4.53,21.66,4.53h55.85c7.57,0,14.86-1.52,21.66-4.53,6.85-3.04,12.98-7.24,18.22-12.49,5.27-5.27,9.54-11.41,12.67-18.25,2.6-5.66,4.12-11.66,4.55-17.89-.03,.06-.05,.12-.07,.17-3.38,7.36-7.97,13.98-13.66,19.68Z"/><path class="d" d="M806.34,481.18s-.04,.09-.06,.13c-3.42,6.46-7.21,11.54-11.27,15.1-3,2.64-6.79,4.99-11.3,7.02,3.92,2.18,7.29,4.55,10.07,7.08,2.87-3,5.6-6.93,8.13-11.74,2.45-4.62,3.92-10.53,4.43-17.59Z"/><rect class="d" x="694.52" y="540.5" width="53.72" height="14.84"/><rect class="d" x="768.28" y="200.16" width="53.73" height="14.96"/><rect class="d" x="709.97" y="317.13" width="53.38" height="14.95"/><rect class="d" x="768.28" y="82.84" width="82.88" height="14.96"/><polygon class="d" points="768.28 195.23 822 195.23 822 188.07 822 180.28 768.28 180.28 768.28 195.23"/><path class="d" d="M791.64,515.28c-3.63-3.63-8.65-6.95-14.93-9.87l-5.45-2.54,5.66-2.02c6.23-2.22,11.22-4.96,14.83-8.13,3.61-3.17,7.03-7.78,10.16-13.7,3.07-5.82,4.63-13.64,4.63-23.26v-25.29c0-8.32-1.31-16.06-3.89-23.03-2.56-6.88-6.32-12.85-11.2-17.73-4.89-4.89-10.82-8.72-17.6-11.39-6.82-2.68-14.62-4.04-23.16-4.04h-114.5v258.51h53.38v-116.97h63.59v116.97h53.38v-79.03c0-9.62-1.56-17.58-4.65-23.64-3.16-6.19-6.61-11.18-10.26-14.83Zm-38.47-24.39h-63.59v-92.74h63.59v92.74Z"/><rect class="d" x="694.52" y="422.84" width="53.72" height="14.83"/><path class="d" d="M797.22,514.05c1.43,1.64,2.82,3.46,4.17,5.46,.17-.32,.36-.64,.53-.96,2.45-4.63,3.92-10.55,4.43-17.62-.02,.05-.05,.1-.07,.15-2.78,5.27-5.82,9.62-9.06,12.97Z"/><rect class="d" x="694.52" y="403.07" width="53.73" height="14.84"/><rect class="d" x="694.52" y="442.6" width="53.72" height="43.36"/><rect class="d" x="709.97" y="297.25" width="53.38" height="14.95"/><path class="d" d="M150.28,638.97c-5.48,5.72-12.13,10.28-19.78,13.55-7.66,3.28-16.2,4.94-25.38,4.94h-24.58c-8.72,0-17.02-1.66-24.68-4.94-7.64-3.27-14.4-7.75-20.07-13.33-4.51-4.41-8.29-9.47-11.3-15.05,.64,6.27,1.41,11.29,2.28,13.27,3.02,6.83,7.22,12.89,12.47,18.03,5.24,5.14,11.49,9.28,18.57,12.32,7.04,3.01,14.69,4.54,22.74,4.54h24.58c8.51,0,16.4-1.53,23.44-4.54,7.05-3.03,13.16-7.21,18.16-12.44,5.02-5.24,8.99-11.36,11.79-18.19,2.15-5.26,3.47-10.81,3.97-16.56-3,6.86-7.09,13.05-12.2,18.39Z"/><path class="d" d="M75.61,398.14h25.65c11.79,0,21.13,2.86,27.76,8.49,6.19,5.26,9.59,12.44,10.11,21.37h23.89c-.29-6.69-1.8-13.14-4.48-19.19-3.01-6.81-7.2-12.81-12.45-17.83-5.27-5.04-11.47-9.13-18.42-12.17-6.92-3.01-14.38-4.54-22.2-4.54h-24.94c-8.06,0-15.72,1.47-22.77,4.38-7.06,2.92-13.29,7-18.53,12.13-5.25,5.14-9.45,11.21-12.47,18.03-3.01,6.8-4.53,14.32-4.53,22.36v21.08c0,5.81,2.05,11.92,6.1,18.15,4.24,6.53,9.58,13.21,15.88,19.85,6.34,6.7,13.38,13.44,20.91,20.04,7.55,6.62,14.66,13.08,21.14,19.2,6.5,6.15,12.01,12.09,16.4,17.66,4.73,6.01,7.03,11.28,7.03,16.1v19.63s0,.09,0,.13v23.09h0v2.46h-29.16c-9.99,0-18.19-3.07-24.38-9.14-5.66-5.54-8.77-12.62-9.27-21.07H22.28c.07,1.65,.21,3.27,.42,4.87l.11,.12v.67c.69,4.84,2.01,9.49,3.95,13.88,3.02,6.83,7.21,12.89,12.47,18.03,5.24,5.14,11.49,9.28,18.57,12.32,7.04,3.01,14.69,4.54,22.74,4.54h24.59c8.52,0,16.4-1.53,23.44-4.54,7.04-3.02,13.15-7.2,18.16-12.44,5.03-5.24,8.99-11.37,11.8-18.2,2.77-6.77,4.19-14.04,4.2-21.59v-1.79h0v-19.76c0-6.54-2.07-13.39-6.16-20.35-4.23-7.2-9.57-14.39-15.86-21.37-6.34-7.03-13.31-14-20.72-20.72-7.38-6.69-14.42-13.14-20.92-19.16-6.46-5.99-11.96-11.54-16.33-16.51-4.78-5.43-7.11-10.1-7.11-14.27v-43.91Z"/><path class="d" d="M134.26,450.23c0-8.69-2.76-15.25-8.44-20.08-5.71-4.85-13.98-7.31-24.57-7.31h-20.71v14.83h20.71c11.78,0,21.12,2.86,27.76,8.49,2.06,1.75,3.81,3.72,5.25,5.9v-1.84Z"/><rect class="d" x="446.53" y="317.13" width="24.22" height="14.95"/><path class="d" d="M125.83,410.39c-5.72-4.86-13.99-7.32-24.57-7.32h-20.72v14.84h20.71c11.79,0,21.13,2.85,27.76,8.48,2.07,1.75,3.81,3.73,5.25,5.9v-1.83c0-8.68-2.76-15.25-8.44-20.07Z"/><path class="d" d="M82.88,533.06c-6.44-6.08-13.5-12.5-21.01-19.08-7.64-6.7-14.79-13.55-21.24-20.35-6.5-6.85-12.04-13.77-16.44-20.55-.71-1.09-1.35-2.19-1.95-3.28,0,.3-.02,.6-.02,.9v1.3c0,5.82,2.05,11.92,6.1,18.16,4.23,6.51,9.57,13.19,15.88,19.85,6.37,6.71,13.4,13.45,20.91,20.04,7.44,6.52,14.56,12.97,21.15,19.19,6.51,6.17,12.02,12.1,16.39,17.65,.77,.98,1.46,1.93,2.1,2.87v-6.52c0-3.62-2.01-8.02-5.97-13.05-4.24-5.38-9.59-11.14-15.91-17.12Z"/><polygon class="d" points="475.69 166.56 475.69 179.64 635.78 332.08 646.38 332.08 646.38 317.13 633.81 317.13 475.69 166.56"/><polygon class="d" points="446.53 51.22 446.53 71.11 446.53 292.32 470.76 292.32 470.76 174.95 470.76 155.07 470.76 155.07 470.76 135.19 635.78 292.32 646.38 292.32 646.38 71.11 646.38 51.22 646.38 51.22 646.38 33.81 621.81 33.81 621.81 189.5 456.79 33.81 446.53 33.81 446.53 51.22 446.53 51.22"/><path class="d" d="M98.79,569.94c-4.23-5.36-9.58-11.12-15.91-17.12-6.54-6.17-13.61-12.59-21.01-19.07-7.62-6.69-14.77-13.54-21.24-20.36-6.51-6.87-12.04-13.79-16.44-20.55-.72-1.1-1.36-2.21-1.97-3.31v2.24c0,5.81,2.05,11.92,6.1,18.16,4.23,6.52,9.58,13.19,15.88,19.83,6.37,6.72,13.4,13.46,20.91,20.04,7.61,6.68,14.73,13.14,21.15,19.21,6.51,6.17,12.02,12.11,16.39,17.65,.77,.98,1.46,1.93,2.1,2.86v-6.59c-.02-3.61-2.03-7.98-5.97-13Z"/><path class="d" d="M139.12,467.53h23.9c-.23-5.12-1.16-10.09-2.79-14.84h-25.56c2.63,4.21,4.12,9.18,4.45,14.84Z"/><path class="d" d="M130.5,632.76c-7.65,3.28-16.19,4.94-25.38,4.94h-24.59c-8.72,0-17.02-1.66-24.68-4.94-7.64-3.28-14.4-7.76-20.07-13.33-4.82-4.71-8.8-10.15-11.9-16.18,.77,6.43,1.76,11.88,2.88,14.4,3.02,6.82,7.22,12.89,12.47,18.02,5.24,5.15,11.49,9.29,18.56,12.32,7.04,3.01,14.7,4.54,22.74,4.54h24.58c8.51,0,16.4-1.53,23.44-4.54,7.04-3.01,13.15-7.19,18.16-12.43,5.03-5.25,8.99-11.38,11.79-18.2,2.15-5.25,3.47-10.8,3.97-16.55-3,6.86-7.09,13.05-12.21,18.39-5.47,5.71-12.12,10.28-19.78,13.56Z"/><rect class="d" x="313.77" y="423.18" width="53.72" height="14.84"/><rect class="d" x="255.45" y="657.47" width="53.39" height="14.84"/><polygon class="d" points="475.69 146.68 475.69 159.76 635.78 312.2 646.38 312.2 646.38 297.25 633.81 297.25 475.69 146.68"/><polygon class="d" points="255.46 632.78 308.83 632.78 308.83 398.49 367.49 398.49 367.49 391.57 367.49 391.57 367.49 374.27 196.8 374.27 196.8 398.49 255.46 398.49 255.46 632.78"/><polygon class="d" points="313.76 418.26 367.49 418.26 367.49 411.34 367.49 403.42 313.76 403.42 313.76 418.26"/><rect class="d" x="196.79" y="423.18" width="53.73" height="14.84"/><rect class="d" x="446.53" y="297.25" width="24.22" height="14.95"/><polygon class="d" points="250.53 418.26 250.53 403.42 196.79 403.42 196.79 411.34 196.79 418.26 250.53 418.26"/><rect class="d" x="255.45" y="637.71" width="53.39" height="14.83"/><path class="d" d="M139.12,447.76h23.9c-.23-5.12-1.16-10.09-2.78-14.84h-25.56c2.62,4.21,4.11,9.17,4.44,14.84Z"/><path class="d" d="M1251.19,468.23h23.86c-.26-5.01-1.32-9.99-3.14-14.84h-23.72c1.76,4.21,2.77,9.17,2.99,14.84Z"/><rect class="d" x="1192.23" y="540.15" width="24.58" height="14.84"/><path class="d" d="M1158.15,605.73h0v-187.48h0v-19.76h67.09c8.01,0,14.45,2.97,19.14,8.83,4.18,5.23,6.47,12.41,6.82,21.38h23.86c-.32-6.26-1.88-12.46-4.63-18.46-3.15-6.84-7.46-12.97-12.83-18.23-5.39-5.28-11.67-9.61-18.64-12.88-6.9-3.23-14.11-4.86-21.44-4.86h-55.85c-7.79,0-15.24,1.64-22.14,4.86-6.96,3.25-13.09,7.63-18.23,13-5.16,5.38-9.25,11.57-12.16,18.4-2.9,6.8-4.37,13.86-4.37,20.99v19.77h0v124.29c0,7.82,1.48,15.29,4.37,22.19,2.9,6.93,6.98,13.05,12.11,18.18,5.13,5.14,11.21,9.28,18.05,12.31,6.8,3.01,14.32,4.53,22.36,4.53h56.2c8.51,0,16.32-1.58,23.22-4.7,6.95-3.14,13.02-7.33,18.05-12.47,5.01-5.12,8.97-11.23,11.77-18.17,2.79-6.93,4.21-14.3,4.21-21.91v-85h-82.88v24.93h29.5v92.74h-63.58v-2.47Z"/><path class="d" d="M1225.24,403.42h-62.17v14.83h62.17c8.01,0,14.44,2.97,19.13,8.83,.69,.87,1.31,1.8,1.9,2.78-.18-8.34-2.1-14.9-5.75-19.47-3.76-4.69-8.76-6.98-15.29-6.98Z"/><rect class="d" x="943.9" y="317.13" width="53.39" height="14.95"/><polygon class="d" points="1216.81 535.22 1216.81 520.39 1192.23 520.39 1192.23 527.6 1192.23 535.22 1216.81 535.22"/><polygon class="d" points="768.28 77.91 851.16 77.91 851.16 71.11 851.16 62.96 768.28 62.96 768.28 77.91"/><path class="d" d="M1139.31,648.01c6.8,3.01,14.32,4.53,22.36,4.53h56.2c8.53,0,16.34-1.58,23.21-4.69,6.95-3.14,13.03-7.33,18.05-12.47,5.01-5.12,8.97-11.24,11.77-18.17,2.13-5.29,3.46-10.83,3.97-16.53-3,6.96-7.1,13.14-12.22,18.38-5.45,5.58-12.03,10.13-19.54,13.52-7.54,3.41-16.03,5.14-25.25,5.14h-56.2c-8.73,0-16.93-1.67-24.36-4.95-7.4-3.28-13.97-7.76-19.54-13.33-5.36-5.36-9.64-11.7-12.77-18.84,.52,5.92,1.89,11.6,4.14,16.94,2.9,6.93,6.97,13.05,12.12,18.18,5.12,5.14,11.19,9.28,18.04,12.31Z"/><rect class="d" x="1002.21" y="82.84" width="53.73" height="14.96"/><path class="d" d="M1262.66,638.82c-5.46,5.58-12.03,10.13-19.55,13.52-7.52,3.4-16.01,5.13-25.24,5.13h-56.2c-8.73,0-16.92-1.67-24.35-4.95-7.41-3.28-13.98-7.76-19.54-13.33-5.37-5.36-9.65-11.7-12.77-18.85,.51,5.93,1.89,11.62,4.14,16.96,2.9,6.94,6.98,13.05,12.12,18.18,5.12,5.13,11.2,9.27,18.05,12.31,6.8,3,14.32,4.53,22.36,4.53h56.2c8.51,0,16.32-1.58,23.22-4.69,6.96-3.15,13.03-7.35,18.05-12.48,5.01-5.12,8.97-11.23,11.77-18.16,2.13-5.29,3.46-10.83,3.97-16.54-3,6.96-7.09,13.14-12.22,18.38Z"/><path class="d" d="M1240.53,430.17c-3.76-4.7-8.75-6.98-15.28-6.98h-62.17v14.84h62.17c8.01,0,14.45,2.97,19.13,8.82,.69,.87,1.31,1.81,1.9,2.78-.18-8.34-2.1-14.9-5.75-19.46Z"/><polygon class="d" points="1392.43 488.42 1392.43 488.42 1392.43 438.03 1392.43 418.26 1392.43 418.26 1392.43 398.49 1480.24 398.49 1480.24 391.57 1480.24 391.57 1480.24 374.27 1339.05 374.27 1339.05 391.57 1339.05 391.57 1339.05 411.34 1339.05 632.78 1480.24 632.78 1480.24 625.49 1480.24 625.49 1480.24 608.2 1392.43 608.2 1392.43 605.73 1392.43 605.73 1392.43 555.35 1392.43 535.57 1392.43 535.57 1392.43 527.95 1392.43 527.95 1392.43 518.28 1392.43 518.28 1392.43 515.81 1451.09 515.81 1451.09 508.18 1451.09 490.88 1392.43 490.88 1392.43 488.42"/><polygon class="d" points="1397.36 535.57 1451.09 535.57 1451.09 527.95 1451.09 520.74 1397.36 520.74 1397.36 535.57"/><rect class="d" x="1397.36" y="540.5" width="53.73" height="14.84"/><path class="d" d="M1251.19,448.46h23.86c-.26-5.01-1.31-9.98-3.14-14.83h-23.71c1.76,4.2,2.77,9.16,2.99,14.83Z"/><polygon class="d" points="1397.36 418.26 1480.24 418.26 1480.24 411.34 1480.24 403.42 1397.36 403.42 1397.36 418.26"/><rect class="d" x="1397.36" y="423.18" width="82.88" height="14.84"/><polygon class="d" points="1339.05 652.54 1480.24 652.54 1480.24 645.27 1480.24 637.71 1339.05 637.71 1339.05 652.54"/><rect class="d" x="1339.05" y="657.47" width="141.19" height="14.84"/><polygon class="d" points="1002.21 62.96 1002.21 77.91 1055.94 77.91 1055.94 71.11 1055.94 62.96 1002.21 62.96"/><rect class="d" x="987.45" y="657.47" width="53.73" height="14.84"/><rect class="d" x="987.45" y="637.71" width="53.73" height="14.83"/><rect class="d" x="929.85" y="540.5" width="52.68" height="14.84"/><rect class="d" x="929.85" y="422.84" width="52.68" height="14.83"/><rect class="d" x="929.85" y="442.6" width="52.68" height="43.36"/><polygon class="d" points="709.97 292.32 763.35 292.32 763.35 215.12 763.35 195.23 763.35 195.23 763.35 188.07 763.35 188.07 763.35 177.82 763.35 177.82 763.35 175.35 822 175.35 822 168.19 822.01 168.19 822.01 150.78 763.35 150.78 763.35 148.31 763.35 148.31 763.35 97.8 763.35 77.91 763.35 77.91 763.35 58.04 851.16 58.04 851.16 51.22 851.16 51.22 851.16 33.81 709.97 33.81 709.97 51.22 709.97 71.11 709.97 292.32"/><rect class="d" x="885.24" y="82.84" width="53.73" height="14.96"/><rect class="d" x="929.85" y="403.07" width="52.68" height="14.84"/><rect class="d" x="871.54" y="637.71" width="53.38" height="14.83"/><polygon class="d" points="929.85 520.74 929.85 535.57 982.53 535.57 982.53 527.95 982.52 527.95 982.52 520.74 929.85 520.74"/><rect class="d" x="871.54" y="657.47" width="53.38" height="14.84"/><polygon class="d" points="943.9 292.32 997.28 292.32 997.28 58.04 1055.94 58.04 1055.94 33.81 885.24 33.81 885.24 58.04 943.9 58.04 943.9 292.32"/><rect class="d" x="943.9" y="297.25" width="53.39" height="14.95"/><polygon class="d" points="938.97 77.91 938.97 62.96 885.24 62.96 885.24 71.11 885.24 77.91 938.97 77.91"/><path class="d" d="M1022.1,391.67c-5.51-5.28-11.84-9.55-18.8-12.7-6.91-3.12-13.77-4.7-20.41-4.7h-54.09c-6.4,0-13.09,1.58-19.87,4.69-6.87,3.16-13.15,7.38-18.66,12.55-5.5,5.16-10.05,11.31-13.53,18.27-3.44,6.88-5.18,14.07-5.18,21.38v19.76h0v181.85h53.38v-97.2h0v-7.63h0v-9.67h0v-2.46h62.53v116.97h53.73v-181.85h0v-19.76c0-7.28-1.8-14.4-5.34-21.16-3.6-6.87-8.23-13.04-13.75-18.33Zm-34.64,99.21h-62.53v-2.46h0v-70.51h0v-19.77h62.53v92.74Z"/><path d="M441.61,317.13v19.88h34.08v-39.76h0v-110.8l158.12,150.57h17.5v-39.76h0V28.88h-34.43v22.34h0v126.85L458.75,28.88h-17.14V297.25h0v19.88Zm29.15,14.95h-24.22v-14.95h24.22v14.95Zm0-19.88h-24.22v-14.95h24.22v14.95Zm175.62,19.88h-10.6l-160.1-152.44v-13.08l158.12,150.57h12.57v14.95Zm0-19.88h-10.6l-160.1-152.44v-13.08l158.12,150.56h12.57v14.95ZM456.79,33.81l165.02,155.69V33.81h24.58v17.41h0v241.1h-10.6l-165.02-157.13v19.88h0v137.25h-24.22V51.22h0v-17.41h10.26Z"/><path d="M705.04,51.22V337.01h63.23v-39.76h0v-77.2h58.65v-39.76h0v-34.43h-58.66v-43.12h87.81V62.96h0V28.88h-151.05v22.34Zm58.3,280.86h-53.38v-14.95h53.38v14.95Zm0-19.88h-53.38v-14.95h53.38v14.95Zm58.66-97.08h-53.73v-14.96h53.73v14.96Zm0-27.04v7.15h-53.73v-14.95h53.73v7.79Zm29.15-90.28h-82.88v-14.96h82.88v14.96Zm0-26.69v6.8h-82.88v-14.95h82.88v8.15Zm-141.19-37.3h141.19v17.41h0v6.82h-87.81v19.87h0v70.4h0v2.46h58.66v17.42h0v7.16h-58.65v2.47h0v10.25h0v7.15h0v97.09h-53.38V33.81Z"/><path d="M1060.87,28.88h-180.55v22.34h0v51.51h58.66v234.28h63.24V102.73h58.66V51.22h0V28.88Zm-175.62,4.93h170.7v24.23h-58.66v234.28h-53.38V58.04h-58.66v-24.23Zm58.66,263.44h53.39v14.95h-53.39v-14.95Zm-58.66-234.28h53.74v14.95h-53.74v-14.95Zm0,34.83v-14.96h53.73v14.96h-53.73Zm112.04,234.28h-53.39v-14.95h53.39v14.95Zm58.66-234.28h-53.73v-14.96h53.73v14.96Zm0-19.89h-53.73v-14.95h53.73v14.95Z"/><path d="M1485.17,442.95v-39.53h0v-34.08h-151.05v268.37h0v39.53h151.04v-39.53h0v-34.43h-87.81v-43h58.66v-74.32h-58.66v-43h87.81Zm-4.93-4.93h-82.88v-14.84h82.88v14.84Zm0-26.69v6.92h-82.88v-14.83h82.88v7.92Zm0,260.97h-141.19v-14.84h141.19v14.84Zm0-27.04v7.27h-141.19v-14.83h141.19v7.56Zm-29.15-89.92h-53.73v-14.84h53.73v14.84Zm0-27.4v7.63h-53.73v-14.83h53.73v7.21Zm0-37.06v24.93h-58.66v2.46h0v9.67h0v7.63h0v70.16h0v2.47h87.81v17.29h0v7.28h-141.19v-241.21h0v-17.3h141.19v17.3h0v6.93h-87.81v19.76h0v70.17h0v2.46h58.66Z"/><path d="M149.5,387.41c-5.69-5.44-12.37-9.86-19.86-13.12-7.54-3.28-15.67-4.95-24.17-4.95h-24.94c-8.7,0-17,1.6-24.65,4.75-7.64,3.16-14.41,7.59-20.1,13.16-5.7,5.58-10.25,12.16-13.53,19.56-3.29,7.43-4.95,15.62-4.95,24.36v19.76h0v40.84c0,6.78,2.32,13.79,6.89,20.84,4.4,6.77,9.93,13.69,16.44,20.54,6.47,6.83,13.62,13.68,21.24,20.36,7.57,6.64,14.64,13.06,21.01,19.08,6.33,6,11.68,11.76,15.91,17.12,3.95,5.02,5.95,9.39,5.97,13v.92h-24.23c-8.78,0-15.62-2.53-20.93-7.73-5.29-5.18-7.87-11.73-7.87-20.02v-2.46H17.3v1.43h0v8.83c0,6.35,1.43,47.77,4.95,55.73,3.28,7.4,7.83,13.98,13.53,19.56,5.68,5.56,12.43,10.05,20.07,13.33,7.66,3.28,15.96,4.94,24.68,4.94h24.58c9.18,0,17.72-1.66,25.38-4.94,7.67-3.29,14.32-7.85,19.78-13.56,5.45-5.69,9.76-12.33,12.79-19.73,3.03-7.41,4.57-15.35,4.57-23.59v-39.41s0-.08,0-.12v-21.43c0-7.43-2.3-15.12-6.84-22.85-4.4-7.48-9.93-14.94-16.45-22.18-6.45-7.15-13.54-14.24-21.07-21.07-7.37-6.68-14.4-13.11-20.88-19.12-6.34-5.88-11.72-11.31-15.98-16.16-3.61-4.1-5.6-7.69-5.83-10.47h20.67c10.58,0,18.85,2.46,24.57,7.32,5.68,4.82,8.44,11.39,8.44,20.08v2.46h33.73v-2.46c0-5.96-.88-11.76-2.59-17.31h2.59v-2.46c0-5.96-.88-11.76-2.59-17.3h2.59v-2.46c0-8.27-1.67-16.22-4.95-23.65-3.28-7.4-7.83-13.93-13.55-19.4Zm-44.74,182.35c-.64-.94-1.34-1.89-2.1-2.87-4.37-5.55-9.89-11.49-16.39-17.65-6.59-6.22-13.71-12.68-21.15-19.19-7.51-6.59-14.54-13.33-20.91-20.04-6.31-6.66-11.65-13.33-15.88-19.85-4.05-6.23-6.1-12.34-6.1-18.16v-1.3c0-.3,.02-.6,.02-.9,.6,1.09,1.24,2.18,1.95,3.28,4.4,6.78,9.93,13.7,16.44,20.55,6.45,6.81,13.59,13.65,21.24,20.35,7.5,6.58,14.57,13,21.01,19.08,6.32,5.98,11.68,11.74,15.91,17.12,3.96,5.04,5.97,9.43,5.97,13.05v6.52Zm-2.1,16.91c-4.37-5.55-9.89-11.49-16.39-17.65-6.42-6.07-13.54-12.53-21.15-19.21-7.51-6.58-14.54-13.32-20.91-20.04-6.3-6.64-11.64-13.31-15.88-19.83-4.05-6.24-6.1-12.35-6.1-18.16v-2.24c.61,1.1,1.25,2.21,1.97,3.31,4.39,6.76,9.92,13.68,16.44,20.55,6.47,6.82,13.62,13.67,21.24,20.36,7.4,6.48,14.47,12.9,21.01,19.07,6.33,6,11.68,11.76,15.91,17.12,3.95,5.02,5.95,9.39,5.97,13v6.59c-.64-.94-1.34-1.89-2.1-2.86Zm59.83,14.15c-.5,5.75-1.82,11.29-3.97,16.55-2.8,6.83-6.77,12.95-11.79,18.2-5.01,5.24-11.12,9.42-18.16,12.43-7.04,3.01-14.93,4.54-23.44,4.54h-24.58c-8.05,0-15.7-1.53-22.74-4.54-7.08-3.03-13.32-7.17-18.56-12.32-5.25-5.14-9.45-11.2-12.47-18.02-1.11-2.52-2.11-7.97-2.88-14.4,3.1,6.04,7.08,11.47,11.9,16.18,5.68,5.57,12.43,10.05,20.07,13.33,7.65,3.28,15.96,4.94,24.68,4.94h24.59c9.19,0,17.73-1.66,25.38-4.94,7.66-3.28,14.31-7.84,19.78-13.56,5.12-5.34,9.21-11.53,12.21-18.39Zm-15.76,54.51c-4.99,5.23-11.1,9.41-18.16,12.44-7.04,3.01-14.93,4.54-23.44,4.54h-24.58c-8.05,0-15.7-1.53-22.74-4.54-7.08-3.04-13.32-7.18-18.57-12.32-5.25-5.14-9.45-11.21-12.47-18.03-.87-1.97-1.64-7-2.28-13.27,3.01,5.58,6.79,10.63,11.3,15.05,5.68,5.57,12.43,10.06,20.07,13.33,7.66,3.28,15.96,4.94,24.68,4.94h24.58c9.18,0,17.72-1.66,25.38-4.94,7.65-3.27,14.31-7.83,19.78-13.55,5.12-5.35,9.21-11.54,12.2-18.39-.5,5.75-1.82,11.3-3.97,16.56-2.8,6.83-6.77,12.95-11.79,18.19Zm-47.67-182.49c6.5,6.03,13.54,12.47,20.92,19.16,7.41,6.72,14.38,13.69,20.72,20.72,6.3,6.99,11.63,14.18,15.86,21.37,4.09,6.96,6.16,13.81,6.16,20.35v19.76h0v1.79c-.02,7.56-1.43,14.82-4.2,21.59-2.8,6.83-6.77,12.96-11.8,18.2-5.01,5.23-11.12,9.42-18.16,12.44-7.04,3.01-14.92,4.54-23.44,4.54h-24.59c-8.05,0-15.7-1.53-22.74-4.54-7.08-3.04-13.33-7.18-18.57-12.32-5.25-5.13-9.45-11.2-12.47-18.03-1.94-4.39-3.26-9.03-3.95-13.88v-.67l-.11-.12c-.21-1.6-.35-3.23-.42-4.87h24.6c.5,8.45,3.61,15.53,9.27,21.07,6.18,6.06,14.39,9.14,24.38,9.14h29.16v-2.46h0v-23.09s0-.09,0-.13v-19.63c0-4.82-2.3-10.09-7.03-16.1-4.39-5.57-9.9-11.51-16.4-17.66-6.48-6.12-13.59-12.58-21.14-19.2-7.53-6.6-14.57-13.34-20.91-20.04-6.3-6.64-11.64-13.31-15.88-19.85-4.05-6.23-6.1-12.34-6.1-18.15v-21.08c0-8.04,1.52-15.56,4.53-22.36,3.02-6.82,7.21-12.89,12.47-18.03,5.24-5.13,11.48-9.21,18.53-12.13,7.05-2.91,14.71-4.38,22.77-4.38h24.94c7.81,0,15.28,1.53,22.2,4.54,6.96,3.03,13.16,7.13,18.42,12.17,5.25,5.03,9.43,11.03,12.45,17.83,2.68,6.06,4.18,12.5,4.48,19.19h-23.89c-.52-8.93-3.91-16.11-10.11-21.37-6.64-5.63-15.98-8.49-27.76-8.49h-25.65v43.91c0,4.18,2.33,8.85,7.11,14.27,4.37,4.97,9.87,10.52,16.33,16.51Zm35.21-40.54c-1.44-2.18-3.19-4.15-5.25-5.9-6.63-5.63-15.97-8.48-27.76-8.48h-20.71v-14.84h20.72c10.59,0,18.85,2.46,24.57,7.32,5.68,4.82,8.44,11.39,8.44,20.07v1.83Zm-5.25,13.87c-6.64-5.63-15.98-8.49-27.76-8.49h-20.71v-14.83h20.71c10.59,0,18.86,2.46,24.57,7.31,5.68,4.82,8.44,11.39,8.44,20.08v1.84c-1.44-2.17-3.19-4.15-5.25-5.9Zm34,21.37h-23.9c-.33-5.67-1.82-10.63-4.45-14.84h25.56c1.62,4.75,2.56,9.73,2.79,14.84Zm0-19.77h-23.9c-.33-5.67-1.82-10.62-4.44-14.84h25.56c1.62,4.75,2.55,9.72,2.78,14.84Z"/><path d="M191.87,391.57h0v51.39h58.66v234.28h63.24v-234.28h58.65v-39.53h0v-34.08H191.87v22.23Zm4.92,11.85h53.73v14.83h-53.73v-14.83Zm58.66,234.28h53.39v14.83h-53.39v-14.83Zm-58.66-199.68v-14.84h53.73v14.84h-53.73Zm112.04,234.28h-53.39v-14.84h53.39v14.84Zm58.65-234.28h-53.72v-14.84h53.72v14.84Zm0-26.69v6.92h-53.73v-14.83h53.73v7.92Zm-170.69-37.07h170.7v17.3h0v6.93h-58.65v234.28h-53.38v-234.28h-58.66v-24.23Z"/><path d="M577.2,431.17c0-7.8-1.67-15.52-4.95-22.95-3.27-7.37-7.74-14-13.31-19.7-5.58-5.69-12.2-10.35-19.68-13.85-7.56-3.53-15.71-5.33-24.23-5.33h-55.85c-8.52,0-16.67,1.79-24.23,5.33-7.49,3.5-14.11,8.17-19.68,13.86-5.56,5.68-10.04,12.31-13.31,19.69-3.29,7.43-4.95,15.15-4.95,22.95v19.76h0v164.49c0,8.29,1.73,16.26,5.15,23.68,3.39,7.39,7.99,14.01,13.66,19.67,5.67,5.68,12.31,10.23,19.72,13.51,7.43,3.29,15.39,4.95,23.65,4.95h55.85c8.26,0,16.22-1.67,23.65-4.95,7.41-3.28,14.04-7.83,19.71-13.51,5.69-5.69,10.28-12.31,13.66-19.67,3.42-7.43,5.15-15.4,5.15-23.68v-164.49h0v-19.76Zm-175.28,0c0-7.11,1.52-14.16,4.53-20.96,3.03-6.84,7.18-12.98,12.33-18.24,5.16-5.27,11.3-9.58,18.25-12.84,6.9-3.23,14.35-4.86,22.14-4.86h55.85c7.79,0,15.24,1.64,22.14,4.86,6.95,3.25,13.09,7.57,18.25,12.84,5.15,5.27,9.3,11.41,12.33,18.24,3.01,6.8,4.53,13.85,4.53,20.96v144.71c0,7.57-1.58,14.84-4.69,21.63-3.15,6.85-7.41,12.99-12.68,18.25-5.26,5.26-11.39,9.46-18.22,12.49-6.8,3.01-14.09,4.53-21.66,4.53h-55.85c-7.58,0-14.87-1.52-21.66-4.53-6.84-3.03-12.97-7.23-18.22-12.49-5.27-5.27-9.54-11.41-12.67-18.25-3.11-6.77-4.69-14.05-4.69-21.62v-144.71Zm170.2,168.24c-.44,6.22-1.95,12.22-4.55,17.86-3.13,6.83-7.4,12.97-12.67,18.26-5.26,5.26-11.39,9.46-18.22,12.48-6.8,3.01-14.09,4.53-21.66,4.53h-55.85c-7.57,0-14.86-1.52-21.66-4.53-6.83-3.02-12.96-7.22-18.22-12.48s-9.53-11.41-12.67-18.26c-2.6-5.65-4.11-11.64-4.55-17.87,.02,.05,.04,.11,.07,.16,3.38,7.38,7.98,14,13.67,19.68,5.69,5.69,12.32,10.24,19.71,13.51,7.43,3.29,15.38,4.95,23.65,4.95h55.85c8.26,0,16.22-1.67,23.65-4.95,7.39-3.27,14.02-7.82,19.71-13.51,5.68-5.68,10.28-12.3,13.67-19.68,.02-.05,.04-.1,.07-.16Zm-4.55,37.63c-3.13,6.84-7.4,12.98-12.67,18.25-5.24,5.25-11.37,9.45-18.22,12.49-6.8,3.01-14.09,4.53-21.66,4.53h-55.85c-7.57,0-14.86-1.52-21.66-4.53-6.85-3.04-12.98-7.24-18.23-12.49-5.26-5.25-9.52-11.39-12.67-18.25-2.6-5.65-4.11-11.66-4.55-17.88,.03,.06,.05,.11,.07,.17,3.39,7.38,7.98,14.01,13.66,19.69s12.33,10.24,19.72,13.5c7.43,3.29,15.39,4.95,23.65,4.95h55.85c8.26,0,16.22-1.67,23.65-4.95,7.39-3.27,14.02-7.81,19.72-13.51,5.69-5.7,10.29-12.32,13.66-19.68,.03-.06,.05-.12,.07-.17-.44,6.23-1.95,12.23-4.55,17.89Z"/><path d="M811.48,430.46c0-8.9-1.41-17.23-4.19-24.74-2.8-7.55-6.95-14.12-12.34-19.5-5.38-5.37-11.86-9.57-19.28-12.49-7.4-2.91-15.8-4.39-24.96-4.39h-119.43v22.23h0v285.67h63.24v-116.96h53.72v116.96h63.24v-103.72h0v-19.76c0-10.41-1.75-19.11-5.19-25.88-.64-1.25-1.29-2.44-1.96-3.6,.67-1.12,1.32-2.26,1.93-3.42,3.46-6.52,5.21-15.12,5.21-25.57v-45.06h0v-19.76Zm-17.7,80.05c-2.78-2.53-6.15-4.9-10.07-7.08,4.51-2.03,8.29-4.38,11.3-7.02,4.06-3.57,7.85-8.65,11.27-15.1,.02-.04,.04-.09,.06-.13-.51,7.06-1.98,12.98-4.43,17.59-2.53,4.81-5.26,8.74-8.13,11.74Zm-99.27,17.43h0v-7.21h53.72v7.21h0v7.63h-53.73v-7.63Zm58.65,109.76h53.39v14.83h-53.39v-14.83Zm-116.96,0h53.39v14.83h-53.39v-14.83Zm53.39,34.6h-53.39v-14.84h53.39v14.84Zm4.93-116.96v-14.84h53.72v14.84h-53.72Zm112.04,116.96h-53.39v-14.84h53.39v14.84Zm0-118.56v79.03h-53.38v-116.97h-63.59v116.97h-53.38V374.27h114.5c8.54,0,16.33,1.36,23.16,4.04,6.78,2.67,12.71,6.5,17.6,11.39,4.88,4.88,8.64,10.85,11.2,17.73,2.58,6.96,3.89,14.71,3.89,23.03v25.29c0,9.62-1.56,17.44-4.63,23.26-3.13,5.92-6.55,10.53-10.16,13.7-3.61,3.18-8.6,5.91-14.83,8.13l-5.66,2.02,5.45,2.54c6.27,2.92,11.3,6.24,14.93,9.87,3.65,3.65,7.1,8.64,10.26,14.83,3.09,6.07,4.65,14.02,4.65,23.64Zm-4.64-35.2c-.17,.32-.35,.64-.53,.96-1.35-2-2.74-3.82-4.17-5.46,3.24-3.35,6.28-7.7,9.06-12.97,.03-.05,.05-.1,.07-.15-.5,7.07-1.98,12.99-4.43,17.62Z"/><path d="M689.59,490.88h63.59v-92.74h-63.59v92.74Zm58.65-4.93h-53.72v-43.36h53.72v43.36Zm0-48.28h-53.72v-14.83h53.72v14.83Zm0-34.6v14.84h-53.73v-14.84h53.73Z"/><path d="M924.92,417.91h0v70.51h0v2.46h62.53v-92.74h-62.53v19.77Zm57.6,19.76h-52.68v-14.83h52.68v14.83Zm-52.68,4.93h52.68v43.36h-52.68v-43.36Zm52.68-39.53v14.84h-52.68v-14.84h52.68Z"/><path d="M1025.51,388.11c-5.92-5.67-12.71-10.25-20.19-13.64-7.55-3.41-15.1-5.14-22.44-5.14h-54.09c-7.12,0-14.49,1.73-21.93,5.14-7.36,3.38-14.08,7.9-19.98,13.44-5.92,5.56-10.83,12.18-14.57,19.66-3.79,7.56-5.71,15.5-5.71,23.58v206.54h0v39.53h63.23v-39.53h0v-77.43h52.68v116.96h63.59v-39.53h0v-206.54c0-8.08-1.99-15.97-5.9-23.45-3.85-7.34-8.8-13.93-14.7-19.6Zm-100.59,284.2h-53.38v-14.84h53.38v14.84Zm0-19.77h-53.38v-14.83h53.38v14.83Zm57.61-124.59v7.63h-52.68v-14.83h52.68v7.21h0Zm-52.68,27.4v-14.84h52.68v14.84h-52.68Zm111.33,116.96h-53.73v-14.84h53.73v14.84Zm0-19.77h-53.73v-14.83h53.73v14.83Zm0-201.61h0v181.85h-53.73v-116.97h-62.53v2.46h0v9.67h0v7.63h0v97.2h-53.38v-181.85h0v-19.76c0-7.31,1.74-14.5,5.18-21.38,3.48-6.96,8.03-13.11,13.53-18.27,5.51-5.17,11.79-9.4,18.66-12.55,6.79-3.11,13.47-4.69,19.87-4.69h54.09c6.64,0,13.5,1.58,20.41,4.7,6.96,3.15,13.29,7.42,18.8,12.7,5.52,5.3,10.14,11.47,13.75,18.33,3.54,6.76,5.34,13.88,5.34,21.16v19.76Z"/><path d="M1280.04,433.63v-2.46c0-7.81-1.73-15.54-5.14-22.98-3.4-7.39-8.06-14.02-13.86-19.7-5.79-5.67-12.52-10.32-20-13.82-7.56-3.53-15.47-5.33-23.52-5.33h-55.85c-8.52,0-16.67,1.79-24.23,5.33-7.51,3.51-14.14,8.24-19.7,14.05-5.57,5.81-9.99,12.5-13.13,19.88-3.16,7.41-4.76,15.12-4.76,22.92v183.54c0,8.5,1.6,16.62,4.76,24.13,3.15,7.53,7.59,14.18,13.18,19.76,5.55,5.56,12.12,10.05,19.54,13.33,7.43,3.29,15.62,4.95,24.35,4.95h56.2c9.21,0,17.71-1.73,25.25-5.13,7.52-3.4,14.09-7.95,19.54-13.52,5.46-5.58,9.77-12.23,12.82-19.76,3.04-7.52,4.57-15.51,4.57-23.76v-107.23h0v-22.23h-92.74v22.23h0v52.09h29.51v43.35h-53.73v-160.32h62.17c6.53,0,11.53,2.28,15.28,6.97,3.84,4.81,5.79,11.8,5.79,20.77v2.46h33.73v-2.46c0-5.84-.99-11.64-2.9-17.31h2.9v-2.46c0-5.83-.98-11.64-2.9-17.3h2.9Zm-20.91,221.51c-5.02,5.13-11.09,9.33-18.05,12.48-6.9,3.12-14.71,4.69-23.22,4.69h-56.2c-8.04,0-15.56-1.52-22.36-4.53-6.85-3.04-12.92-7.18-18.05-12.31-5.14-5.13-9.21-11.25-12.12-18.18-2.25-5.34-3.62-11.03-4.14-16.96,3.12,7.15,7.4,13.49,12.77,18.85,5.55,5.57,12.13,10.06,19.54,13.33,7.43,3.29,15.62,4.95,24.35,4.95h56.2c9.23,0,17.73-1.73,25.24-5.13,7.51-3.39,14.09-7.94,19.55-13.52,5.12-5.24,9.22-11.42,12.22-18.38-.51,5.71-1.84,11.25-3.97,16.54-2.8,6.93-6.76,13.04-11.77,18.16Zm-154.13-54.56c3.12,7.14,7.4,13.49,12.77,18.84,5.56,5.57,12.14,10.06,19.54,13.33,7.43,3.29,15.62,4.95,24.36,4.95h56.2c9.22,0,17.71-1.73,25.25-5.14,7.51-3.39,14.09-7.94,19.54-13.52,5.12-5.24,9.22-11.42,12.22-18.38-.51,5.7-1.84,11.24-3.97,16.53-2.8,6.93-6.76,13.05-11.77,18.17-5.03,5.14-11.1,9.33-18.05,12.47-6.88,3.11-14.69,4.69-23.21,4.69h-56.2c-8.04,0-15.56-1.52-22.36-4.53-6.85-3.03-12.92-7.17-18.04-12.31-5.14-5.13-9.22-11.25-12.12-18.18-2.24-5.34-3.62-11.02-4.14-16.94Zm87.22-80.19h24.58v14.83h-24.58v-14.83Zm0,34.6v-14.84h24.58v14.84h-24.58Zm29.51,53.21v-92.74h-29.5v-24.93h82.88v85c0,7.61-1.42,14.98-4.21,21.91-2.8,6.93-6.76,13.04-11.77,18.17-5.02,5.14-11.1,9.34-18.05,12.47-6.9,3.12-14.71,4.7-23.22,4.7h-56.2c-8.04,0-15.57-1.52-22.36-4.53-6.84-3.03-12.91-7.17-18.05-12.31-5.14-5.13-9.21-11.25-12.11-18.18-2.9-6.9-4.37-14.36-4.37-22.19v-124.29h0v-19.77c0-7.13,1.47-14.19,4.37-20.99,2.91-6.83,7-13.02,12.16-18.4,5.14-5.37,11.28-9.74,18.23-13,6.9-3.23,14.34-4.86,22.14-4.86h55.85c7.32,0,14.54,1.64,21.44,4.86,6.97,3.26,13.25,7.6,18.64,12.88,5.37,5.26,9.69,11.4,12.83,18.23,2.75,6,4.31,12.2,4.63,18.46h-23.86c-.35-8.97-2.64-16.15-6.82-21.38-4.69-5.86-11.13-8.83-19.14-8.83h-67.09v19.76h0v187.48h0v2.47h63.58Zm24.54-178.33c-.59-.97-1.21-1.91-1.9-2.78-4.68-5.86-11.12-8.83-19.13-8.83h-62.17v-14.83h62.17c6.53,0,11.53,2.28,15.29,6.98,3.65,4.56,5.56,11.12,5.75,19.47Zm-21.03,8.16h-62.17v-14.84h62.17c6.53,0,11.53,2.28,15.28,6.98,3.65,4.56,5.56,11.12,5.75,19.46-.59-.97-1.21-1.91-1.9-2.78-4.68-5.85-11.12-8.82-19.13-8.82Zm49.81,30.21h-23.86c-.22-5.68-1.23-10.64-2.99-14.84h23.72c1.82,4.86,2.88,9.83,3.14,14.84Zm0-19.77h-23.86c-.22-5.68-1.22-10.63-2.99-14.83h23.71c1.82,4.86,2.88,9.83,3.14,14.83Z"/><path d="M465.74,472.52c2.66,0,5.62-5.66,5.62-13.79s-2.96-13.79-5.62-13.79-5.62,5.66-5.62,13.79,2.96,13.79,5.62,13.79Z"/><path d="M508.83,472.52c2.66,0,5.62-5.66,5.62-13.79s-2.96-13.79-5.62-13.79-5.62,5.66-5.62,13.79,2.96,13.79,5.62,13.79Z"/><path d="M487.29,551.19c32.55,0,59.03-26.81,59.03-59.77v-1.07h-3.63v1.07c0,30.96-24.85,56.14-55.4,56.14s-55.4-25.19-55.4-56.14v-1.07h-3.63v1.07c0,32.96,26.48,59.77,59.03,59.77Z"/></g></g></svg>