<?xml version="1.0" encoding="UTF-8"?><svg xmlns="http://www.w3.org/2000/svg" viewBox="0 0 1527.69 696"><defs><style>.d{fill:none;}.e{fill:#ee4116;}.f{fill:#fff;}</style></defs><g id="a"/><g id="b"/><g id="c"><g><rect class="d" x="940.29" y="436.45" width="52.04" height="42.82"/><rect class="d" x="707.82" y="436.45" width="53.08" height="42.82"/><polygon class="e" points="647.85 312.5 647.15 311.83 491.65 163.77 491.65 176.69 649.8 327.28 660.27 327.28 660.27 312.5 647.85 312.5"/><rect class="e" x="462.85" y="312.5" width="23.93" height="14.77"/><path d="M491.65,312.5V183.41l155.49,148.06,.7,.67h17.29V27.77h-34.01V175.15L474.92,27.77h-16.93V332.15h33.67v-19.64Zm-28.8,14.77v-14.77h23.93v14.77h-23.93Zm0-275.01v-19.63h10.13l163.01,153.79V32.64h24.28v255.36h-10.47l-163.01-155.22v155.22h-23.93V52.27Zm186.95,275.01l-158.15-150.59v-12.92l155.49,148.06,.7,.67h12.42v14.77h-10.47Zm10.47-19.64h-10.47l-158.15-150.59v-12.91l155.49,148.06,.7,.67h12.42v14.77Zm-197.42-14.77h23.93v14.77h-23.93v-14.77Z"/><rect class="e" x="780.68" y="196.96" width="53.08" height="14.77"/><rect class="e" x="780.68" y="81.07" width="81.87" height="14.77"/><rect class="e" x="723.08" y="312.5" width="52.73" height="14.77"/><rect class="e" x="954.17" y="312.5" width="52.73" height="14.77"/><rect class="e" x="896.22" y="81.07" width="53.08" height="14.77"/><rect class="e" x="1011.76" y="81.07" width="53.08" height="14.77"/><polygon class="e" points="647.15 292.2 491.65 144.14 491.65 157.05 649.8 307.64 660.27 307.64 660.27 292.87 647.85 292.87 647.15 292.2"/><rect class="e" x="462.85" y="292.87" width="23.93" height="14.77"/><polygon class="e" points="780.68 177.32 780.68 182.59 780.68 192.09 833.76 192.09 833.76 187.46 833.76 177.32 780.68 177.32"/><polygon class="e" points="780.68 61.44 780.68 76.2 862.56 76.2 862.56 71.91 862.56 61.44 780.68 61.44"/><rect class="e" x="723.08" y="292.87" width="52.73" height="14.77"/><polygon class="e" points="1011.76 61.44 1011.76 76.2 1064.84 76.2 1064.84 71.91 1064.84 61.44 1011.76 61.44"/><rect class="e" x="954.17" y="292.87" width="52.73" height="14.77"/><polygon class="e" points="896.22 71.91 896.22 76.2 949.3 76.2 949.3 61.44 896.22 61.44 896.22 71.91"/><polygon class="f" points="462.85 71.91 462.85 288 486.79 288 486.79 172.06 486.79 152.42 486.79 132.78 649.8 288 660.27 288 660.27 71.91 660.27 52.27 660.27 32.64 635.99 32.64 635.99 52.27 635.99 71.91 635.99 186.43 472.99 32.64 462.85 32.64 462.85 52.27 462.85 71.91"/><polygon class="f" points="723.08 52.27 723.08 71.91 723.08 288 775.81 288 775.81 211.73 775.81 192.09 775.81 187.46 775.81 172.46 833.76 172.46 833.76 167.81 833.76 148.18 775.81 148.18 775.81 95.85 775.81 76.2 775.81 56.57 862.56 56.57 862.56 52.27 862.56 32.64 723.08 32.64 723.08 52.27"/><path d="M718.22,47.4V332.15h62.47v-115.54h57.94v-73.29h-57.94v-42.6h86.74V27.77h-149.21v19.63Zm144.34-14.77v23.93h-86.74v91.61h57.94v24.28h-57.94v115.54h-52.73V32.64h139.47Zm-81.87,48.43h81.87v14.77h-81.87v-14.77Zm81.87-9.16v4.29h-81.87v-14.77h81.87v10.48Zm-139.47,255.36v-14.77h52.73v14.77h-52.73Zm52.73-19.64h-52.73v-14.77h52.73v14.77Zm4.87-110.68h53.08v14.77h-53.08v-14.77Zm53.08-9.5v4.63h-53.08v-14.77h53.08v10.13Z"/><polygon class="f" points="896.22 52.27 896.22 56.57 954.17 56.57 954.17 76.2 954.17 95.85 954.17 288 1006.9 288 1006.9 95.85 1006.9 76.2 1006.9 56.57 1064.84 56.57 1064.84 52.27 1064.84 32.64 896.22 32.64 896.22 52.27"/><path d="M891.35,47.4v53.31h57.95v231.43h62.46V100.71h57.94V27.77h-178.35v19.63Zm173.49-14.77v23.93h-57.94v231.43h-52.73V56.57h-57.95v-23.93h168.62Zm-110.67,294.64v-14.77h52.73v14.77h-52.73Zm52.73-19.64h-52.73v-14.77h52.73v14.77Zm-57.6-246.2v14.77h-53.08v-14.77h53.08Zm-53.08,19.63h53.08v14.77h-53.08v-14.77Zm115.54,0h53.08v14.77h-53.08v-14.77Zm53.08-9.16v4.29h-53.08v-14.77h53.08v10.48Z"/><path class="e" d="M178.34,628.61c2.14-5.21,3.43-10.72,3.92-16.42-2.96,6.8-6.99,12.95-12.05,18.24-5.4,5.65-11.98,10.15-19.54,13.39-7.56,3.24-15.99,4.88-25.07,4.88h-24.29c-8.62,0-16.82-1.64-24.38-4.88-7.55-3.24-14.22-7.67-19.83-13.17-4.47-4.37-8.19-9.39-11.17-14.93,.64,6.22,1.39,11.21,2.26,13.17,2.98,6.74,7.13,12.74,12.32,17.81,5.18,5.08,11.35,9.17,18.34,12.17,6.95,2.98,14.51,4.48,22.46,4.48h24.29c8.42,0,16.21-1.51,23.16-4.48,6.95-2.98,12.99-7.12,17.94-12.29,4.96-5.18,8.88-11.23,11.65-17.98Z"/><path class="e" d="M149.2,439.97c2.05,1.74,3.76,3.71,5.19,5.87v-1.86c0-8.58-2.73-15.06-8.34-19.83-5.65-4.8-13.82-7.23-24.27-7.23h-20.47v14.66h20.47c11.64,0,20.87,2.82,27.42,8.38Z"/><path class="e" d="M154.78,446.42c2.6,4.16,4.08,9.06,4.4,14.66h23.6c-.22-5.05-1.15-9.96-2.75-14.66h-25.25Z"/><path class="e" d="M65.43,522.56c6.26,6.61,13.21,13.27,20.66,19.8,7.47,6.55,14.5,12.94,20.88,18.97,6.41,6.07,11.86,11.93,16.2,17.44,.76,.97,1.44,1.91,2.07,2.85v-6.47c0-3.58-1.98-7.92-5.9-12.9-4.19-5.31-9.48-11.01-15.72-16.91-6.34-5.99-13.33-12.33-20.75-18.85-7.55-6.62-14.61-13.39-20.98-20.11-6.43-6.77-11.89-13.6-16.24-20.3-.71-1.09-1.35-2.18-1.95-3.27v2.22c0,5.74,2.03,11.78,6.03,17.93,4.18,6.45,9.46,13.04,15.69,19.6Z"/><rect class="e" x="274.1" y="648.7" width="52.73" height="14.66"/><rect class="e" x="216.16" y="417.27" width="53.08" height="14.66"/><rect class="e" x="331.7" y="417.27" width="53.08" height="14.66"/><path class="e" d="M582.43,628.52c2.56-5.58,4.06-11.51,4.49-17.65-.02,.05-.04,.1-.07,.15-3.35,7.29-7.89,13.83-13.5,19.44-5.62,5.62-12.17,10.11-19.47,13.34-7.34,3.25-15.2,4.89-23.37,4.89h-55.17c-8.17,0-16.03-1.64-23.36-4.89-7.3-3.23-13.86-7.72-19.47-13.34-5.62-5.61-10.16-12.16-13.5-19.44-.02-.05-.04-.1-.07-.15,.43,6.15,1.93,12.07,4.49,17.65,3.1,6.76,7.31,12.83,12.52,18.03,5.19,5.2,11.25,9.35,18,12.34,6.71,2.97,13.91,4.47,21.39,4.47h55.17c7.48,0,14.68-1.5,21.4-4.47,6.75-2.99,12.8-7.14,18-12.33,5.2-5.2,9.41-11.27,12.52-18.03Z"/><rect class="e" x="707.82" y="533.16" width="53.08" height="14.66"/><rect class="e" x="650.22" y="648.7" width="52.73" height="14.66"/><rect class="e" x="707.82" y="416.93" width="53.08" height="14.66"/><path class="e" d="M818.22,494.22c-2.76,5.22-5.77,9.51-8.97,12.84,1.41,1.62,2.79,3.4,4.13,5.37,.18-.33,.37-.62,.54-.95,2.41-4.57,3.87-10.41,4.37-17.38-.02,.04-.04,.09-.06,.13Z"/><rect class="e" x="765.76" y="648.7" width="52.73" height="14.66"/><rect class="e" x="940.29" y="416.93" width="52.04" height="14.66"/><rect class="e" x="940.29" y="533.16" width="52.04" height="14.66"/><rect class="e" x="882.69" y="648.7" width="52.73" height="14.66"/><rect class="e" x="997.19" y="648.7" width="53.08" height="14.66"/><path class="e" d="M1277.19,628.45c2.11-5.24,3.42-10.74,3.92-16.41-2.96,6.9-6.99,13.04-12.06,18.23-5.39,5.51-11.88,10.01-19.3,13.35-7.45,3.37-15.84,5.07-24.94,5.07h-55.52c-8.63,0-16.72-1.64-24.06-4.89-7.31-3.24-13.81-7.67-19.3-13.17-5.3-5.3-9.52-11.58-12.6-18.65,.51,5.86,1.86,11.49,4.08,16.78,2.87,6.84,6.89,12.89,11.97,17.96,5.07,5.08,11.07,9.17,17.83,12.16,6.71,2.97,14.14,4.47,22.09,4.47h55.52c8.41,0,16.12-1.56,22.94-4.64,6.87-3.1,12.86-7.25,17.83-12.32,4.95-5.06,8.86-11.1,11.63-17.95Z"/><path class="e" d="M1250.99,440.65c.68,.85,1.3,1.78,1.88,2.74-.18-8.24-2.07-14.72-5.68-19.23-3.71-4.63-8.65-6.89-15.1-6.89h-61.41v14.66h61.41c7.91,0,14.27,2.93,18.9,8.72Z"/><path class="e" d="M1254.77,447.11c1.74,4.15,2.73,9.05,2.95,14.66h23.57c-.26-4.95-1.32-9.86-3.12-14.66h-23.4Z"/><rect class="e" x="1199.47" y="532.81" width="24.28" height="14.66"/><rect class="e" x="1402.1" y="533.16" width="53.08" height="14.66"/><rect class="e" x="1402.1" y="417.27" width="81.88" height="14.66"/><rect class="e" x="1344.51" y="648.7" width="139.47" height="14.66"/><path class="e" d="M154.79,426.89c2.59,4.16,4.07,9.06,4.4,14.65h23.6c-.22-5.05-1.15-9.95-2.75-14.65h-25.25Z"/><path class="e" d="M103.62,525.81c-6.38-6.02-13.36-12.37-20.75-18.85-7.55-6.62-14.61-13.39-20.98-20.11-6.43-6.77-11.89-13.6-16.24-20.3-.71-1.09-1.35-2.18-1.95-3.27v2.22c0,5.74,2.03,11.78,6.03,17.93,4.18,6.45,9.46,13.04,15.69,19.6,6.26,6.61,13.21,13.27,20.66,19.8,7.47,6.55,14.5,12.94,20.88,18.97,6.41,6.07,11.86,11.93,16.2,17.44,.76,.97,1.44,1.91,2.07,2.85v-6.46c0-3.58-1.98-7.92-5.9-12.89-4.19-5.31-9.48-11.01-15.72-16.91Z"/><path class="e" d="M170.2,610.91c-5.4,5.64-11.97,10.15-19.54,13.39-7.56,3.24-15.99,4.88-25.07,4.88h-24.29c-8.62,0-16.82-1.64-24.38-4.88-7.55-3.24-14.22-7.67-19.83-13.17-4.8-4.69-8.72-10.14-11.79-16.17,.73,6.17,1.69,11.72,2.88,14.4,2.98,6.74,7.13,12.74,12.32,17.81,5.18,5.08,11.35,9.17,18.34,12.17,6.95,2.98,14.51,4.48,22.46,4.48h24.29c8.42,0,16.21-1.51,23.16-4.48,6.95-2.98,12.99-7.12,17.94-12.29,4.96-5.18,8.88-11.23,11.65-17.98,2.13-5.21,3.43-10.71,3.92-16.42-2.96,6.8-6.99,12.95-12.05,18.24Z"/><path class="e" d="M146.05,404.63c-5.65-4.8-13.82-7.23-24.27-7.23h-20.47v14.66h20.47c11.64,0,20.87,2.82,27.42,8.38,2.05,1.74,3.76,3.71,5.19,5.87v-1.85c0-8.58-2.73-15.06-8.34-19.83Z"/><polygon class="e" points="331.7 397.75 331.7 412.4 384.78 412.4 384.78 408 384.78 397.75 331.7 397.75"/><rect class="e" x="274.1" y="629.18" width="52.73" height="14.66"/><polygon class="e" points="216.16 408 216.16 412.4 269.24 412.4 269.24 397.75 216.16 397.75 216.16 408"/><path class="e" d="M586.85,591.5c-3.35,7.29-7.89,13.83-13.5,19.44-5.62,5.62-12.17,10.11-19.47,13.34-7.34,3.25-15.2,4.89-23.37,4.89h-55.17c-8.17,0-16.03-1.64-23.36-4.89-7.31-3.23-13.86-7.72-19.47-13.34-5.62-5.61-10.16-12.15-13.5-19.44-.02-.05-.04-.1-.07-.15,.43,6.15,1.93,12.07,4.49,17.64,3.1,6.76,7.31,12.83,12.52,18.03,5.19,5.2,11.25,9.35,18,12.34,6.71,2.97,13.91,4.47,21.39,4.47h55.17c7.48,0,14.68-1.5,21.4-4.47,6.75-2.99,12.8-7.14,18-12.33,5.2-5.2,9.41-11.27,12.52-18.03,2.56-5.58,4.06-11.5,4.49-17.64-.02,.05-.04,.1-.07,.15Z"/><polygon class="e" points="707.82 518.33 707.82 528.29 760.89 528.29 760.89 518.33 760.89 513.64 707.82 513.64 707.82 518.33"/><path class="e" d="M818.22,474.69c-3.37,6.38-7.12,11.4-11.13,14.92-2.97,2.61-6.71,4.93-11.16,6.93,3.87,2.15,7.16,4.5,9.91,6.99,2.85-2.98,5.56-6.83,8.08-11.6,2.41-4.57,3.87-10.41,4.37-17.38-.02,.04-.04,.09-.06,.13Z"/><rect class="e" x="650.22" y="629.18" width="52.73" height="14.66"/><rect class="e" x="765.76" y="629.18" width="52.73" height="14.66"/><rect class="e" x="707.82" y="397.4" width="53.08" height="14.66"/><polygon class="e" points="940.29 518.33 940.29 528.29 992.32 528.29 992.32 518.33 992.32 513.64 940.29 513.64 940.29 518.33"/><rect class="e" x="882.69" y="629.18" width="52.73" height="14.66"/><rect class="e" x="997.19" y="629.18" width="53.08" height="14.66"/><rect class="e" x="940.29" y="397.4" width="52.04" height="14.66"/><path class="e" d="M1254.77,427.59c1.74,4.15,2.73,9.05,2.95,14.66h23.57c-.26-4.95-1.32-9.85-3.12-14.66h-23.4Z"/><path class="e" d="M1269.04,610.75c-5.39,5.51-11.89,10.01-19.3,13.35-7.44,3.37-15.83,5.07-24.94,5.07h-55.52c-8.63,0-16.72-1.64-24.06-4.89-7.31-3.24-13.81-7.67-19.3-13.17-5.3-5.29-9.52-11.58-12.6-18.65,.51,5.86,1.86,11.49,4.08,16.77,2.87,6.84,6.89,12.89,11.97,17.96,5.07,5.08,11.07,9.17,17.83,12.16,6.71,2.97,14.14,4.47,22.09,4.47h55.52c8.41,0,16.12-1.56,22.94-4.64,6.87-3.1,12.86-7.25,17.83-12.32,4.95-5.06,8.86-11.1,11.63-17.95,2.11-5.24,3.41-10.74,3.92-16.4-2.96,6.89-6.99,13.04-12.06,18.23Z"/><polygon class="e" points="1199.47 522.85 1199.47 527.95 1223.75 527.95 1223.75 513.29 1199.47 513.29 1199.47 522.85"/><path class="e" d="M1247.19,404.64c-3.71-4.64-8.65-6.89-15.1-6.89h-61.41v14.66h61.41c7.91,0,14.27,2.93,18.9,8.72,.68,.85,1.3,1.78,1.88,2.74-.18-8.24-2.08-14.72-5.68-19.22Z"/><polygon class="e" points="1344.51 629.18 1344.51 643.84 1483.98 643.84 1483.98 639.08 1483.98 629.18 1344.51 629.18"/><polygon class="e" points="1402.1 397.75 1402.1 412.4 1483.98 412.4 1483.98 408 1483.98 397.75 1402.1 397.75"/><polygon class="e" points="1402.1 513.64 1402.1 518.33 1402.1 528.29 1455.18 528.29 1455.18 523.2 1455.18 513.64 1402.1 513.64"/><path class="f" d="M160.74,505.72c-6.28-6.96-13.17-13.84-20.47-20.47-7.25-6.57-14.21-12.94-20.67-18.93-6.38-5.92-11.81-11.4-16.13-16.31-4.73-5.36-7.02-9.98-7.02-14.1v-43.38h25.33c11.64,0,20.87,2.82,27.42,8.39,6.12,5.2,9.47,12.29,9.98,21.11h23.6c-.29-6.61-1.78-12.98-4.42-18.96-2.98-6.72-7.11-12.65-12.3-17.62-5.2-4.98-11.33-9.02-18.2-12.02-6.83-2.98-14.21-4.48-21.93-4.48h-24.64c-7.96,0-15.53,1.45-22.49,4.33-6.97,2.88-13.13,6.91-18.31,11.98-5.19,5.08-9.33,11.07-12.32,17.81-2.97,6.71-4.48,14.15-4.48,22.09v20.82c0,5.74,2.03,11.78,6.03,17.93,4.19,6.45,9.46,13.04,15.69,19.6,6.26,6.61,13.21,13.27,20.66,19.8,7.43,6.52,14.46,12.9,20.88,18.97,6.42,6.07,11.87,11.94,16.2,17.44,4.67,5.94,6.94,11.14,6.94,15.9v44.77h-28.8c-9.87,0-17.97-3.04-24.08-9.03-5.59-5.47-8.67-12.46-9.16-20.82h-24.3c.28,6.83,1.77,13.31,4.43,19.31,2.98,6.75,7.13,12.74,12.31,17.81,5.18,5.08,11.35,9.17,18.34,12.17,6.95,2.98,14.51,4.48,22.46,4.48h24.29c8.42,0,16.21-1.51,23.16-4.48,6.96-2.98,12.99-7.12,17.94-12.29,4.96-5.18,8.88-11.23,11.65-17.98,2.76-6.73,4.16-13.95,4.16-21.46v-21.17c0-6.46-2.05-13.23-6.09-20.11-4.17-7.1-9.45-14.21-15.67-21.12Z"/><path d="M169.43,381.93c-5.62-5.38-12.22-9.74-19.62-12.96-7.45-3.24-15.48-4.89-23.87-4.89h-24.64c-8.6,0-16.79,1.58-24.35,4.69-7.55,3.12-14.23,7.49-19.86,13-5.63,5.52-10.13,12.02-13.36,19.32-3.25,7.34-4.89,15.43-4.89,24.06v59.87c0,6.7,2.29,13.62,6.81,20.58,4.34,6.7,9.81,13.53,16.24,20.3,6.37,6.72,13.42,13.48,20.98,20.11,7.43,6.51,14.41,12.85,20.75,18.85,6.24,5.91,11.53,11.6,15.72,16.91,3.91,4.98,5.9,9.31,5.9,12.9v.85h-23.94c-8.67,0-15.43-2.5-20.68-7.64-5.23-5.12-7.77-11.59-7.77-19.77v-2.43H38.85v10.14c0,6.27,1.41,47.2,4.89,55.06,3.23,7.31,7.73,13.81,13.36,19.32,5.61,5.5,12.28,9.93,19.83,13.17,7.56,3.24,15.76,4.88,24.38,4.88h24.29c9.08,0,17.51-1.64,25.07-4.88,7.56-3.24,14.13-7.75,19.54-13.39,5.39-5.62,9.64-12.18,12.64-19.5,3-7.32,4.52-15.16,4.52-23.3v-60.22c0-7.34-2.27-14.94-6.76-22.57-4.34-7.39-9.81-14.76-16.25-21.91-6.39-7.08-13.39-14.08-20.82-20.82-7.24-6.56-14.18-12.91-20.62-18.89-6.26-5.8-11.58-11.17-15.79-15.96-3.57-4.05-5.53-7.6-5.76-10.34h20.42c10.46,0,18.62,2.43,24.27,7.23,5.61,4.77,8.34,11.25,8.34,19.83v2.43h33.32v-2.43c0-5.89-.87-11.61-2.56-17.09h2.56v-2.43c0-5.88-.87-11.6-2.56-17.09h2.56v-2.43c0-8.17-1.65-16.03-4.89-23.37-3.24-7.31-7.74-13.75-13.38-19.16Zm-10.25,79.14c-.33-5.6-1.81-10.5-4.4-14.66h25.25c1.6,4.7,2.53,9.61,2.75,14.66h-23.6Zm-33.59,202.29h-24.29c-7.95,0-15.51-1.51-22.46-4.48-6.99-3-13.16-7.09-18.34-12.17-5.19-5.07-9.33-11.07-12.32-17.81-.87-1.96-1.62-6.95-2.26-13.17,2.98,5.53,6.7,10.56,11.17,14.93,5.61,5.5,12.28,9.93,19.83,13.17,7.56,3.24,15.76,4.88,24.38,4.88h24.29c9.08,0,17.51-1.64,25.07-4.88,7.56-3.24,14.13-7.75,19.54-13.39,5.07-5.29,9.09-11.44,12.05-18.24-.49,5.7-1.78,11.21-3.92,16.42-2.77,6.75-6.69,12.8-11.65,17.98-4.95,5.17-10.98,9.3-17.94,12.29-6.95,2.98-14.74,4.48-23.16,4.48Zm52.74-54.28c-2.77,6.75-6.69,12.8-11.65,17.98-4.95,5.17-10.98,9.3-17.94,12.29-6.95,2.98-14.74,4.48-23.16,4.48h-24.29c-7.95,0-15.51-1.51-22.46-4.48-6.99-3-13.16-7.09-18.34-12.17-5.19-5.07-9.33-11.07-12.32-17.81-1.19-2.69-2.15-8.23-2.88-14.4,3.07,6.03,6.99,11.48,11.79,16.17,5.61,5.5,12.28,9.93,19.83,13.17,7.56,3.24,15.76,4.88,24.38,4.88h24.29c9.08,0,17.51-1.64,25.07-4.88,7.56-3.24,14.14-7.75,19.54-13.39,5.07-5.29,9.09-11.44,12.05-18.24-.49,5.7-1.78,11.21-3.92,16.42Zm4.16-42.62v1.64c0,7.51-1.4,14.73-4.16,21.46-2.77,6.75-6.69,12.8-11.65,17.98-4.94,5.17-10.98,9.3-17.94,12.29-6.95,2.98-14.74,4.48-23.16,4.48h-24.29c-7.95,0-15.51-1.51-22.46-4.48-6.99-3-13.16-7.09-18.34-12.17-5.19-5.07-9.33-11.06-12.31-17.81-2.66-6-4.14-12.48-4.43-19.31h24.3c.49,8.35,3.57,15.35,9.16,20.82,6.11,5.99,14.21,9.03,24.08,9.03h28.8v-44.77c0-4.76-2.27-9.97-6.94-15.9-4.33-5.5-9.78-11.37-16.2-17.44-6.42-6.06-13.45-12.45-20.88-18.97-7.44-6.53-14.39-13.18-20.66-19.8-6.22-6.56-11.5-13.15-15.69-19.6-4-6.16-6.03-12.19-6.03-17.93v-20.82c0-7.94,1.51-15.37,4.48-22.09,2.98-6.74,7.13-12.73,12.32-17.81,5.18-5.07,11.34-9.1,18.31-11.98,6.97-2.87,14.53-4.33,22.49-4.33h24.64c7.72,0,15.1,1.51,21.93,4.48,6.87,2.99,13,7.04,18.2,12.02,5.18,4.97,9.32,10.89,12.3,17.62,2.65,5.98,4.13,12.35,4.42,18.96h-23.6c-.51-8.82-3.86-15.91-9.98-21.11-6.55-5.57-15.78-8.39-27.42-8.39h-25.33v43.38c0,4.12,2.3,8.74,7.02,14.1,4.32,4.91,9.75,10.39,16.13,16.31,6.46,5.99,13.41,12.36,20.67,18.93,7.3,6.63,14.19,13.52,20.47,20.47,6.22,6.91,11.5,14.01,15.67,21.12,4.04,6.88,6.09,13.64,6.09,20.11v19.52Zm-57.25-4.38c-.64-.93-1.31-1.88-2.07-2.85-4.34-5.5-9.79-11.37-16.2-17.44-6.39-6.04-13.41-12.42-20.88-18.97-7.44-6.53-14.39-13.18-20.66-19.8-6.22-6.56-11.5-13.15-15.69-19.6-4-6.15-6.03-12.18-6.03-17.93v-2.22c.6,1.09,1.23,2.18,1.95,3.27,4.35,6.7,9.81,13.53,16.24,20.3,6.37,6.72,13.42,13.48,20.98,20.11,7.39,6.48,14.37,12.82,20.75,18.85,6.24,5.91,11.53,11.6,15.72,16.91,3.91,4.97,5.9,9.31,5.9,12.89v6.46Zm-81.53-79.28c.6,1.09,1.23,2.18,1.95,3.27,4.34,6.7,9.81,13.53,16.24,20.3,6.37,6.72,13.42,13.48,20.98,20.11,7.43,6.51,14.41,12.85,20.75,18.85,6.24,5.91,11.53,11.6,15.72,16.91,3.91,4.98,5.9,9.31,5.9,12.9v6.47c-.64-.93-1.31-1.88-2.07-2.85-4.34-5.5-9.79-11.37-16.2-17.44-6.39-6.04-13.41-12.42-20.88-18.97-7.44-6.53-14.39-13.18-20.66-19.8-6.22-6.56-11.5-13.15-15.69-19.6-4-6.15-6.03-12.18-6.03-17.93v-2.22Zm110.67-58.34v1.85c-1.43-2.16-3.14-4.13-5.19-5.87-6.56-5.56-15.78-8.38-27.42-8.38h-20.47v-14.66h20.47c10.46,0,18.62,2.43,24.27,7.23,5.61,4.76,8.34,11.25,8.34,19.83Zm-53.08-7.54h20.47c10.46,0,18.62,2.43,24.27,7.23,5.61,4.77,8.34,11.25,8.34,19.83v1.86c-1.43-2.16-3.14-4.13-5.19-5.87-6.56-5.56-15.78-8.38-27.42-8.38h-20.47v-14.66Zm81.47,24.62h-23.6c-.33-5.6-1.8-10.49-4.4-14.65h25.25c1.6,4.7,2.53,9.6,2.75,14.65Z"/><polygon class="f" points="216.16 388.47 216.16 392.88 274.1 392.88 274.1 412.4 274.1 431.93 274.1 624.31 326.83 624.31 326.83 431.93 326.83 412.4 326.83 392.88 384.78 392.88 384.78 388.47 384.78 368.95 216.16 368.95 216.16 388.47"/><path d="M211.29,383.61v53.19h57.95v231.43h62.46v-231.43h57.94v-72.72H211.29v19.52Zm173.49-14.66v23.93h-57.94v231.43h-52.73v-231.43h-57.95v-23.93h168.62Zm-110.67,294.41v-14.66h52.73v14.66h-52.73Zm52.73-19.53h-52.73v-14.66h52.73v14.66Zm-57.6-246.09v14.66h-53.08v-14.66h53.08Zm-53.08,19.52h53.08v14.66h-53.08v-14.66Zm115.54,0h53.08v14.66h-53.08v-14.66Zm53.08-9.27v4.4h-53.08v-14.66h53.08v10.25Z"/><path class="f" d="M587.06,425.15c0-7.02-1.51-13.99-4.48-20.7-2.99-6.75-7.09-12.81-12.18-18.02-5.1-5.2-11.16-9.47-18.03-12.68-6.82-3.18-14.18-4.8-21.87-4.8h-55.17c-7.7,0-15.05,1.62-21.87,4.8-6.87,3.21-12.94,7.48-18.03,12.68-5.09,5.2-9.18,11.26-12.18,18.02-2.97,6.71-4.48,13.68-4.48,20.7v142.95c0,7.48,1.56,14.67,4.63,21.36,3.1,6.76,7.31,12.83,12.52,18.03,5.19,5.2,11.25,9.35,18,12.34,6.71,2.97,13.91,4.47,21.39,4.47h55.17c7.48,0,14.68-1.5,21.4-4.47,6.75-2.99,12.81-7.14,18-12.33,5.2-5.2,9.41-11.26,12.52-18.03,3.08-6.7,4.64-13.89,4.64-21.36v-142.95Zm-57.12,27.23c0,8.03-2.92,13.62-5.55,13.62s-5.55-5.59-5.55-13.62,2.92-13.62,5.55-13.62,5.55,5.6,5.55,13.62Zm-42.57,0c0,8.03-2.92,13.62-5.55,13.62s-5.55-5.59-5.55-13.62,2.92-13.62,5.55-13.62,5.55,5.6,5.55,13.62Zm74.05,32.3c0,32.56-26.16,59.04-58.31,59.04s-58.31-26.49-58.31-59.04v-1.06h3.58v1.06c0,30.58,24.55,55.46,54.73,55.46s54.73-24.88,54.73-55.46v-1.06h3.58v1.06Z"/><path d="M573.89,383.03c-5.51-5.62-12.05-10.22-19.44-13.69-7.47-3.49-15.52-5.26-23.93-5.26h-55.17c-8.41,0-16.47,1.77-23.93,5.26-7.4,3.46-13.94,8.07-19.44,13.69-5.5,5.62-9.92,12.16-13.15,19.45-3.25,7.34-4.89,14.96-4.89,22.67v182c0,8.19,1.71,16.06,5.08,23.39,3.34,7.29,7.89,13.83,13.5,19.44,5.62,5.62,12.17,10.11,19.47,13.34,7.33,3.25,15.19,4.89,23.36,4.89h55.17c8.17,0,16.03-1.64,23.37-4.89,7.3-3.23,13.85-7.72,19.47-13.34,5.61-5.61,10.15-12.15,13.5-19.44,3.37-7.35,5.08-15.22,5.08-23.39v-182c0-7.7-1.65-15.33-4.89-22.67-3.23-7.28-7.65-13.83-13.15-19.45Zm-43.38,280.33h-55.17c-7.49,0-14.69-1.5-21.39-4.47-6.75-2.99-12.81-7.14-18-12.34-5.21-5.2-9.42-11.27-12.52-18.03-2.56-5.58-4.06-11.5-4.49-17.65,.02,.05,.04,.1,.07,.15,3.34,7.29,7.89,13.83,13.5,19.44,5.62,5.62,12.17,10.11,19.47,13.34,7.33,3.25,15.19,4.89,23.36,4.89h55.17c8.17,0,16.03-1.64,23.37-4.89,7.3-3.23,13.85-7.72,19.47-13.34,5.61-5.61,10.15-12.15,13.5-19.44,.02-.05,.04-.1,.07-.15-.43,6.14-1.93,12.07-4.49,17.65-3.11,6.77-7.32,12.83-12.52,18.03-5.2,5.2-11.25,9.34-18,12.33-6.71,2.97-13.91,4.47-21.4,4.47Zm51.92-54.37c-3.11,6.77-7.32,12.83-12.52,18.03-5.2,5.2-11.25,9.34-18,12.33-6.71,2.97-13.91,4.47-21.4,4.47h-55.17c-7.49,0-14.69-1.5-21.39-4.47-6.75-2.99-12.81-7.14-18-12.34-5.21-5.2-9.42-11.27-12.52-18.03-2.56-5.58-4.06-11.5-4.49-17.64,.02,.05,.04,.1,.07,.15,3.34,7.29,7.89,13.83,13.5,19.44,5.61,5.62,12.17,10.11,19.47,13.34,7.33,3.25,15.19,4.89,23.36,4.89h55.17c8.17,0,16.03-1.64,23.37-4.89,7.3-3.23,13.85-7.73,19.47-13.34,5.61-5.61,10.15-12.15,13.5-19.44,.02-.05,.04-.1,.07-.15-.43,6.14-1.93,12.06-4.49,17.64Zm4.64-164.32v123.43c0,7.47-1.56,14.66-4.64,21.36-3.11,6.77-7.32,12.83-12.52,18.03-5.19,5.19-11.25,9.34-18,12.33-6.71,2.97-13.91,4.47-21.4,4.47h-55.17c-7.49,0-14.69-1.5-21.39-4.47-6.76-2.99-12.81-7.14-18-12.34-5.21-5.2-9.42-11.27-12.52-18.03-3.08-6.69-4.63-13.88-4.63-21.36v-142.95c0-7.02,1.51-13.99,4.48-20.7,2.99-6.76,7.09-12.82,12.18-18.02,5.09-5.2,11.16-9.47,18.03-12.68,6.82-3.19,14.17-4.8,21.87-4.8h55.17c7.69,0,15.05,1.62,21.87,4.8,6.87,3.22,12.93,7.48,18.03,12.68,5.09,5.21,9.19,11.27,12.18,18.02,2.97,6.72,4.48,13.68,4.48,20.7v19.52Z"/><path class="f" d="M803.76,508.24c-3.58-3.59-8.55-6.87-14.75-9.75l-5.39-2.5,5.59-2c6.15-2.19,11.08-4.9,14.65-8.04,3.57-3.13,6.94-7.69,10.04-13.54,3.04-5.75,4.58-13.48,4.58-22.98v-24.98c0-8.22-1.29-15.87-3.84-22.75-2.53-6.8-6.25-12.7-11.06-17.51-4.83-4.83-10.68-8.61-17.39-11.25-6.74-2.65-14.44-3.99-22.88-3.99h-113.11v255.36h52.73v-115.54h62.81v115.54h52.73v-78.06c0-9.51-1.55-17.37-4.59-23.36-3.12-6.12-6.53-11.05-10.14-14.65Zm-38-76.65v52.56h-62.81v-91.61h62.81v39.05Z"/><path d="M807.03,380.75c-5.31-5.3-11.72-9.46-19.05-12.34-7.31-2.88-15.61-4.33-24.66-4.33h-117.98v304.15h62.47v-115.54h53.08v115.54h62.47v-121.98c0-10.28-1.72-18.88-5.12-25.56-.63-1.24-1.29-2.39-1.94-3.54,.65-1.09,1.3-2.22,1.92-3.4,3.41-6.45,5.14-14.95,5.14-25.25v-64.03c0-8.79-1.39-17.02-4.14-24.44-2.77-7.46-6.87-13.94-12.19-19.26Zm6.34,131.67c-1.34-1.97-2.72-3.75-4.13-5.37,3.2-3.32,6.21-7.62,8.97-12.84,.02-.04,.04-.09,.06-.13-.5,6.97-1.95,12.81-4.37,17.38-.18,.34-.36,.62-.54,.95Zm.53,10.47c3.05,5.99,4.59,13.85,4.59,23.36v78.06h-52.73v-115.54h-62.81v115.54h-52.73v-255.36h113.11c8.44,0,16.14,1.35,22.88,3.99,6.7,2.64,12.55,6.42,17.39,11.25,4.81,4.82,8.54,10.71,11.06,17.51,2.55,6.88,3.84,14.53,3.84,22.75v24.98c0,9.5-1.54,17.23-4.58,22.98-3.1,5.85-6.47,10.41-10.04,13.54-3.57,3.14-8.5,5.84-14.65,8.04l-5.59,2,5.39,2.5c6.2,2.89,11.16,6.16,14.75,9.75,3.61,3.61,7.02,8.53,10.14,14.65Zm-48.14,140.47v-14.66h52.73v14.66h-52.73Zm52.73-19.53h-52.73v-14.66h52.73v14.66Zm-168.27,19.53v-14.66h52.73v14.66h-52.73Zm52.73-19.53h-52.73v-14.66h52.73v14.66Zm57.94-125.51v9.96h-53.08v-14.66h53.08v4.69Zm-53.08,14.83h53.08v14.66h-53.08v-14.66Zm106.1-41.22c-2.52,4.76-5.24,8.62-8.08,11.6-2.74-2.5-6.04-4.84-9.91-6.99,4.45-2,8.19-4.32,11.16-6.93,4.01-3.52,7.76-8.54,11.13-14.92,.02-.04,.04-.09,.06-.13-.5,6.97-1.95,12.81-4.37,17.38Z"/><path d="M765.76,392.53h-62.81v91.61h62.81v-91.61Zm-4.87,39.05h-53.08v-14.66h53.08v14.66Zm0,47.69h-53.08v-42.82h53.08v42.82Zm-53.08-67.22v-14.66h53.08v14.66h-53.08Z"/><path class="f" d="M1031.41,386.14c-5.44-5.21-11.69-9.44-18.57-12.55-6.82-3.08-13.61-4.64-20.16-4.64h-53.43c-6.32,0-12.93,1.56-19.63,4.64-6.79,3.12-12.99,7.29-18.43,12.4-5.43,5.1-9.93,11.17-13.37,18.05-3.4,6.79-5.12,13.9-5.12,21.12v199.16h52.73v-115.54h61.77v115.54h53.08v-199.16c0-7.19-1.77-14.22-5.27-20.9-3.56-6.78-8.13-12.88-13.58-18.11Zm-34.22,45.45v52.56h-61.77v-91.61h61.77v39.05Z"/><path d="M1034.78,382.62c-5.85-5.6-12.56-10.13-19.94-13.47-7.46-3.37-14.92-5.07-22.17-5.07h-53.43c-7.03,0-14.31,1.71-21.66,5.08-7.27,3.34-13.91,7.81-19.73,13.28-5.85,5.49-10.69,12.03-14.39,19.42-3.74,7.47-5.64,15.31-5.64,23.29v243.08h62.46v-115.54h52.04v115.54h62.81v-243.08c0-7.99-1.96-15.78-5.83-23.16-3.8-7.25-8.69-13.76-14.52-19.37Zm15.49,42.53v199.16h-53.08v-115.54h-61.77v115.54h-52.73v-199.16c0-7.22,1.72-14.33,5.12-21.12,3.44-6.88,7.94-12.95,13.37-18.05,5.44-5.11,11.64-9.28,18.43-12.4,6.7-3.08,13.31-4.64,19.63-4.64h53.43c6.55,0,13.34,1.56,20.16,4.64,6.88,3.11,13.13,7.33,18.57,12.55,5.45,5.24,10.02,11.33,13.58,18.11,3.5,6.68,5.27,13.71,5.27,20.9Zm-53.08,238.21v-14.66h53.08v14.66h-53.08Zm53.08-19.53h-53.08v-14.66h53.08v14.66Zm-167.58,19.53v-14.66h52.73v14.66h-52.73Zm52.73-19.53h-52.73v-14.66h52.73v14.66Zm56.9-125.51v9.96h-52.04v-14.66h52.04v4.69Zm-52.04,14.83h52.04v14.66h-52.04v-14.66Z"/><path d="M997.19,392.53h-61.77v91.61h61.77v-91.61Zm-4.87,39.05h-52.04v-14.66h52.04v14.66Zm0,47.69h-52.04v-42.82h52.04v42.82Zm-52.04-67.22v-14.66h52.04v14.66h-52.04Z"/><path class="f" d="M1264.04,386.47c-5.33-5.21-11.52-9.49-18.41-12.72-6.82-3.18-13.94-4.8-21.17-4.8h-55.17c-7.7,0-15.06,1.62-21.87,4.8-6.87,3.21-12.93,7.53-18.01,12.84-5.09,5.31-9.13,11.43-12.01,18.18-2.86,6.72-4.32,13.69-4.32,20.73v142.26c0,7.74,1.45,15.13,4.32,21.96,2.87,6.85,6.89,12.89,11.97,17.96,5.07,5.08,11.07,9.17,17.83,12.17,6.71,2.97,14.14,4.47,22.09,4.47h55.52c8.41,0,16.13-1.56,22.94-4.64,6.86-3.1,12.86-7.24,17.83-12.32,4.95-5.06,8.86-11.1,11.63-17.95,2.76-6.85,4.16-14.13,4.16-21.64v-83.96h-81.88v24.63h29.15v91.61h-62.81v-207.15h66.28c7.91,0,14.27,2.94,18.9,8.72,4.13,5.16,6.39,12.26,6.73,21.12h23.57c-.32-6.18-1.85-12.31-4.57-18.24-3.11-6.76-7.37-12.82-12.68-18.01Z"/><path d="M1267.44,382.99c-5.72-5.6-12.37-10.19-19.75-13.65-7.47-3.49-15.29-5.26-23.24-5.26h-55.17c-8.42,0-16.47,1.77-23.93,5.26-7.41,3.47-13.96,8.14-19.46,13.88-5.5,5.74-9.87,12.35-12.97,19.64-3.12,7.32-4.71,14.94-4.71,22.64v181.31c0,8.39,1.58,16.41,4.7,23.84,3.11,7.43,7.49,14,13.01,19.52,5.5,5.5,11.99,9.93,19.3,13.17,7.34,3.25,15.43,4.89,24.06,4.89h55.52c9.1,0,17.5-1.71,24.94-5.07,7.42-3.35,13.91-7.84,19.3-13.35,5.4-5.52,9.66-12.08,12.66-19.53,2.99-7.43,4.51-15.32,4.51-23.46v-127.88h-91.61v73.41h29.15v42.82h-53.08v-158.37h61.41c6.45,0,11.39,2.26,15.1,6.89,3.79,4.74,5.71,11.64,5.71,20.52v2.43h33.32v-2.43c0-5.77-.96-11.5-2.85-17.09h2.85v-2.43c0-5.77-.96-11.49-2.85-17.09h2.85v-2.43c0-7.71-1.71-15.35-5.08-22.7-3.36-7.3-7.96-13.85-13.7-19.46Zm13.85,39.73h-23.57c-.34-8.86-2.6-15.96-6.73-21.12-4.63-5.78-10.99-8.72-18.9-8.72h-66.28v207.15h62.81v-91.61h-29.15v-24.63h81.88v83.96c0,7.51-1.4,14.79-4.16,21.64-2.77,6.85-6.68,12.89-11.63,17.95-4.97,5.08-10.97,9.22-17.83,12.32-6.81,3.08-14.53,4.64-22.94,4.64h-55.52c-7.95,0-15.38-1.5-22.09-4.47-6.76-2.99-12.76-7.08-17.83-12.17-5.07-5.07-9.1-11.11-11.97-17.96-2.87-6.83-4.32-14.21-4.32-21.96v-142.26c0-7.04,1.45-14.01,4.32-20.73,2.87-6.75,6.92-12.87,12.01-18.18,5.08-5.3,11.14-9.62,18.01-12.84,6.81-3.19,14.17-4.8,21.87-4.8h55.17c7.23,0,14.36,1.62,21.17,4.8,6.89,3.23,13.09,7.51,18.41,12.72,5.3,5.2,9.57,11.26,12.68,18.01,2.72,5.93,4.25,12.05,4.57,18.24Zm0,19.52h-23.57c-.22-5.61-1.21-10.5-2.95-14.66h23.4c1.8,4.8,2.86,9.71,3.12,14.66Zm-23.57,19.53c-.22-5.61-1.21-10.51-2.95-14.66h23.4c1.8,4.81,2.87,9.71,3.12,14.66h-23.57Zm-6.73-40.65c-4.63-5.78-10.99-8.72-18.9-8.72h-61.41v-14.66h61.41c6.45,0,11.39,2.26,15.1,6.89,3.6,4.5,5.49,10.98,5.68,19.22-.58-.96-1.19-1.89-1.88-2.74Zm-80.31-3.85h61.41c6.45,0,11.39,2.26,15.1,6.89,3.6,4.51,5.49,10.99,5.68,19.23-.58-.96-1.19-1.89-1.88-2.74-4.63-5.78-10.99-8.72-18.9-8.72h-61.41v-14.66Zm53.08,96.02v14.66h-24.28v-14.66h24.28Zm-24.28,19.52h24.28v14.66h-24.28v-14.66Zm25.32,130.55h-55.52c-7.95,0-15.38-1.5-22.09-4.47-6.76-2.99-12.76-7.08-17.83-12.16-5.07-5.07-9.1-11.11-11.97-17.96-2.22-5.29-3.57-10.92-4.08-16.78,3.08,7.07,7.3,13.35,12.6,18.65,5.5,5.5,11.99,9.93,19.3,13.17,7.34,3.25,15.43,4.89,24.06,4.89h55.52c9.1,0,17.5-1.71,24.94-5.07,7.42-3.35,13.91-7.84,19.3-13.35,5.07-5.18,9.1-11.33,12.06-18.23-.5,5.66-1.8,11.16-3.92,16.41-2.77,6.85-6.68,12.89-11.63,17.95-4.96,5.08-10.96,9.22-17.83,12.32-6.81,3.08-14.53,4.64-22.94,4.64Zm52.39-54.44c-2.77,6.85-6.68,12.89-11.63,17.95-4.96,5.08-10.96,9.22-17.83,12.32-6.81,3.08-14.53,4.64-22.94,4.64h-55.52c-7.95,0-15.38-1.5-22.09-4.47-6.76-2.99-12.76-7.08-17.83-12.16-5.07-5.07-9.1-11.11-11.97-17.96-2.22-5.29-3.57-10.91-4.08-16.77,3.08,7.07,7.3,13.35,12.6,18.65,5.5,5.5,11.99,9.93,19.3,13.17,7.34,3.25,15.43,4.89,24.06,4.89h55.52c9.11,0,17.5-1.71,24.94-5.07,7.41-3.35,13.91-7.84,19.3-13.35,5.07-5.19,9.1-11.33,12.06-18.23-.5,5.66-1.8,11.16-3.92,16.4Z"/><polygon class="f" points="1344.51 388.47 1344.51 408 1344.51 624.31 1483.98 624.31 1483.98 619.56 1483.98 600.03 1397.24 600.03 1397.24 547.82 1397.24 528.29 1397.24 523.2 1397.24 508.77 1455.18 508.77 1455.18 503.67 1455.18 484.14 1397.24 484.14 1397.24 431.93 1397.24 412.4 1397.24 392.88 1483.98 392.88 1483.98 388.47 1483.98 368.95 1344.51 368.95 1344.51 388.47"/><path d="M1339.64,364.08v304.15h149.21v-73.06h-86.74v-42.48h57.94v-73.41h-57.94v-42.48h86.74v-72.72h-149.21Zm62.46,53.19h81.88v14.66h-81.88v-14.66Zm81.88-9.27v4.4h-81.88v-14.66h81.88v10.25Zm0-19.53v4.41h-86.74v91.26h57.94v24.63h-57.94v91.26h86.74v24.28h-139.47v-255.36h139.47v19.52Zm-81.88,144.69h53.08v14.66h-53.08v-14.66Zm53.08-9.96v5.1h-53.08v-14.66h53.08v9.56Zm-110.67,140.17v-14.66h139.47v14.66h-139.47Zm139.47-24.28v4.75h-139.47v-14.66h139.47v9.91Z"/><path d="M476.28,452.38c0,8.03,2.92,13.62,5.55,13.62s5.55-5.59,5.55-13.62-2.92-13.62-5.55-13.62-5.55,5.6-5.55,13.62Z"/><ellipse cx="524.4" cy="452.38" rx="5.55" ry="13.62"/><path d="M557.84,484.68c0,30.58-24.55,55.46-54.73,55.46s-54.73-24.88-54.73-55.46v-1.06h-3.58v1.06c0,32.56,26.16,59.04,58.31,59.04s58.31-26.49,58.31-59.04v-1.06h-3.58v1.06Z"/></g></g></svg>