<svg width="1535" height="323" viewBox="0 0 1535 323" fill="none" xmlns="http://www.w3.org/2000/svg">
<path d="M0.123779 5.02881C16.1458 7.58493 32.1864 10.0021 48.2455 12.2804V131.751C65.4715 132.27 82.7067 132.77 99.9513 133.251C99.9513 95.206 99.9513 57.1514 99.9513 19.0874C116.01 21.0879 132.097 22.9401 148.212 24.6442C148.212 114.571 148.212 204.526 148.212 294.509C132.116 296.009 116.029 297.658 99.9513 299.455V173.399C82.6882 173.51 65.4529 173.64 48.2455 173.788V305.956C32.1864 308.105 16.1458 310.429 0.123779 312.93V5.02881Z" fill="white"/>
<path d="M245.779 290.784C222.302 292.284 204.437 288.2 192.128 277.836C179.82 267.473 173.652 251.053 173.652 229.576C173.652 162.209 173.652 94.8425 173.652 27.4758C189.767 29.0873 205.9 30.5691 222.052 31.9212C222.052 98.1951 222.052 164.469 222.052 230.743C222.052 239.559 224.108 245.829 228.22 249.552C232.609 253.257 238.768 254.924 246.696 254.553C254.642 254.22 260.588 252.053 264.755 248.08C268.923 244.107 271.368 237.828 271.368 229.27C271.368 164.737 271.368 100.205 271.368 35.6721C286.927 36.7556 302.514 37.6725 318.073 38.4505C318.073 100.742 318.073 163.043 318.073 225.353C318.073 245.19 311.905 260.583 299.541 271.918C287.177 283.254 269.284 289.311 245.779 290.784Z" fill="white"/>
<path d="M343.811 39.7578C368.483 40.8321 393.173 41.6193 417.883 42.1194C441.999 42.6196 460.114 47.6762 472.172 57.6784C484.23 67.6806 490.26 82.2116 490.26 101.438C490.26 141.502 490.26 181.557 490.26 221.603C490.26 240.83 484.221 255.416 472.144 265.363C460.086 275.337 441.999 280.394 417.883 280.755C393.173 281.126 368.464 281.728 343.755 282.561C343.792 201.617 343.811 120.683 343.811 39.7578ZM416.882 246.664C424.828 246.664 430.858 244.812 434.97 241.108C439.387 237.44 441.582 231.55 441.61 223.381C441.61 182.15 441.61 140.91 441.61 99.6598C441.61 91.4914 439.387 85.5734 434.997 81.906C430.608 78.2385 424.828 76.3492 416.91 76.3492L392.182 75.9046V246.97L416.882 246.664Z" fill="white"/>
<path d="M514.129 42.537C538.819 42.2592 563.519 41.685 588.228 40.8144C612.345 39.9253 630.404 44.0929 642.463 53.7895C654.521 63.4861 660.522 78.406 660.522 98.4104C660.522 140.049 660.522 181.725 660.522 223.438C660.522 243.479 654.502 258.436 642.463 268.309C630.432 278.172 612.345 282.534 588.228 281.867C563.538 281.2 538.829 280.765 514.101 280.561L514.129 42.537ZM587.423 247.276C595.369 247.425 601.398 245.693 605.51 242.081C609.918 238.376 612.123 232.412 612.123 224.188C612.123 182.123 612.123 140.068 612.123 98.0214C612.123 89.7233 609.918 83.7868 605.51 80.212C601.398 76.6278 595.369 74.9886 587.45 75.1831L562.751 75.7665V246.943C570.975 247.054 579.199 247.276 587.423 247.276Z" fill="white"/>
<path d="M684.465 35.868C700.617 34.7751 716.759 33.5619 732.893 32.2283C732.893 105.448 732.893 178.659 732.893 251.86C759.435 253.082 785.951 254.555 812.438 256.277V294.897C769.845 290.868 727.197 287.84 684.465 285.562C684.484 202.321 684.484 119.09 684.465 35.868Z" fill="white"/>
<path d="M826.858 22.9494C870.756 17.9483 914.572 11.9748 958.303 5.02881V49.0107C930.52 52.1595 902.791 55.049 875.118 57.6793V132.862L941.244 130.918V174.149C919.239 173.853 897.197 173.64 875.118 173.51V260.891C902.902 263.206 930.631 265.892 958.303 268.948V312.93C914.572 306.095 870.784 300.649 826.886 296.259C826.886 205.147 826.876 114.043 826.858 22.9494Z" fill="white"/>
<path d="M1330.67 0H1130.62C1114.41 0 1098.87 6.43989 1087.4 17.903C1075.94 29.366 1069.5 44.9133 1069.5 61.1245V261.168C1069.5 277.38 1075.94 292.927 1087.4 304.39C1098.87 315.853 1114.41 322.293 1130.62 322.293H1330.67C1346.88 322.293 1362.43 315.853 1373.89 304.39C1385.35 292.927 1391.79 277.38 1391.79 261.168V61.1245C1391.79 44.9133 1385.35 29.366 1373.89 17.903C1362.43 6.43989 1346.88 0 1330.67 0V0Z" fill="#246BFD"/>
<path d="M1500.06 57.6234C1497.25 58.2259 1494.59 59.3574 1492.2 60.9575L1444.55 89.9638C1437.08 94.5493 1430.95 101.017 1426.77 108.718C1422.48 116.583 1420.23 125.402 1420.24 134.362V188.041C1420.24 197.022 1422.49 205.86 1426.8 213.741C1431 221.463 1437.16 227.941 1444.66 232.523L1492.67 261.529C1495.78 263.45 1499.25 264.708 1502.87 265.225C1506.47 265.726 1510.13 265.471 1513.62 264.474C1517.15 263.455 1520.44 261.735 1523.29 259.418C1526.18 257.044 1528.58 254.128 1530.35 250.833C1532.76 246.319 1534.02 241.28 1534.01 236.163V85.8518C1534.01 81.4964 1533.06 77.1941 1531.24 73.2379C1529.43 69.3491 1526.8 65.9054 1523.51 63.1524C1520.29 60.4589 1516.49 58.556 1512.4 57.5956C1508.34 56.6229 1504.11 56.6324 1500.06 57.6234Z" fill="#246BFD"/>
<path d="M1186.65 265.476C1171.73 265.476 1160.31 261.132 1152.4 252.445C1144.49 243.758 1140.53 231.496 1140.53 215.659V111.47C1140.53 95.5959 1144.49 83.3247 1152.4 74.6561C1160.31 65.9876 1171.73 61.644 1186.65 61.6255C1201.47 61.6255 1212.88 65.969 1220.88 74.6561C1228.89 83.3432 1232.84 95.6144 1232.75 111.47V215.659C1232.75 231.496 1228.79 243.758 1220.88 252.445C1212.98 261.132 1201.57 265.476 1186.65 265.476ZM1186.65 237.164C1197.12 237.164 1202.36 230.681 1202.38 217.715V109.469C1202.38 96.5035 1197.14 90.0206 1186.65 90.0206C1176.17 90.0206 1170.92 96.5035 1170.9 109.469V217.632C1170.9 230.672 1176.15 237.183 1186.65 237.164Z" fill="white"/>
<path d="M1290.33 111.467H1258.57V89.3787C1265.55 89.5798 1272.51 88.8131 1279.27 87.1004C1284.16 85.9183 1288.6 83.3636 1292.08 79.7377C1295.76 75.1899 1298.58 70.0124 1300.42 64.4565H1320.84V262.639H1290.33V111.467Z" fill="white"/>
</svg>
